<?xml version="1.0" encoding="UTF-8" standalone="no"?><!DOCTYPE svg PUBLIC "-//W3C//DTD SVG 1.1//EN" "http://www.w3.org/Graphics/SVG/1.1/DTD/svg11.dtd"><svg width="100%" height="100%" viewBox="0 0 3771 3771" version="1.1" xmlns="http://www.w3.org/2000/svg" xmlns:xlink="http://www.w3.org/1999/xlink" xml:space="preserve" xmlns:serif="http://www.serif.com/" style="fill-rule:evenodd;clip-rule:evenodd;stroke-linejoin:round;stroke-miterlimit:2;"><g id="letters"><path d="M1850.848,922.114l-694.464,-528.756l36.347,-47.738l673.574,512.851l713.926,-501.022l34.467,49.113l-735.875,516.426l-9.845,12.931l-4.115,-3.133l-4.372,3.069l-9.641,-13.739Zm3.438,-155.543l-694.462,-528.755l36.347,-47.738l673.575,512.851l713.927,-501.023l34.467,49.113l-735.878,516.428l-9.843,12.928l-4.114,-3.133l-4.373,3.069l-9.643,-13.741Zm4.657,-158.391l-694.462,-528.755l36.347,-47.738l673.575,512.851l713.927,-501.023l34.467,49.113l-735.878,516.428l-9.843,12.928l-4.114,-3.133l-4.373,3.069l-9.643,-13.741Zm-21.622,776.689l-694.464,-528.756l36.347,-47.738l673.574,512.851l713.927,-501.022l34.466,49.113l-735.876,516.426l-9.845,12.931l-4.115,-3.133l-4.372,3.069l-9.642,-13.739Zm3.439,-155.542l-694.464,-528.756l36.347,-47.738l673.574,512.851l713.927,-501.022l34.466,49.113l-735.876,516.425l-9.845,12.931l-4.115,-3.133l-4.373,3.069l-9.642,-13.739Zm4.659,-158.391l-694.465,-528.756l36.347,-47.738l673.575,512.851l713.926,-501.022l34.467,49.113l-735.875,516.425l-9.845,12.931l-4.115,-3.133l-4.372,3.069l-9.641,-13.738Zm-1084.307,-201.11l60,0l0,2130.86l-60,0l0,-2130.86Zm147.702,0l60,-0l0,2130.86l-60,-0l0,-2130.86Zm147.704,0l60,-0l0,2130.86l-60,-0l0,-2130.86Zm-433.389,-0l60,0l0,2130.86l-60,0l0,-2130.86Zm-433.389,7.639l60,-0l0,2130.861l-60,-0l0,-2130.861Zm147.703,-0l60,0l0,2130.861l-60,0l0,-2130.861Zm147.702,0l60,-0l0,2130.861l-60,-0l0,-2130.861Zm-433.388,-0l60,0l0,2130.861l-60,0l0,-2130.861Zm3293.335,-3.462l60,0l0,2130.86l-60,0l0,-2130.86Zm147.704,0l60,-0l0,2130.86l-60,-0l0,-2130.86Zm147.702,-0l60,0l0,2130.86l-60,0l0,-2130.86Zm-433.389,-0l60,0l0,2130.86l-60,0l0,-2130.86Zm-433.389,7.64l60,0l0,2130.86l-60,0l0,-2130.86Zm147.704,0l60,-0l0,2130.86l-60,-0l0,-2130.86Zm147.702,-0l60,0l0,2130.86l-60,0l0,-2130.86Zm-433.389,-0l60,0l0,2130.86l-60,0l0,-2130.86Z" style="fill:#030404;"/></g></svg>