<?xml version="1.0" encoding="UTF-8" standalone="no"?>
<!DOCTYPE svg PUBLIC "-//W3C//DTD SVG 1.1//EN" "http://www.w3.org/Graphics/SVG/1.1/DTD/svg11.dtd">
<svg width="100%" height="100%" viewBox="0 0 744 758" version="1.1" xmlns="http://www.w3.org/2000/svg" xmlns:xlink="http://www.w3.org/1999/xlink" xml:space="preserve" xmlns:serif="http://www.serif.com/" style="fill-rule:evenodd;clip-rule:evenodd;stroke-linejoin:round;stroke-miterlimit:2;">
    <g id="Layer-1" serif:id="Layer 1" transform="matrix(0.293234,0,0,0.293234,29.377952,0.000491)">
        <g transform="matrix(0.963039,0,0,0.963039,821.020202,74.392592)">
            <path d="M0,2542.827L1356.021,2070.181C1471.64,2029.882 1544.949,1914.924 1522.819,1792.373L-31.452,2366.829L-31.6,2032.697L-156.678,2076.272C-287.109,2120.084 -355.595,2260.299 -312.149,2389.171C-269.595,2515.397 -129.846,2588.085 0,2542.827M38.502,2266.391L1500.989,1725.944C1446.283,1616.436 1320.409,1563.482 1204.166,1601.183L38.151,2008.275L38.502,2266.391ZM-6.952,1732.142L-7.093,1210.764L-646.981,1434.122C-775.64,1481.259 -840.126,1623.018 -793.985,1749.727C-747.637,1877.006 -607.583,1942.242 -478.129,1896.96L-6.952,1732.142ZM884.407,1420.931C1021.639,1368.731 1082.489,1208.073 1015.896,1079.334L22.867,1444.144L23.068,1721.664L884.407,1420.931ZM23.136,1369.441L974.137,1020.122C907.709,951.104 807.031,926.847 716.79,957.977L22.836,1200.251L23.136,1369.441ZM1341.069,455.255C1484.877,409.659 1553.914,246.842 1488.393,113.196L34.944,650.675L35.112,911.228L1341.069,455.255ZM-34.696,934.202L-34.836,601.885L1448.271,53.421C1382.633,-15.903 1282.023,-45.258 1191.977,-13.834L-174.489,463.029C-299.68,506.718 -365.92,642.366 -327.886,766.888C-290.071,890.691 -161.496,965.236 -34.696,934.202" style="fill:white;fill-rule:nonzero;"/>
        </g>
        <g transform="matrix(0.963039,0,0,0.963039,821.020202,1844.103518)">
            <path d="M0,705.196C-129.846,750.454 -269.595,677.766 -312.149,551.54C-355.595,422.668 -287.109,282.453 -156.678,238.641L-31.6,195.066L-31.452,529.198L1522.819,-45.258C1544.949,77.293 1471.64,192.251 1356.021,232.55L0,705.196Z" style="fill-rule:nonzero;"/>
        </g>
        <g transform="matrix(-0.001313,-0.963038,-0.963038,0.001313,1901.570505,2622.136571)">
            <path d="M380.61,1083.001L638.727,1083.001L1044.228,-83.569C1081.77,-199.863 1028.645,-325.665 919.062,-380.222L380.61,1083.001Z" style="fill-rule:nonzero;"/>
        </g>
        <g transform="matrix(-0.909214,0.31745,0.31745,0.909214,1107.154515,792.991023)">
            <path d="M-1081.504,69.46L301.767,69.46L216.038,-176.585L-1333.347,-204.918C-1351.152,-57.144 -1232.303,73.817 -1081.504,69.46" style="fill-rule:nonzero;"/>
        </g>
        <g transform="matrix(0.963039,0,0,0.963039,787.606204,60.694321)">
            <path d="M0,948.426C-126.8,979.46 -255.375,904.915 -293.189,781.112C-331.224,656.59 -264.984,520.942 -139.792,477.253L1226.674,0.39C1316.719,-31.034 1417.33,-1.679 1482.968,67.645L-0.14,616.109L0,948.426Z" style="fill-rule:nonzero;"/>
        </g>
        <g transform="matrix(0.963039,0,0,0.963039,814.325538,1442.740024)">
            <path d="M0,311.279L-471.178,476.096C-600.631,521.379 -740.685,456.143 -787.034,328.864C-833.175,202.154 -768.689,60.395 -640.03,13.258L-0.141,-210.1L0,311.279Z" style="fill-rule:nonzero;"/>
        </g>
        <g transform="matrix(-0.909215,0.317449,0.317449,0.909215,1045.171995,1509.858032)">
            <path d="M-638.182,149.071L274.147,149.071L182.857,-113.005L-874.924,-130.091C-895.358,13.403 -784.951,145.024 -638.182,149.071" style="fill-rule:nonzero;"/>
        </g>
        <g transform="matrix(-0.001708,-0.963038,-0.963038,0.001708,1515.011883,1637.502844)">
            <path d="M254.896,697.04L424.086,697.04L665.131,2.657C696.101,-87.639 671.665,-188.274 602.528,-254.579L254.896,697.04Z" style="fill-rule:nonzero;"/>
        </g>
    </g>
</svg>
