<?xml version="1.0" encoding="UTF-8" standalone="no"?>
<!DOCTYPE svg PUBLIC "-//W3C//DTD SVG 1.1//EN" "http://www.w3.org/Graphics/SVG/1.1/DTD/svg11.dtd">
<svg width="100%" height="100%" viewBox="0 0 744 758" version="1.1" xmlns="http://www.w3.org/2000/svg" xmlns:xlink="http://www.w3.org/1999/xlink" xml:space="preserve" xmlns:serif="http://www.serif.com/" style="fill-rule:evenodd;clip-rule:evenodd;stroke-linejoin:round;stroke-miterlimit:2;">
    <g id="Layer-1" serif:id="Layer 1" transform="matrix(0.200103,0,0,0.200103,-0.000027,-0.00026)">
        <g id="letters" transform="matrix(1.265334,0,0,1.265334,0.000135,378.440233)">
            <g transform="matrix(-0.795631,-0.605782,-0.605782,0.795631,1121.279772,258.400214)">
                <rect x="-626.782" y="211.454" width="718.362" height="60.001" style="fill:rgb(3,4,4);"/>
            </g>
            <g transform="matrix(-0.574453,-0.818538,-0.818538,0.574453,2098.6545,714.763854)">
                <rect x="255.235" y="-132.693" width="59.991" height="739.029" style="fill:rgb(3,4,4);"/>
            </g>
            <g transform="matrix(-0.79563,-0.605783,-0.605783,0.79563,1117.544668,385.44146)">
                <rect x="-626.781" y="211.454" width="718.361" height="60.001" style="fill:rgb(3,4,4);"/>
            </g>
            <g transform="matrix(-0.574445,-0.818543,-0.818543,0.574445,2094.918463,841.808401)">
                <rect x="255.232" y="-132.693" width="59.998" height="739.03" style="fill:rgb(3,4,4);"/>
            </g>
            <g transform="matrix(-0.795629,-0.605784,-0.605784,0.795629,1114.78626,510.197286)">
                <rect x="-626.781" y="211.455" width="718.361" height="60" style="fill:rgb(3,4,4);"/>
            </g>
            <g transform="matrix(-0.574445,-0.818543,-0.818543,0.574445,2092.159663,966.563701)">
                <rect x="255.232" y="-132.693" width="59.998" height="739.03" style="fill:rgb(3,4,4);"/>
            </g>
            <g transform="matrix(-1,0,0,1,1197.904,667.492)">
                <rect x="568.952" y="9.479" width="60" height="1709.1" style="fill:rgb(3,4,4);"/>
            </g>
            <g transform="matrix(-1,0,0,1,1434.84,667.492)">
                <rect x="687.42" y="9.479" width="60" height="1709.1" style="fill:rgb(3,4,4);"/>
            </g>
            <g transform="matrix(-1,0,0,1,1671.778,667.492)">
                <rect x="805.889" y="9.479" width="60" height="1709.1" style="fill:rgb(3,4,4);"/>
            </g>
            <g transform="matrix(-1,0,0,1,976.56,667.492)">
                <rect x="458.28" y="9.479" width="60" height="1709.1" style="fill:rgb(3,4,4);"/>
            </g>
            <g transform="matrix(-1,0,0,1,281.344,679.747)">
                <rect x="110.672" y="3.351" width="60" height="1709.101" style="fill:rgb(3,4,4);"/>
            </g>
            <g transform="matrix(-1,0,0,1,518.28,679.747)">
                <rect x="229.14" y="3.351" width="60" height="1709.101" style="fill:rgb(3,4,4);"/>
            </g>
            <g transform="matrix(-1,0,0,1,755.216,679.747)">
                <rect x="347.608" y="3.351" width="60" height="1709.101" style="fill:rgb(3,4,4);"/>
            </g>
            <g transform="matrix(1,0,0,1,0,679.748)">
                <rect x="0" y="3.351" width="60" height="1709.1" style="fill:rgb(3,4,4);"/>
            </g>
            <g transform="matrix(-0.605782,0.795631,0.795631,0.605782,1552.988842,174.812333)">
                <rect x="237.601" y="-600.635" width="60.002" height="718.361" style="fill:rgb(3,4,4);"/>
            </g>
            <g transform="matrix(-0.574445,-0.818543,-0.818543,0.574445,2109.503363,343.606201)">
                <rect x="255.232" y="-132.693" width="59.998" height="739.03" style="fill:rgb(3,4,4);"/>
            </g>
            <g transform="matrix(-0.795629,-0.605784,-0.605784,0.795629,1128.39466,14.280286)">
                <rect x="-626.781" y="211.455" width="718.361" height="60" style="fill:rgb(3,4,4);"/>
            </g>
            <g transform="matrix(-0.574445,-0.818543,-0.818543,0.574445,2105.768063,470.647201)">
                <rect x="255.232" y="-132.693" width="59.998" height="739.03" style="fill:rgb(3,4,4);"/>
            </g>
            <g transform="matrix(-0.79563,-0.605783,-0.605783,0.79563,1125.635468,139.03516)">
                <rect x="-626.781" y="211.454" width="718.361" height="60.001" style="fill:rgb(3,4,4);"/>
            </g>
            <g transform="matrix(-0.574453,-0.818538,-0.818538,0.574453,2103.009,595.398554)">
                <rect x="255.235" y="-132.693" width="59.991" height="739.029" style="fill:rgb(3,4,4);"/>
            </g>
            <g transform="matrix(-1,0,0,1,5342.974,674.194)">
                <rect x="2641.487" y="6.128" width="60" height="1709.1" style="fill:rgb(3,4,4);"/>
            </g>
            <g transform="matrix(-1,0,0,1,5579.912,674.194)">
                <rect x="2759.956" y="6.128" width="60" height="1709.1" style="fill:rgb(3,4,4);"/>
            </g>
            <g transform="matrix(1,0,0,1,0,674.195)">
                <rect x="2878.424" y="6.128" width="59.999" height="1709.099" style="fill:rgb(3,4,4);"/>
            </g>
            <g transform="matrix(-1,0,0,1,5121.63,674.194)">
                <rect x="2530.815" y="6.128" width="60" height="1709.1" style="fill:rgb(3,4,4);"/>
            </g>
            <g transform="matrix(1,0,0,1,0,686.45)">
                <rect x="2183.207" y="0" width="60" height="1709.1" style="fill:rgb(3,4,4);"/>
            </g>
            <g transform="matrix(1,0,0,1,0,686.45)">
                <rect x="2301.675" y="0" width="60" height="1709.1" style="fill:rgb(3,4,4);"/>
            </g>
            <g transform="matrix(1,0,0,1,0,686.45)">
                <rect x="2420.143" y="0" width="60" height="1709.1" style="fill:rgb(3,4,4);"/>
            </g>
            <g transform="matrix(1,0,0,1,0,686.45)">
                <rect x="2072.535" y="0" width="60" height="1709.1" style="fill:rgb(3,4,4);"/>
            </g>
        </g>
    </g>
</svg>
