<?xml version="1.0" encoding="UTF-8" standalone="no"?>
<!DOCTYPE svg PUBLIC "-//W3C//DTD SVG 1.1//EN" "http://www.w3.org/Graphics/SVG/1.1/DTD/svg11.dtd">
<svg width="100%" height="100%" viewBox="0 0 744 758" version="1.1" xmlns="http://www.w3.org/2000/svg" xmlns:xlink="http://www.w3.org/1999/xlink" xml:space="preserve" xmlns:serif="http://www.serif.com/" style="fill-rule:evenodd;clip-rule:evenodd;stroke-linejoin:round;stroke-miterlimit:2;">
    <g id="Layer-1" serif:id="Layer 1" transform="matrix(1,0,0,1,-2177.606954,-1960.285913)">
        <g transform="matrix(0.82222,0,0,0.82222,2549.426954,2338.960913)">
            <g id="Layer-11" serif:id="Layer 1">
                <g transform="matrix(1,0,0,1,-452.215,-426.615)">
                    <clipPath id="_clip1">
                        <rect x="0" y="0" width="904.43" height="853.23"/>
                    </clipPath>
                    <g clip-path="url(#_clip1)">
                        <path d="M721.94,398.11C753.52,384.28 781.11,362.58 794.85,330.5C824.75,263.86 817.77,171.69 753.11,128.3C712.34,100.76 662.76,90.16 615.7,79.5C546.78,63.11 475.27,64.04 404.83,64.47C351.89,64.06 300.03,68.07 247.18,73.63C216.16,77.54 183.78,80.26 153.99,89.61C134.88,96.08 118.23,107.26 107.49,124.11C90.24,151.53 87.37,194.02 111.44,218.52C133.55,240.63 169.77,232.94 195.72,247.15C217.72,258.1 227.91,284.99 217.69,307.51C205.27,336.08 173.14,351.79 142.98,355.1C105.58,359.84 72.04,336.42 50.31,307.21C21.12,269.72 -1.49,223.54 0.08,175.17C2.54,113.87 41.62,53.7 99.06,30.62C139.36,14.65 183.49,13.46 226.08,8.32C286.95,2 348.28,-1.65 409.41,0.74C454.67,2.79 499.72,7.42 544.96,9.83C599.7,13.85 654.22,23.31 707.13,37.46C781.75,57.14 838.56,107.4 860.23,182.42C888.37,272.93 862.85,369.41 778.89,419.44C750.23,437.01 715.9,443.29 687.67,461.27C644.92,490.87 665.92,523.61 706.83,540.01C772.69,568.33 853.69,591.54 885.68,662.19C900.91,696.44 905.02,735.1 904.36,772.38C903.96,809.64 888.64,854.02 844.71,853.23C825.55,852.93 810.3,838.37 812.16,819.34C812.82,803.7 821.82,786.54 826.83,771.12C838.57,739.71 835.55,703.3 816.04,675.53C789.45,636.56 745.39,614.13 704.88,592.06C683.01,580.26 659.31,569.31 640.61,553.18C610.8,529.28 601.3,488 626.01,456.97C649.41,427.1 688.43,414.04 721.8,398.17L721.93,398.11L721.94,398.11Z" style="fill-rule:nonzero;"/>
                        <path d="M168.19,842.66C147.21,844.42 124.99,842.81 106.15,833.01C72.02,815.39 62.36,779.24 85.73,748.16C106.42,719.91 143.05,710.46 175.23,701.62C243.71,685.53 277.77,641.16 285.4,572.5C295.93,517.56 291.63,461.48 292.5,405.86C293.6,366.59 290.48,327.39 288.83,288.19C288.72,247.84 290.51,207.93 289.24,167.56C288.22,132.94 319.05,118.1 333.85,154.53C341.74,183.09 339.8,213.14 343.09,242.56C348.65,302.55 350.9,362.47 351.87,422.67C350.77,465.11 345.53,507.29 340.38,549.37C335.08,581.2 331.4,614 324.64,645.68C304.82,728.26 265.56,832.85 168.34,842.64L168.2,842.64L168.19,842.66Z" style="fill-rule:nonzero;"/>
                    </g>
                </g>
            </g>
        </g>
    </g>
</svg>
