<?xml version="1.0" encoding="UTF-8" standalone="no"?>
<!DOCTYPE svg PUBLIC "-//W3C//DTD SVG 1.1//EN" "http://www.w3.org/Graphics/SVG/1.1/DTD/svg11.dtd">
<svg width="100%" height="100%" viewBox="0 0 744 758" version="1.1" xmlns="http://www.w3.org/2000/svg" xmlns:xlink="http://www.w3.org/1999/xlink" xml:space="preserve" xmlns:serif="http://www.serif.com/" style="fill-rule:evenodd;clip-rule:evenodd;stroke-linejoin:round;stroke-miterlimit:2;">
    <g id="Layer-1" serif:id="Layer 1" transform="matrix(1,0,0,1,-2177.606954,-1960.285913)">
        <g transform="matrix(0.263226,0,0,0.263226,2058.49151,1915.511242)">
            <path d="M2055.68,463.17C2255.87,306.35 2496.56,204.01 2748.68,170.1C2548.74,327.38 2307.65,428.78 2055.68,463.17Z" style="fill:rgb(35,31,32);fill-rule:nonzero;"/>
            <path d="M2043.69,1420.98C1566.4,1299.47 1575.41,572.27 2055.69,463.16C1702.34,688.96 1695.8,1186.67 2043.69,1420.98Z" style="fill:rgb(35,31,32);fill-rule:nonzero;"/>
            <path d="M2739.12,1757.88C2483.02,1707.68 2241.56,1591.27 2043.68,1420.99C2299.96,1470.7 2540.98,1588.03 2739.12,1757.88Z" style="fill:rgb(35,31,32);fill-rule:nonzero;"/>
            <path d="M2756.37,2702.26C3083.47,2461.51 3074.27,1986.67 2739.11,1757.89C3201.01,1871.97 3213.25,2571.26 2756.37,2702.26Z" style="fill:rgb(35,31,32);fill-rule:nonzero;"/>
            <path d="M2062.86,3047.29C2259.76,2875.08 2500.06,2754.95 2756.37,2702.25C2559.75,2874.91 2318.99,2994.11 2062.86,3047.29Z" style="fill:rgb(35,31,32);fill-rule:nonzero;"/>
            <path d="M2381.36,2769.85C2381.36,2792.52 2362.98,2810.9 2340.31,2810.9C2317.64,2810.9 2299.26,2792.52 2299.26,2769.85C2299.26,2747.18 2317.64,2728.8 2340.31,2728.8C2362.98,2728.8 2381.36,2747.18 2381.36,2769.85Z" style="fill:rgb(35,31,32);fill-rule:nonzero;"/>
            <path d="M3202.35,2227.58C3202.35,2250.25 3183.97,2268.63 3161.3,2268.63C3138.63,2268.63 3120.25,2250.25 3120.25,2227.58C3120.25,2204.91 3138.63,2186.53 3161.3,2186.53C3183.97,2186.53 3202.35,2204.91 3202.35,2227.58Z" style="fill:rgb(35,31,32);fill-rule:nonzero;"/>
            <circle cx="2432.45" cy="1478.28" r="41.05" style="fill:rgb(35,31,32);"/>
            <path d="M1659.45,942.07C1659.45,964.74 1641.07,983.12 1618.4,983.12C1595.73,983.12 1577.35,964.74 1577.35,942.07C1577.35,919.4 1595.73,901.02 1618.4,901.02C1641.07,901.02 1659.45,919.4 1659.45,942.07Z" style="fill:rgb(35,31,32);fill-rule:nonzero;"/>
            <path d="M2391.4,211.16C2391.4,233.83 2373.02,252.21 2350.35,252.21C2327.68,252.21 2309.3,233.83 2309.3,211.16C2309.3,188.49 2327.68,170.11 2350.35,170.11C2373.02,170.11 2391.4,188.49 2391.4,211.16Z" style="fill:rgb(35,31,32);fill-rule:nonzero;"/>
        </g>
        <g transform="matrix(0.263226,0,0,0.263226,2058.49151,1915.511242)">
            <path d="M1006.14,463.18C1206.33,306.36 1447.02,204.02 1699.14,170.11C1499.2,327.39 1258.11,428.79 1006.14,463.18Z" style="fill:rgb(35,31,32);fill-rule:nonzero;"/>
            <path d="M994.14,1420.99C516.85,1299.48 525.86,572.28 1006.14,463.17C652.79,688.97 646.25,1186.68 994.14,1420.99Z" style="fill:rgb(35,31,32);fill-rule:nonzero;"/>
            <path d="M1689.57,1757.89C1433.47,1707.69 1192.01,1591.28 994.13,1421C1250.41,1470.71 1491.43,1588.04 1689.57,1757.89Z" style="fill:rgb(35,31,32);fill-rule:nonzero;"/>
            <path d="M1706.82,2702.27C2033.92,2461.52 2024.72,1986.68 1689.56,1757.9C2151.46,1871.98 2163.7,2571.27 1706.82,2702.27Z" style="fill:rgb(35,31,32);fill-rule:nonzero;"/>
            <path d="M1013.31,3047.29C1210.21,2875.08 1450.51,2754.95 1706.82,2702.25C1510.2,2874.91 1269.44,2994.11 1013.31,3047.29Z" style="fill:rgb(35,31,32);fill-rule:nonzero;"/>
            <path d="M1331.81,2769.86C1331.81,2792.53 1313.43,2810.91 1290.76,2810.91C1268.09,2810.91 1249.71,2792.53 1249.71,2769.86C1249.71,2747.19 1268.09,2728.81 1290.76,2728.81C1313.43,2728.81 1331.81,2747.19 1331.81,2769.86Z" style="fill:rgb(35,31,32);fill-rule:nonzero;"/>
            <path d="M2152.8,2227.59C2152.8,2250.26 2134.42,2268.64 2111.75,2268.64C2089.08,2268.64 2070.7,2250.26 2070.7,2227.59C2070.7,2204.92 2089.08,2186.54 2111.75,2186.54C2134.42,2186.54 2152.8,2204.92 2152.8,2227.59Z" style="fill:rgb(35,31,32);fill-rule:nonzero;"/>
            <circle cx="1382.9" cy="1478.29" r="41.05" style="fill:rgb(35,31,32);"/>
            <path d="M609.9,942.08C609.9,964.75 591.52,983.13 568.85,983.13C546.18,983.13 527.8,964.75 527.8,942.08C527.8,919.41 546.18,901.03 568.85,901.03C591.52,901.03 609.9,919.41 609.9,942.08Z" style="fill:rgb(35,31,32);fill-rule:nonzero;"/>
            <path d="M1341.85,211.16C1341.85,233.83 1323.47,252.21 1300.8,252.21C1278.13,252.21 1259.75,233.83 1259.75,211.16C1259.75,188.49 1278.13,170.11 1300.8,170.11C1323.47,170.11 1341.85,188.49 1341.85,211.16Z" style="fill:rgb(35,31,32);fill-rule:nonzero;"/>
        </g>
    </g>
</svg>
