<?xml version="1.0" encoding="UTF-8" standalone="no"?>
<!DOCTYPE svg PUBLIC "-//W3C//DTD SVG 1.1//EN" "http://www.w3.org/Graphics/SVG/1.1/DTD/svg11.dtd">
<svg width="100%" height="100%" viewBox="0 0 744 758" version="1.1" xmlns="http://www.w3.org/2000/svg" xmlns:xlink="http://www.w3.org/1999/xlink" xml:space="preserve" xmlns:serif="http://www.serif.com/" style="fill-rule:evenodd;clip-rule:evenodd;stroke-linejoin:round;stroke-miterlimit:2;">
    <g transform="matrix(0.206803,0,0,0.206803,318.558319,294.872897)">
        <g id="Layer-1" serif:id="Layer 1" transform="matrix(1,0,0,1,-1540.396868,-1118.269697)">
            <g transform="matrix(1,0,0,1,0,169.873)">
                <rect x="0" y="0" width="3614.328" height="2877.117" style="fill:rgb(250,238,86);"/>
            </g>
            <g transform="matrix(1,0,0,1,2137.4814,172.8159)">
                <path d="M0,2871.807L-0.474,2853.626L-0.411,2664.295C-2.229,2663.108 -8.53,2662.926 -10.082,2664.478L-206.76,2861.167C-208.464,2862.87 -210.476,2867.655 -211.97,2871.711L0,2871.807ZM-1928.549,-0.843L-2137.459,-1.807L-2137.313,208.502L-1928.549,-0.843ZM1263.083,-0.823L593.646,668.684L281.513,668.459L950.987,-1.134L688.229,-1.694L18.998,667.589L4.685,668.99L3.455,683.13L-665.813,1352.272L-666.312,1040.481L375.016,-0.919L112.551,-1.744L-665.41,776.198L-666.214,668.709L-869.758,668.254L-203.605,2.046C-202.673,1.114 -204.305,-0.734 -206.585,-1.677L-463.124,-1.788L-1133.593,668.709L-1439.41,668.615L-1443.999,668.117C-1444.734,668.037 -1442.742,665.467 -1441.637,664.362L-777.854,0.56C-785.206,-1.685 -793.108,-1.721 -802.463,-1.723L-1038.85,-1.784L-1706.239,665.61C-1709.019,668.39 -1713.38,668.68 -1717.905,668.679L-2013.278,668.641L-2018.802,668.642C-2019.924,668.642 -2018.849,665.835 -2017.395,664.381L-1355.061,2.048C-1354.168,1.155 -1355.685,-0.536 -1358.082,-1.752L-1614.819,-1.641L-2137.278,521.045L-2137.248,2874.038L-1030.124,2873.914L-680.7,2873.913L-676.224,2874.016L-669.169,2874.174L-666.086,2871.943L-666.318,2755.24L2.832,2086.065L4.269,2102.191L-4.222,2100.92L-438.864,2534.866L-664.117,2758.286L-664.194,2871.802L-473.146,2871.738L-460.496,2860.96L4.083,2396.522L-471.268,2873.817L-221.492,2873.921L2.86,2649.549C4.477,2659.518 4.419,2668.085 3.545,2678.04L3.548,2857.589L4.143,2873.915L1474.841,2873.916C1475.358,2874.75 1476.839,2870.193 1476.839,2869.17L1476.846,-2.821L1267.091,-2.943L1263.083,-0.823Z" style="fill:rgb(250,238,86);fill-rule:nonzero;"/>
            </g>
            <g transform="matrix(1,0,0,1,3614.3223,2.0257)">
                <path d="M0,-2.022C0.235,-1.75 -1.614,-0.433 -2.152,0L-24.544,-0.021L-897.946,-0.023L-3611.578,-0.022L-3614.322,-2.022L0,-2.022Z" style="fill:rgb(252,241,114);fill-rule:nonzero;"/>
            </g>
            <g transform="matrix(1,0,0,1,1471.7855,541.5561)">
                <path d="M0,2134.906L670.222,1464.779L669.97,1152.663L-0.61,1823.195L0,2134.906ZM0,1559.173L670.222,889.046L669.97,576.93L-0.61,1247.462L0,1559.173ZM1928.779,-369.563L2140.5,-369.67L2140.538,-325.501L2140.267,-315.34L1522.995,299.656L1834.952,300.047L2138.402,-3.559C2139.231,-3.608 2139.671,-2.223 2140.541,0.13L2140.537,2505.175L669.839,2505.175L669.244,2488.849L669.241,2309.3C670.115,2299.345 670.173,2290.778 668.556,2280.809L444.204,2505.181L194.427,2505.077L669.779,2027.782L669.965,1733.451L668.527,1717.324L-0.622,2386.499L-0.39,2503.203L-3.473,2505.434L-10.528,2505.276L-15.004,2505.173L-364.428,2505.174L-1471.552,2505.298L-1471.582,152.305L-949.123,-370.381L-692.386,-370.492C-689.989,-369.276 -688.472,-367.585 -689.365,-366.692L-1351.699,295.641C-1353.153,297.095 -1354.229,299.902 -1353.106,299.902L-1347.582,299.901L-1052.209,299.939C-1047.684,299.94 -1043.323,299.65 -1040.543,296.87L-373.154,-370.524L-136.767,-370.463C-127.412,-370.461 -119.51,-370.425 -112.158,-368.18L-775.941,295.622C-777.047,296.727 -779.038,299.297 -778.303,299.376L-773.714,299.875L-467.897,299.969L202.572,-370.528L459.111,-370.417C461.391,-369.474 463.023,-367.626 462.091,-366.694L-204.062,299.513L-0.518,299.968L0.286,407.458L778.247,-370.484L1040.712,-369.659L-0.616,671.741L-0.117,983.532L669.151,314.39L670.381,300.25L684.694,298.849L1353.925,-370.435L1616.683,-369.875L947.209,299.719L1259.342,299.944L1928.779,-369.563Z" style="fill:rgb(38,35,35);fill-rule:nonzero;"/>
            </g>
            <g transform="matrix(1,0,0,1,2141.7505,3043.3462)">
                <path d="M0,-768.339L-0.186,-474.008L-464.765,-9.571L-477.415,1.208L-668.463,1.271L-668.386,-112.245L-443.133,-335.664L-8.491,-769.61L0,-768.339Z" style="fill:rgb(251,239,85);fill-rule:nonzero;"/>
            </g>
            <g transform="matrix(1,0,0,1,2137.4814,2835.7419)">
                <path d="M0,208.881L-211.97,208.785C-210.476,204.729 -208.464,199.944 -206.76,198.241L-10.082,1.552C-8.53,0 -2.229,0.182 -0.411,1.369L-0.474,190.7L0,208.881Z" style="fill:rgb(251,239,85);fill-rule:nonzero;"/>
            </g>
            <g transform="matrix(1,0,0,1,208.9328,380.3544)">
                <path d="M0,-208.381L-208.764,0.964L-208.91,-209.345L0,-208.381Z" style="fill:rgb(38,35,35);fill-rule:nonzero;"/>
            </g>
            <g transform="matrix(1,0,0,1,3612.322,170.7065)">
                <path d="M0,2876.025L0.005,370.98C-0.865,368.627 -1.305,367.242 -2.135,367.29L0.042,360.788L-0.27,55.51L0.002,45.349L-0.037,1.18L-211.758,1.286L-207.749,-0.834L2.006,-0.712L1.998,2871.28C1.998,2872.303 0.517,2876.859 0,2876.025" style="fill:rgb(126,124,96);fill-rule:nonzero;"/>
            </g>
            <g transform="matrix(-0.001957,-0.999998,-0.999998,0.001957,2298.367254,1943.452065)">
                <path d="M-155.659,826.888L156.052,826.888L825.271,154.997L513.155,155.356L-155.659,826.888Z" style="fill:rgb(249,237,86);fill-rule:nonzero;"/>
            </g>
            <g transform="matrix(-0.001957,-0.999998,-0.999998,0.001957,2298.367254,2519.184865)">
                <path d="M-155.659,826.888L156.052,826.888L825.271,154.997L513.155,155.356L-155.659,826.888Z" style="fill:rgb(249,237,86);fill-rule:nonzero;"/>
            </g>
            <g transform="matrix(1,0,0,1,3610.1875,529.8228)">
                <path d="M0,8.174L-303.45,311.78L-615.406,311.39L1.865,-303.606L2.176,1.672L0,8.174Z" style="fill:rgb(249,237,86);fill-rule:nonzero;"/>
            </g>
        </g>
    </g>
</svg>
