<?xml version="1.0" encoding="UTF-8" standalone="no"?><!DOCTYPE svg PUBLIC "-//W3C//DTD SVG 1.1//EN" "http://www.w3.org/Graphics/SVG/1.1/DTD/svg11.dtd"><svg width="100%" height="100%" viewBox="0 0 3771 3771" version="1.1" xmlns="http://www.w3.org/2000/svg" xmlns:xlink="http://www.w3.org/1999/xlink" xml:space="preserve" xmlns:serif="http://www.serif.com/" style="fill-rule:evenodd;clip-rule:evenodd;stroke-linejoin:round;stroke-miterlimit:2;"><g id="Layer_7_copy_10"><path d="M1018.558,2422.575l7.073,-4.48c1.894,0.161 5.92,0.508 11.426,1.015c-4.471,6.77 -8.583,13.591 -12.251,20.465c-2.163,-5.671 -4.211,-11.374 -6.249,-17Z" style="fill:#fff;"/><path d="M3107.621,1804.746c-3.491,-2.265 -7.004,-4.428 -10.502,-6.479c2.851,-2.663 5.906,-4.973 9.161,-6.891c0.631,3.257 1.193,6.767 1.262,9.208c0.038,1.394 0.064,2.781 0.079,4.162Z" style="fill:#fff;"/><path d="M3225.587,1428.466c-1.26,-22.32 -10.588,-44.033 -30.316,-61.639c-1.36,-1.215 -2.765,-2.396 -4.212,-3.545c4.588,-14.637 12.727,-36.641 17.563,-58.434l103.262,65.096c-1.881,0.538 -3.749,1.11 -5.6,1.725l-0.005,0.002c-8.06,2.684 -26.001,13.971 -47,30.064c-10.487,8.037 -22.076,17.29 -33.692,26.731Z" style="fill:#fff;"/><path d="M503.139,893.174c-13.685,22.479 -29.326,35.072 -46.215,44.771c2.157,-10.976 5.931,-21.961 11.09,-32.803c7.418,-15.587 17.589,-30.845 30.084,-45.474c1.451,11.193 3.132,22.365 5.041,33.507Z" style="fill:#fff;"/><path d="M812.89,536.654c-18.201,7.096 -37.332,11.807 -56.755,13.886c2.231,-7.395 3.886,-14.855 5.098,-22.318c14.93,0.502 28.242,1.851 39.284,4.286c4.164,0.918 9.003,2.75 12.373,4.146Z" style="fill:#fff;"/><path d="M490.312,569.81c3.077,5.894 5.511,12.139 7.201,18.776c6.278,24.658 1.333,50.24 -1.412,75.369c-2.24,20.467 -3.706,40.997 -4.401,61.545c-3.346,-4.102 -6.704,-8.201 -10.055,-12.29c-22.85,-27.889 -45.28,-55.258 -58.535,-79.448c-4.064,-7.416 -7.218,-14.347 -8.663,-20.809c-0.624,-2.789 -1.736,-5.373 0.002,-7.313c9.484,-10.579 30.576,-19.873 57.192,-29.485c5.974,-2.157 12.21,-4.275 18.671,-6.345Z" style="fill:#fff;"/><path d="M2691.24,510.303c43.289,29.458 96.837,51.862 155.697,54.398l0.006,0c8.631,0.369 16.484,0.192 23.707,-0.391c38.105,-3.043 75.384,11.882 87.987,40.435c1.36,3.083 2.882,6.22 4.565,9.415c-13.42,20.694 -26.002,41.185 -37.167,60.479c-0.209,-0.01 -0.418,-0.024 -0.629,-0.042l-0.004,-0c-6.274,-0.553 -12.094,-3.384 -18.104,-5.352c-8.021,-2.626 -16.152,-4.637 -24.539,-5.1l-0.005,-0c-21.051,-1.154 -39.516,6.543 -54.842,20.129c-17.754,15.738 -31.026,40.323 -38.356,63.62c-4.383,13.925 -8.308,29.053 -14.494,42.374c-3.886,8.369 -8.422,16.201 -16.51,20.528l-0.002,0.001c-9.973,5.337 -20.895,2.867 -31.568,-1.193c-9.879,-3.757 -19.558,-9.267 -28.688,-15.321c15.886,-17.141 28.931,-36.927 33.031,-59.673c5.57,-30.889 -5.298,-59.508 -22.084,-87.174c-9.292,-15.315 -20.359,-30.396 -28.714,-46.012c-5.792,-10.826 -10.509,-21.791 -9.579,-33.799l0.001,-0.008c0.711,-9.245 4.846,-18.882 8.799,-28.371c4.154,-9.971 8.385,-19.779 11.492,-28.944Z" style="fill:#fff;"/><path d="M3343.948,1831.05c-4.615,0.526 -9.203,1.273 -13.743,2.246c-5.509,-12.503 -11.453,-25.227 -17.833,-38.151c-4.477,-9.073 -16.968,-21.07 -37.524,-31.052c-29.356,-14.255 -79.378,-29.858 -121.821,-45.127c-20.385,-7.334 -44.35,-19.06 -53.987,-23.905c1.369,-5.185 5.096,-9.747 9.333,-14.342c7.268,-7.883 16.704,-15.198 26.943,-22.491c32.241,-22.965 71.105,-45.447 94.219,-72.768c14.409,-17.029 14.506,-41.993 3.434,-68.865c-1.523,-3.696 -3.216,-7.457 -4.949,-11.231c21.447,-17.773 47.143,-38.948 68.366,-55.213c12.43,-9.527 28.393,-19.874 29.9,-20.848c13.493,-4.393 27.939,-6.437 41.519,-10.761c4.608,-1.467 9.062,-3.111 13.364,-4.923l31.996,20.17c13.482,8.501 27.598,17.601 38.57,28.039c6.657,6.333 12.646,12.674 13.447,20.733c0.948,9.559 -5.095,17.747 -10.784,26.415c-10.551,16.076 -23.225,32.072 -30.939,48.857c-15.573,33.884 -57.182,118.649 -69.118,167.869c-6.225,25.669 -7.022,51.958 -8.368,78.133c-0.468,9.102 -0.986,18.193 -2.024,27.215Z" style="fill:#fff;"/><path d="M3261.755,873.885c4.167,-9.612 8.279,-19.242 12.337,-28.889c43.436,-7.693 88.074,-19.117 129.952,-7.632c16.386,4.494 30.593,16.201 37.628,29.605c3.956,7.537 5.904,16.105 -0.766,22.136c-12.034,10.877 -31.047,14.889 -46.421,22.115c-18.672,8.776 -33.776,20.531 -42.112,37.313l-0.002,0.003c-6.451,12.996 -7.727,27.454 -7.002,41.582c2.038,39.993 14.734,78.356 29.762,116.402c13.308,33.692 28.481,67.14 37.188,101.785c11.501,45.763 5.202,102.405 -30.282,133.755c-49.515,-31.214 -99.032,-62.427 -148.543,-93.64c-1.578,-0.994 -1.323,-3.148 -1.794,-5.084c-0.714,-2.938 -1.136,-6.095 -1.436,-9.378c-0.908,-9.963 -0.669,-20.819 -0.771,-31.36c-0.257,-26.53 -4.286,-51.158 -16.507,-66.637l-0.001,-0.002c-20.629,-26.122 -7.895,-47.35 6.679,-69.904c24.837,-38.437 56.435,-79.646 56.674,-131.574c0.108,-23.498 -5.092,-43.679 -14.585,-60.595Z" style="fill:#fff;"/><path d="M3067.084,474.472c-4.846,-2.865 -9.809,-5.548 -14.77,-8.135l-0.004,-0.002c-41.122,-21.431 -82.24,-42.87 -123.359,-64.309c-17.999,-9.385 -37.302,-18.448 -49.196,-34.897l-0.008,-0.011c-1.743,-2.405 -3.155,-5.087 -4.24,-7.901c-14.487,-37.642 -56.304,-56.96 -94,-42.517c-31.672,12.136 -64.499,19.436 -94.92,6.525c-18.689,-7.934 -34.627,-21.238 -52.963,-29.946l-0.006,-0.003c-10.218,-4.847 -19.068,-4.848 -26.635,-2.931c-11.71,2.966 -23.595,13.129 -30.139,31.302l-0.001,0.003c-5.064,14.073 -7.329,28.74 -6.949,43.264c-91.609,-23.203 -222.899,-33.96 -274.135,-35.076c-23.584,-0.518 -47.797,2.761 -70.399,-3.063c-5.802,-1.495 -11.465,-4.188 -15.988,-7.775c-1.547,-1.227 -2.955,-2.552 -4.095,-4.007c-0.459,-0.586 -1.051,-1.667 -1.296,-2.127c1.615,-6.908 9.961,-14.454 18.801,-22.629c17.021,-15.739 39.375,-31.343 54.848,-32.513c112.029,-8.455 291.278,-32.584 376.081,-23.468c208.231,22.379 454.142,123.778 935.478,28.393l0.003,-0.001c9.525,-1.89 20.642,0.721 27.419,6.78l0.004,0.004c4.439,3.965 8.356,10.856 10.991,17.83c1.401,3.709 2.308,10.274 2.474,11.532c-7.657,18.045 -22.22,31.281 -39.759,42.682c-21.786,14.162 -48.077,25.243 -75.029,36.168c-63.016,25.544 -128.432,51.388 -163.785,98.487c-21.01,27.991 -31.394,60.686 -41.426,92.874c-23.122,74.185 -49.447,147.626 -78.899,220.126c-5.096,0.022 -10.097,-0.563 -14.849,-2.223c-11.795,-4.126 -15.146,-14.377 -16.33,-25.425c-2.155,-20.114 2.436,-43.236 6.149,-62.946c1.312,-6.964 8.524,-17.502 16.576,-30.295c16.545,-26.288 38.532,-58.03 51.624,-84.329c7.176,-14.415 11.826,-27.71 13.312,-38.511c1.786,-12.979 -0.424,-23.917 -5.15,-32.554l-0.001,-0.002c-10.779,-19.69 -27.753,-52.751 -48.449,-75.778c-19.534,-21.735 -42.891,-34.582 -66.715,-33.464c-11.262,0.529 -25.226,5.24 -40.413,15.339c-15.832,10.528 -34.422,27.569 -54.052,49.079c-1.922,2.106 -3.857,4.257 -5.802,6.45Z" style="fill:#fff;"/><path d="M2637.273,388.616c-4.251,-8.401 -6.46,-17.666 -6.428,-26.996c10.368,6.431 20.68,12.989 31.907,17.755l0.001,0.001c44.987,19.093 93.745,12.232 140.58,-5.715c6.206,-2.378 12.865,1.283 15.252,7.484l0.004,0.01c2.997,7.772 6.963,15.127 11.745,21.731c17.409,24.068 44.074,39.495 70.414,53.229c41.122,21.441 82.244,42.882 123.366,64.313c1.224,0.639 2.462,1.27 3.704,1.902c-8.855,11.525 -17.723,23.525 -26.477,35.78c-28.053,-36.634 -80.119,-59.03 -135.569,-54.602l-0.011,0.001c-4.946,0.399 -10.312,0.502 -16.205,0.25c-75.637,-3.263 -139.924,-48.129 -177.693,-90.945c-7.438,-8.433 -19.308,-16.629 -34.59,-24.198Z" style="fill:#fff;"/><path d="M3043.098,623.233c3.381,-3.894 7.227,-7.265 11.919,-9.663c7.709,-3.939 16.566,-6.285 24.317,-10.023c9.578,-4.619 17.994,-10.697 24.565,-19.132l0.002,-0.003c14.377,-18.462 15.265,-44.618 6,-66.275c2.703,-3.084 5.385,-6.085 8.041,-8.996c13.272,-14.544 25.801,-26.739 37.065,-35.319c6.209,-4.729 10.827,-9.08 15.202,-9.285c7.27,-0.341 12.525,6.674 18.486,13.307c16.086,17.899 29.027,43.286 38.076,60.161c-1.932,5.106 -8.963,23.167 -16.395,35.851c-16.119,27.513 -37.613,57.778 -50.354,80.283c-7.527,13.296 -12.265,24.872 -13.816,33.105c-4.757,25.251 -9.617,54.967 -6.856,80.736c1.648,15.38 5.666,29.552 12.839,41.705c-9.762,-1.355 -19.9,-2.152 -30.34,-2.394c0.522,-21.549 -4.452,-43.114 -15.317,-63.261c-0.181,-2.635 -1.026,-14.656 -1.903,-22.649c-2.11,-19.231 -7.993,-40.586 -26.921,-60.149c-13.213,-13.659 -24.837,-26.251 -34.612,-37.999Z" style="fill:#fff;"/><path d="M2968.964,722.277c16.627,-10.587 30.896,-26.421 41.629,-43.623c7.161,8.036 14.926,16.361 23.276,24.992c12.178,12.587 10.422,27.53 11.131,38.256c0.814,12.32 3.107,22.586 7.333,30.151c7.022,12.58 9.478,26.227 7.988,39.718l-0.711,0.116c-42.019,6.874 -85.694,20.993 -125.521,40.851c-3.173,-25.84 -2.024,-51.119 9.16,-78.321c5.943,-14.457 14.798,-32.318 25.715,-52.141Z" style="fill:#fff;"/><path d="M3190.19,884.947c-2.507,5.575 -5.032,11.144 -7.577,16.706c-8.145,17.808 -20.164,37.504 -35.752,51.3c-11.241,9.949 -24.487,17 -39.933,13.325c-12.079,-2.873 -18.495,-12.049 -21.237,-22.582c-3.855,-14.805 -1.629,-32.117 4.658,-46.289l0.001,-0.003c4.025,-9.079 8.894,-18.029 13.845,-26.976c0.408,-0.736 0.808,-1.474 1.202,-2.214c27.742,-1.302 53.253,1.799 73.591,10.679c4.003,1.748 7.75,3.763 11.201,6.054Z" style="fill:#fff;"/><path d="M3031.458,880.415c-20.569,56.049 -3.616,129.752 61.353,145.207c29.439,7.004 56.216,0.038 79.421,-15.367c8.98,-5.962 17.391,-13.31 25.138,-21.522c-0.587,0.993 -1.18,1.982 -1.777,2.967c-13.682,22.57 -29.897,43.321 -40.564,64.042c-19.166,37.233 -24.282,74.505 10.084,118.021c3.179,4.027 2.651,10.325 3.029,16.924c0.329,5.75 0.399,11.746 0.431,17.796c-7.423,-2.188 -15.823,-3.396 -25.025,-3.516c-17.414,-0.226 -38.728,3.339 -59.626,7.124c-17.457,3.162 -43.414,5.093 -49.544,5.521c-7.612,-8.845 -8.482,-18.651 -8.098,-28.474c0.481,-12.296 2.726,-24.804 3.697,-37.161c2.356,-29.959 -1.528,-58.869 -28.886,-85.088c-19.692,-18.87 -40.393,-37.808 -51.079,-61.448c-5.01,-11.095 -7.585,-22.882 -10.188,-34.577c0.541,-2.298 3.11,-13.162 4.706,-19.207c3.442,-13.037 4.599,-25.517 2.52,-34.674l-0.475,-2.085c26.474,-14.783 55.617,-26.466 84.881,-34.484Z" style="fill:#fff;"/><path d="M3135.335,1338.811c-3.215,-0.651 -6.477,-1.213 -9.778,-1.685c-37.683,-5.387 -80.309,0.925 -111.987,16.749c-54.426,27.188 -81.029,74.499 -88.544,120.698c-0.888,5.456 -1.521,10.918 -1.95,16.387c-29.639,-58.983 -78.885,-112.182 -143.895,-151.344c-4.927,-2.97 -10.059,-5.924 -14.797,-9.136c-2.83,-1.918 -5.804,-3.548 -7.606,-5.926c1.184,-1.772 4.05,-5.9 6.497,-8.168c6.946,-6.439 16.08,-11.915 25.246,-16.022c19.257,-8.628 40.783,-16.323 58.389,-26.526c15.805,-9.16 28.8,-20.376 37.316,-34.196c13.27,-21.532 13.993,-43.914 7.13,-66.665c-6.972,-23.108 -23.638,-46.88 -35.406,-69.314l-0.001,-0.002c-27.289,-52 -11.72,-99.309 23.143,-137.15c-0.449,5.891 -0.215,11.333 0.831,15.988c3.633,16.252 7.517,32.593 14.502,48.057l0.002,0.003c13.778,30.484 39.073,56.042 64.462,80.373c9.918,9.506 11.014,20.292 10.591,31.1c-0.481,12.296 -2.726,24.804 -3.697,37.161c-2.356,29.958 1.527,58.866 28.882,85.084c6.55,6.28 15.304,10.949 26.331,13.234c13.829,2.866 33.405,1.485 54.73,-2.036c17.6,-2.906 36.77,-7.046 53.808,-8.798c5.441,-0.559 10.606,-0.871 15.31,-0.654c1.802,0.083 4.431,0.543 5.877,0.818c0.139,0.444 0.288,0.962 0.361,1.341c0.356,1.864 0.468,3.858 0.464,5.938c-0.013,6.96 -1.355,14.561 -3.151,22.198c-3.541,15.061 -8.807,30.177 -13.059,42.494Z" style="fill:#fff;"/><path d="M2947.862,1684.99c25.312,-21.756 40.957,-49.211 39.736,-92.943c-1.006,-35.926 -8.174,-71.965 -2.364,-107.68c4.724,-29.042 21.382,-58.831 55.596,-75.922c21.506,-10.744 50.51,-14.591 76.094,-10.933c1.276,0.182 2.545,0.382 3.804,0.6c-4.472,23.508 -8.542,49.677 -9.862,71.775c-1.123,18.796 -0.063,35.153 3.102,46.362c5.228,18.513 16.459,28.574 28.742,32.528c8.818,2.839 20.719,3.401 34.887,-4.003c0.802,2.09 1.474,3.861 1.955,5.134c-25.568,27.565 -69.169,48.694 -98.556,73.072c-30.754,25.513 -47.998,54.751 -42.517,88.717c1.346,8.345 5.781,17.796 15.424,26.505c2.924,2.64 6.634,5.38 11.027,8.172c-9.979,7.86 -19.036,17.678 -26.862,29.16c-10.678,-0.439 -18.562,2.452 -22.879,5.168c-11.131,7.003 -25.72,4.95 -38.582,0.086c-13.64,-5.158 -26.345,-13.92 -30.974,-25.025c-5.331,-12.789 -4.899,-26.112 -3.238,-39.517c1.288,-10.39 3.387,-20.837 5.468,-31.258Z" style="fill:#fff;"/><path d="M2880.406,1727.547c-0.447,17.531 1.893,34.826 8.921,51.688c10.235,24.554 35.544,47.208 65.703,58.613c17.998,6.806 37.346,9.528 55.653,7.3c-1.463,8.217 -2.476,16.736 -3,25.518l-0,0.003c-0.065,1.092 -1.568,1.259 -2.537,1.985c-3.047,2.284 -6.895,3.963 -11.128,5.202c-13.362,3.912 -30.274,3.195 -45.137,-4.259c-27.454,-13.767 -56.577,-34.617 -83.809,-45.174c-20.233,-7.844 -39.811,-10.563 -58.039,-6.386c-0.801,-7.372 -1.004,-14.484 -0.417,-21.139c0.699,-7.917 2.224,-15.104 6.537,-20.288c20.331,-24.435 44.344,-39.995 67.251,-53.061Z" style="fill:#fff;"/><path d="M3274.892,1858.931c-21.468,15.838 -39.176,36.393 -55.006,59.291c-15.194,-7.268 -25.988,-19.182 -35.822,-31.766c-7.024,-8.988 -13.55,-18.412 -20.172,-27.607c3.317,-18.975 5.211,-38.752 4.627,-59.96l-0,-0.01c-0.094,-3.323 -0.344,-6.746 -0.753,-10.207c20.808,7.144 41.525,14.242 59.118,21.141c12.975,5.088 28.394,13.419 32.408,15.625c5.555,11.356 10.757,22.525 15.6,33.491Z" style="fill:#fff;"/><path d="M3187.924,1970.415l-1.347,2.397c-18.619,33.186 -36.248,67.511 -61.445,93.118c-2.054,-25.317 -0.299,-50.793 4.185,-72.293l0,-0.002c4.221,-20.252 9.804,-39.647 15.433,-58.967c0.295,0.34 0.59,0.678 0.887,1.016c12.022,13.672 25.65,25.751 42.286,34.731Z" style="fill:#fff;"/><path d="M3155.459,2120.882c35.329,-30.988 59.948,-74.787 84.317,-118.222c3.121,-5.563 6.229,-11.125 9.367,-16.638c22.494,0.09 44.406,-5.585 64.225,-15.143c6.919,30.521 9.621,58.165 7.839,82.336c-1.783,24.189 -8.082,44.332 -20.572,58.942c-11.779,13.778 -29.007,21.951 -51.217,24.898c-21.246,2.821 -54.065,-3.057 -93.959,-16.173Z" style="fill:#fff;"/><path d="M3058.001,2170.997c9.454,-3.65 18.977,-7.13 28.401,-10.807l1.063,0.44c3.571,7.583 7.57,14.792 12.018,21.524l0.001,0.002c1.744,2.639 2.031,7.605 2.077,9.39c-5.751,3.029 -12.341,4.226 -19.413,4.558c-7.527,-9.14 -15.6,-17.578 -24.147,-25.106Z" style="fill:#fff;"/><path d="M3066.299,2084.218c-64.899,-31.733 -136.67,-77.346 -204.595,-136.763c-13.051,-11.42 -28.196,-37.282 -39.409,-66.487c9.788,-2.049 20.36,3.639 31.687,9.178c22.322,10.916 45.459,26.897 67.557,37.978c35.732,17.918 77.398,15.762 105.562,2.179c25.084,-12.097 40.097,-32.842 41.476,-56.009l0,-0.005c0.43,-7.216 1.255,-14.227 2.465,-20.94c10.036,6.178 19.992,13.547 27.876,21.634c-8.642,35.943 -21.665,69.501 -29.315,106.2c-6.375,30.566 -7.88,67.225 -3.304,103.035Z" style="fill:#fff;"/><path d="M3044.836,2487.787c2.272,0.84 4.555,1.635 6.846,2.386c34.83,11.413 71.58,13.515 108.107,14.226c-38.59,27.968 -83.281,54.859 -115.829,85.999c-27.437,26.25 -46.681,55.666 -51.939,89.498c-2.455,15.801 3.59,34.475 12.077,54.043c2.853,6.579 5.888,13.398 7.585,20.443c1.293,5.371 1.782,11.021 -1.856,16.61l-0.001,0.002c-5.553,8.535 -9.742,13.976 -15.143,15.826c-4.067,1.393 -8.219,0.261 -12.777,-0.725c-6.383,-1.38 -13.118,-3.425 -20.397,-5.441c-38.352,-10.622 -88.515,-21.68 -166.348,25.656c-65.741,39.982 -126.908,52.508 -169.99,42.913c-20.824,-4.638 -36.83,-14.333 -42.661,-30.324c-5.188,-14.229 -2.122,-31.766 7.991,-51.9c5.059,-10.072 11.814,-20.547 20.359,-31.381c28.468,5.126 56.529,12.787 85.277,16.816l0.002,0c93,13.02 193.346,-10.297 262.04,-65.85c62.075,-50.2 95.33,-126.234 86.658,-198.798Z" style="fill:#fff;"/><path d="M3240.123,2439.639c-1.631,-2.222 -3.459,-4.411 -5.491,-6.563c-10.904,-11.542 -26.809,-18.919 -44.576,-24.045c-8.741,-2.522 -17.966,-4.588 -26.47,-7.394c-4.561,-1.505 -8.989,-2.893 -12.151,-5.767c-2.585,-2.354 -2.482,-5.706 -2.749,-8.831c-0.528,-6.173 -0.204,-12.522 -0.177,-18.599c0.144,-31.991 -11.001,-76.373 -31.415,-117.607c6.34,-2.079 12.338,-4.767 17.921,-8.17l0.002,-0.001c17.947,-10.944 28.255,-32.919 27.504,-56.064c39.586,10.683 72.435,13.912 94.922,10.927c39.217,-5.204 68.757,-21.4 89.557,-45.729c20.089,-23.498 32.173,-55.191 35.041,-94.096c2.637,-35.763 -2.719,-78.412 -16.105,-126.255c10.306,-11.455 18.634,-23.978 24.379,-36.812c24.701,7.809 45.72,26.107 52.456,52.594c11.867,46.672 -15.985,93.226 -39.996,134.26c-28.001,47.861 -56.011,95.721 -84.011,143.581c-27.734,47.393 -54.512,100.772 -46.823,156.016l0,0.002c1.222,8.773 3.372,17.995 4.726,27.04c0.805,5.376 2.984,10.738 0.024,14.962l-0.005,0.007c-1.712,2.447 -4.655,3.516 -7.166,4.965l-0.004,0.002c-9.581,5.531 -19.485,9.184 -29.392,11.576Z" style="fill:#fff;"/><path d="M3109.982,2440.621c-13.317,-1.621 -26.472,-4.209 -39.305,-8.415c-23.462,-7.688 -46.3,-21.982 -59.937,-43.273c-2.16,-4.337 -4.45,-8.775 -6.87,-13.272c-9.267,-22.856 -9.769,-48.575 -15.366,-72.767c-2.293,-9.907 -5.679,-19.695 -8.296,-29.553c0.315,-0.631 0.634,-1.253 0.958,-1.867c3.865,-7.343 7.14,-13.948 13.594,-15.34c16.922,-3.648 36.311,-1.721 55.354,-0.314c23.507,37.154 37.534,81.833 37.397,112.342c-0.117,25.542 1.251,52.827 22.472,72.459Z" style="fill:#fff;"/><path d="M2935.756,2183.97c-11.408,16.692 -18.903,35.762 -20.179,56.639l-0,0.002c-0.53,8.691 0.161,17.281 1.534,25.811c-0.764,2.089 -1.511,4.216 -2.242,6.379c-20.53,-12.445 -43.389,-20.032 -68.31,-20.28c-21.503,-0.214 -44.918,4.95 -69.976,18.078c3.723,-8.925 7.957,-17.917 12.763,-26.622c11.001,-19.927 24.884,-38.585 43.492,-49.575c29.645,-17.502 64.72,-18.058 102.917,-10.432Z" style="fill:#fff;"/><path d="M3011.086,2124.439c-2.711,1.179 -5.403,2.403 -8.069,3.682c-4.338,2.081 -8.642,4.35 -12.879,6.8c-70.727,-20.705 -135.925,-23.977 -188.314,6.955l-0.002,0.001c-27.666,16.34 -49.522,42.994 -65.877,72.618c-20.582,37.281 -32.49,78.96 -38.636,105c-58.533,26.043 -128.309,30.09 -193.701,29.458c-17,-0.164 -33.741,-0.684 -49.996,-1.324c2.021,-10.106 1.756,-21.339 -1.409,-33.165l-0.001,-0.005c-0.399,-1.488 -0.284,-3.869 -0.196,-5.012c24.677,-16.902 41.905,-58.431 31.532,-103.32c-2.45,-10.61 -7.509,-21.247 -8.002,-31.507c4.355,-0.092 12.172,-0.136 16.672,0.566c125.257,19.545 238.881,-58.873 286.116,-203.112c2.76,-8.424 5.361,-17.217 8.028,-25.989c11.717,20.811 24.271,37.732 35.183,47.279l0.001,0.001c62.526,54.694 128.16,98.358 189.548,131.074Z" style="fill:#fff;"/><path d="M2735.295,2452.458c3.954,-11.416 6.805,-22.893 8.969,-34.301c3.818,-20.129 5.188,-39.945 7.616,-58.338c9.941,-5.79 19.526,-12.209 28.692,-19.318c24.172,-18.748 45.713,-27.178 65.38,-26.982c20.331,0.202 37.784,9.478 52.912,22.651c-7.287,36.688 -13.386,76.148 -22.525,108.886c-5.718,20.483 -11.665,38.175 -22.145,47.925c-5.018,4.669 -12.002,3.17 -19.586,1.664c-16.067,-3.192 -33.956,-11.319 -52.306,-20.03c-15.669,-7.438 -31.577,-15.353 -47.007,-22.155Z" style="fill:#fff;"/><path d="M2948.507,2401.374c2.777,6.448 6.018,12.605 9.664,18.463c11.842,24.438 18.705,44.732 20.586,50.411l0.001,0.003c19.719,59.5 -6.568,126.553 -58.936,168.903c-56.346,45.567 -138.939,63.55 -215.22,52.87c-14.272,-2 -28.39,-4.815 -42.471,-7.779c1.654,-1.38 3.334,-2.763 5.041,-4.151l0.002,-0.002c9.983,-8.119 29.105,-24.185 37.406,-40.639c6.669,-13.219 8.104,-26.96 3.592,-40.069c-3.392,-9.859 -9.884,-18.623 -18.468,-26.361c-6.218,-5.605 -14.129,-10.461 -19.811,-16.424c-1.081,-1.135 0.321,-2.408 0.871,-3.831c0.757,-1.961 1.749,-3.944 2.895,-5.964c5.391,-9.508 13.708,-19.305 22.831,-29.215l0.003,-0.003c3.451,-3.749 6.667,-7.535 9.665,-11.355c24.787,10.437 51.244,24.898 76.019,35.204c45.292,18.84 86.553,21.345 113.571,-3.795c17.02,-15.835 30.061,-42.916 39.347,-76.183c5.159,-18.48 9.395,-39.051 13.413,-60.082Z" style="fill:#fff;"/><path d="M2687.292,2387.876c-0.149,1.135 -0.302,2.271 -0.458,3.41c-1.952,14.166 -4.605,28.78 -9.887,43.213c-10.557,-1.213 -20.495,-0.921 -29.585,1.061c-70.6,15.395 -141.525,48.381 -172.095,133.982c-4.214,11.8 -7.57,24.877 -11.867,36.668c-2.32,6.367 -4.204,12.572 -8.497,16.17c-1.888,1.58 -4.137,0.021 -6.538,-0.854c-3.775,-1.376 -7.61,-3.473 -11.514,-5.989c-17.502,-11.278 -35.254,-30.155 -50.466,-48.454c-26.437,-31.807 -56.264,-70.374 -59.943,-113.902l-0,-0.002c-1.708,-20.181 3.57,-37.23 13.076,-47.851c5.231,-0.139 10.71,-0.179 16.409,-0.163c41.458,0.113 92.961,4.261 147.092,4.785c61.5,0.595 125.984,-3.819 184.275,-22.074Z" style="fill:#fff;"/><path d="M2423.204,2752.938c-29.443,-9.948 -59.038,-19.807 -88.904,-27.863c-5.981,-67.663 -48.169,-131.288 -128.087,-147.832c-1.125,-0.233 -2.265,-0.47 -3.405,-0.696c-27.824,-5.553 -55.949,-9.124 -84.183,-11.909c18.218,-21.998 31.31,-51.581 44.798,-89.693c1.193,-3.373 4.416,-6.038 7.964,-9.017c6.723,-5.645 15.31,-10.807 24.756,-15.692c22.045,-11.399 48.383,-20.965 71.088,-28.715c-2.05,11.387 -2.681,23.69 -1.572,36.798c4.722,55.856 39.891,106.94 73.816,147.756c23.646,28.443 53.038,56.851 79.744,69.325c27.566,12.876 53.511,11.621 74.857,-6.261l0.002,-0.001c9.808,-8.218 17.488,-19.851 23.337,-33.636c5.939,-13.997 10.021,-30.666 15.299,-45.446c17.836,-49.945 55.88,-73.529 96.746,-86.712c-9.249,13.087 -15.999,25.934 -18.852,37.793c-5.043,20.961 -1.204,40.409 15.121,57.542c5.107,5.36 11.388,10.247 17.556,15.073c0.816,0.639 1.797,1.467 2.786,2.327c-5.121,5.159 -13.714,13.703 -17.385,16.688c-15.837,12.876 -29.709,25.581 -41.764,38.016c-4.372,-0.428 -8.761,-0.76 -13.169,-0.976c-54.751,-2.704 -114.86,17.073 -140.059,59.029c-4.592,7.645 -7.93,15.741 -10.489,24.102Z" style="fill:#fff;"/><path d="M2270.204,2711.257c-10.001,-1.526 -20.04,-2.723 -30.122,-3.529c-51.535,-4.121 -103.92,3.378 -154.599,-8.325c-40.951,-9.454 -69.365,-43.523 -93.1,-85.196l0.048,-0.001c66.185,6.681 133.121,9.125 198.45,22.165l0.021,0.004c0.991,0.196 1.961,0.398 2.931,0.599l0.008,0.002c42.543,8.807 67.401,39.236 76.364,74.281Z" style="fill:#fff;"/><path d="M2329.692,2786.983c25.573,7.325 50.941,15.954 76.219,24.5c1.474,0.498 2.966,0.989 4.468,1.482c-1.582,3.543 -3.67,6.887 -6.503,9.945c-7.702,8.312 -19.107,11.738 -31.248,13.912c-16.994,3.043 -35.618,2.892 -52.891,2.4l-0.003,-0c-3.88,-0.11 -7.765,-0.186 -11.656,-0.236c9.916,-15.906 17.149,-33.553 21.613,-52.003Z" style="fill:#fff;"/><path d="M1747.676,2959.022c60.24,-11.649 120.46,-31.287 178.22,-56.936c21.562,-9.573 43.202,-20.946 66.527,-21.901c28.325,-1.152 55.109,12.282 82.559,19.841l0.002,0.001c36.211,9.965 72.777,13.031 109.392,10.965c18.271,-1.031 34.962,-4.687 50.027,-10.486c28.29,-0.362 56.06,-1.086 83.604,-0.307c26.075,0.743 54.563,0.211 79.063,-6.367c20.283,-5.446 38.075,-14.917 51.551,-29.461l0.001,-0.001c2.428,-2.62 4.639,-5.324 6.658,-8.104c0.418,9.128 -1.751,18.701 -5.191,27.856c-7.446,19.816 -21.566,38.201 -37.458,49.237l-0.002,0.001c-60.607,42.103 -136.727,36.221 -205.842,20.417c-79.701,-18.222 -158.551,-48.12 -239.736,-46.904c-22.875,0.345 -46.583,4.682 -65.049,20.534c-18.851,16.181 -18.581,25.499 -35.449,44.446c-12.18,13.665 -29.266,15.03 -46.744,12.604c-24.598,-3.414 -50.253,-14.639 -72.134,-25.435Z" style="fill:#fff;"/><path d="M1929.315,2627.323c1.4,1.882 2.867,4.033 3.991,6.117l0.001,0.002c33.914,62.85 78.235,111.494 138.451,125.396c53.601,12.377 108.955,5.336 163.46,9.695c11.741,0.939 23.414,2.477 35.027,4.489c-7.056,28.127 -23.946,53.425 -50.505,66.934c-36.41,0.251 -73.816,-0.864 -112.869,-7.691c-72.026,-12.584 -140.176,-41.317 -195.773,-82.726l-0.002,-0.001c-15.959,-11.884 -31.407,-27.369 -39.889,-44.063c-5.206,-10.246 -8.081,-21.035 -1.502,-30.643c14.293,-20.874 35.178,-37.112 59.61,-47.509Z" style="fill:#fff;"/><path d="M1863.481,2591.306c-1.159,0.874 -2.317,1.744 -3.473,2.607c-3.753,2.8 -7.485,5.485 -11.237,7.672c-1.739,1.014 -4.682,2.211 -5.933,2.704c-48.272,-21.909 -91.158,-28.216 -132.764,-32.071c-36.782,-3.408 -72.415,-4.549 -110.402,-16.255c-36.253,-11.172 -67.073,-37.029 -98.503,-61.576c1.702,-8.157 3.531,-15.835 5.984,-22.417c0.859,-2.305 2.601,-5.487 3.445,-6.978c12.52,-3.225 22.065,-3.741 29.73,-1.569c11.713,3.319 17.923,12.54 24.387,20.383c4.864,5.903 9.588,11.668 14.61,16.698c15.977,16.002 34.534,26.06 62.954,21.668l0.002,-0c59.639,-9.225 79.401,2.758 110.209,20.738c25.23,14.725 56.361,32.593 110.992,48.396Z" style="fill:#fff;"/><path d="M900.16,2799.174c7.642,-4.784 15.376,-10.229 23.192,-14.986c4.041,-2.459 8.068,-4.737 12.187,-6.201c2.054,-0.73 4.091,-1.586 6.207,-0.77l0.002,0.001c4.842,1.866 7.266,6.697 10.566,10.267c24.916,26.95 56.953,48.491 92.852,63.542c58.077,24.352 118.536,8.638 156.492,-25.577c2.211,2.266 4.461,4.478 6.739,6.635c26.294,24.903 55.594,44.695 86.847,60.775c-28.124,1.68 -56.184,4.192 -84.131,7.605c-48.542,5.931 -98.368,15.539 -145.946,5.333c-54.954,-11.785 -97.385,-48.526 -137.579,-82.883l-0.004,-0.004c-9.362,-7.997 -18.728,-15.989 -27.423,-23.738Z" style="fill:#fff;"/><path d="M1259.244,2703.689c4.951,37.28 13.327,73.924 25.069,109.031l0.002,0.005c0.403,1.206 0.795,2.416 1.175,3.629c-12.266,-8.545 -24.016,-18.016 -35.147,-28.558c-4.776,-4.523 -9.594,-9.311 -13.881,-14.488c8.19,-24.432 7.82,-51.606 -4.2,-78.874c0.807,-1.808 1.653,-3.595 2.535,-5.362c7.732,5.276 15.926,10.121 24.448,14.617Z" style="fill:#fff;"/><path d="M1355.441,2854.074c-2.518,-20.689 -6.716,-41.073 -13.274,-60.693l-0.001,-0.003c-6.722,-20.099 -12.213,-40.759 -16.46,-61.77c4.402,1.546 8.804,3.059 13.189,4.546c71.438,24.229 142.877,48.449 214.307,72.679c15.351,5.208 31.728,9.823 42.792,20.362c2.884,2.756 5.095,5.789 6.829,9.024c17.185,32.113 -18.505,63.562 -59.318,59.724c-14.527,-1.367 -29.074,-2.563 -43.635,-3.579c-49.213,-9.668 -98.638,-21.305 -144.43,-40.291Z" style="fill:#fff;"/><path d="M1486.464,2559.145c30.205,22.785 60.785,44.494 95.244,55.113c42.263,13.024 81.815,14.908 122.738,18.7c33.386,3.093 67.833,7.654 106.093,23.776c-7.78,19.247 -7.338,39.541 -0.73,59.62c10.025,30.459 36.185,60.761 64.854,82.109c17.396,12.956 35.871,24.831 55.221,35.533c-9.681,3.862 -19.25,8.126 -28.74,12.339c-81.105,36.016 -167.446,59.627 -250.99,63.324c19.996,-28.709 24.85,-65.853 6.446,-100.232l-0.003,-0.006c-4.686,-8.744 -10.691,-16.906 -18.481,-24.346l-0.01,-0.01c-17.19,-16.387 -41.458,-25.905 -65.306,-33.996c-71.431,-24.23 -142.873,-48.451 -214.313,-72.681c-13.947,-4.73 -28.269,-9.467 -42.104,-14.866c-1.099,-14.93 -1.593,-29.922 -1.479,-44.906c16.478,-5.514 33.894,-7.545 51.172,-5.274c19.964,2.627 43.269,6.415 62.466,3.026c19.888,-3.511 36.53,-13.161 47.408,-32.188l0.002,-0.003c4.195,-7.342 7.609,-15.856 10.514,-25.03Z" style="fill:#fff;"/><path d="M1433.882,2520.56c-2.588,12.379 -5.656,24.18 -10.892,33.345c-1.211,2.116 -3.607,2.188 -5.851,2.519c-3.185,0.47 -6.56,0.505 -10.011,0.373c-11.046,-0.424 -22.644,-2.559 -33.1,-3.935l-0.002,-0c-18.347,-2.411 -36.864,-1.6 -54.925,2.012c0.393,-3.138 0.813,-6.272 1.261,-9.4c0.304,-2.121 0.706,-4.201 1.201,-6.234c12.226,-14.045 24.434,-28.049 35.457,-41.259c9.181,-3.242 19.309,-3.702 29.482,-0.581c16.54,5.077 32.709,13.43 47.381,23.162Z" style="fill:#fff;"/><path d="M1318.751,2448.591c-22.724,12.888 -41.266,33.838 -51.493,60.252c-16.445,18.886 -32.532,37.618 -45.271,54.299c-16.691,21.856 -27.72,41.547 -30.974,55.198c-14.801,-24.266 -30.873,-47.947 -48.167,-70.943c-9.719,-12.922 -20.699,-25.508 -35.82,-33.72l-0.004,-0.002c-11.157,-6.055 -24.374,-8.648 -36.392,-13.338c-2.709,-1.058 -5.235,-2.292 -7.6,-3.679c4.514,-6.542 8.485,-13.487 11.839,-20.809c7.679,-16.761 18.65,-33.052 31.331,-49.001c8.703,1.213 16.991,2.509 24.191,3.858l0.002,0c39.718,7.439 80.277,-6.739 107.009,-37.041c7.171,-8.127 15.648,-16.436 25.077,-22.349c6.042,-3.789 12.382,-6.91 19.134,-6.294c19.388,1.766 50.818,20.387 61.161,48.461c-3.282,5.514 -12.512,20.635 -21.732,32.24c-0.754,0.949 -1.518,1.904 -2.291,2.866Z" style="fill:#fff;"/><path d="M1083.127,2361.076c-17.104,-2.363 -33.264,-4.062 -45.985,-4.422c-19.549,-0.554 -33.858,3.384 -40.501,7.596l-2.871,1.818c-4.32,-8.042 -8.938,-15.964 -13.838,-23.753c22.091,-17.164 46.942,-39.488 75.805,-68.348c16.704,-16.704 31.338,-31.531 44.118,-44.799c15.092,11.193 29.605,23.083 43.903,34.751c3.215,2.624 6.521,5.309 9.451,8.22c1.24,1.233 2.781,2.206 3.442,3.645c-0.329,0.864 -1.345,3.461 -2.181,4.879c-2.506,4.249 -5.8,8.251 -9.053,12.007c-19.375,22.363 -41.483,45.118 -62.289,68.404Z" style="fill:#fff;"/><path d="M894.64,2501.074l71.271,-45.149c4.475,11.939 9.234,23.947 14.916,35.277c-25.007,13.963 -56.715,18.032 -86.187,9.871Z" style="fill:#fff;"/><path d="M847.437,2756.661c-9.126,-5.389 -18.81,-10.202 -28.962,-14.383c-28.091,-11.578 -54.514,-26.166 -78.511,-43.287l-0.003,-0.002c-22.505,-16.047 -25.474,-44.795 -6.082,-63.609l0.002,-0.002c21.253,-20.627 39.543,-46.934 61.053,-67.013c11.423,-10.665 24.681,-19.657 38.217,-28.325c2.655,1.638 5.349,3.208 8.078,4.712c56.896,31.357 126.033,25.909 176.515,-5.448c8.859,7.225 18.996,13.286 30.703,17.857l0.003,0.001c9.664,3.771 20.502,5.257 29.468,10.122c7.163,3.892 11.573,10.656 16.177,16.779c27.43,36.473 51.56,74.796 72.156,114.512c-5.063,18.855 -7.325,38.893 -3.802,58.137l0,0.003c1.072,5.85 2.659,11.513 4.678,16.99c-21.049,24.714 -60.699,36.865 -98.373,21.068c-27.641,-11.589 -52.464,-27.947 -71.649,-48.698c-9.455,-10.227 -19.551,-20.43 -33.414,-25.773c-17.937,-6.916 -35.614,-5.25 -52.97,1.893c-16.048,6.604 -31.878,19.189 -47.213,27.845l-0.003,0.002c-5.064,2.86 -10.457,5.042 -16.067,6.62Z" style="fill:#fff;"/><path d="M784.591,2499.109c-11.064,7.632 -21.683,15.703 -31.285,24.667c-21.79,20.341 -40.38,46.934 -61.908,67.828c-21.275,20.642 -32.004,46.166 -32.473,71.628c-11.944,-12.137 -21.843,-25.294 -25.318,-40.857l-0,-0.002c-3.146,-14.081 0.098,-28.281 4.56,-42.554c6.042,-19.33 14.765,-38.651 21.144,-57.716c10.993,-32.854 14.948,-65.127 0.763,-96.013c40.908,17.091 80.16,32.604 109.867,59.189c5.021,4.493 9.854,9.148 14.651,13.831Z" style="fill:#fff;"/><path d="M707.882,2206.047c72.216,24.434 135.943,66.408 183.171,119.247c-23.595,9.481 -44.514,10.433 -68.806,8.123c-19.852,-1.889 -34.903,-3.374 -46.738,-5.802c-7.238,-1.485 -12.728,-2.945 -17.023,-6.223c-6.607,-5.042 -10.176,-13.321 -15.436,-25.539c-8.745,-20.316 -18.709,-48.935 -35.168,-89.806Z" style="fill:#fff;"/><path d="M942.108,2398.795l-105.129,66.597c-8.815,-8.489 -17.2,-17.372 -26.359,-25.569c-48.747,-43.624 -120.648,-61.09 -186.966,-97.874c-45.772,-25.389 -85.897,-58.206 -118.032,-96.033c-4.495,-25.551 -8.238,-52.839 4.914,-76.126c10.326,-18.282 36.459,-32.636 57.505,-23.825c21.741,9.102 41.263,18.688 60.044,27.709c32.038,72.78 46.679,117.824 58.936,146.299c10.69,24.833 21.029,39.663 34.457,49.911c18.086,13.803 43.858,19.394 94.993,24.26c38.417,3.652 71.1,2.789 112.467,-18.46c4.709,7.562 9.104,15.271 13.17,23.112Z" style="fill:#fff;"/><path d="M588.302,2088.398c-47.904,-17.691 -107.656,10.276 -130.879,51.393c-3.186,5.641 -5.831,11.428 -8,17.328c-1.9,-4.293 -3.707,-8.617 -5.419,-12.97l-0.002,-0.004c-7.159,-18.189 -13.404,-36.794 -24.443,-53.463c-10.026,-15.141 -23.658,-28.265 -37.098,-41.297c-27.708,-26.869 -55.792,-55.723 -63.761,-90.999c-6.029,-26.731 5.966,-58.913 35.345,-68.968l0.004,-0.001c18.37,-6.292 40.796,-7.24 59.352,-12.414c20.16,-5.622 36.791,-15.36 47.599,-31.339c12.541,-18.531 11.732,-41.125 11.579,-62.579c-0.17,-24.074 9.444,-47.052 25.457,-66.419c3.093,18.929 6.877,36.39 10.171,51.537c22.968,105.582 17.244,138.985 16.88,163.678c-0.315,21.4 1.784,37.965 20.815,73.743c15.983,30.051 30.017,57.568 42.399,82.774Z" style="fill:#fff;"/><path d="M943.828,2293.224c-57.188,-67.255 -136.894,-120.312 -228.025,-148.74l-0.007,-0.002c-14.116,-4.396 -27.596,-9.882 -41.089,-15.98c-18.893,-41.734 -43.118,-91.675 -74.949,-151.524c-15.001,-28.201 -14.034,-37.269 -13.208,-57.324c1.103,-26.758 2.195,-68.191 -18.737,-164.416c-4.762,-21.896 -11.676,-49.775 -14.603,-79.75c7.845,-3.499 16.035,-6.408 24.459,-8.646c23.438,4.885 44.078,14.458 64.129,25.165c4.969,2.653 9.906,5.374 14.833,8.127c-1.91,19.037 -8.907,39.446 -14.694,57.228c-29.356,90.215 -15.581,190.309 37.745,271.973c16.321,24.998 41.152,48.876 74.275,51.779c9.936,0.871 19.715,-0.23 29.445,-2.224c7.254,-1.486 14.446,-3.761 21.798,-4.784c4.482,2.999 16.529,11.204 24.77,18.161c20.077,16.948 41.375,37.633 52.094,46.751c13.72,11.677 30.315,19.275 48.484,24.452c21.186,6.036 44.792,8.554 66.472,13.697c17.89,4.245 34.602,10.777 50.442,18.827c-10.344,10.378 -21.931,21.913 -34.858,34.84c-26.909,26.906 -49.274,47.215 -68.776,62.391Z" style="fill:#fff;"/><path d="M712.883,1730.795c9.884,4.848 20.037,9.359 30.612,13.297c19.182,7.142 40.212,12.402 62.001,15.612c-0.505,37.852 -0.329,74.034 1.059,98.294c1.353,23.649 6.233,39.348 9.322,43.979l0.002,0.002c19.411,29.085 40.379,43.189 60.817,49.176c29.833,8.739 60.749,-0.287 90.546,-15.675c16.38,-8.459 32.44,-18.677 47.816,-25.637c8.211,-3.717 15.681,-7.626 22.902,-5.303c3.869,1.245 6.89,4.749 10.27,9.71c6.711,9.85 12.545,24.15 18.072,43.857c15.853,56.522 32.877,90.886 44.1,116.209c6.746,15.223 12.517,24.57 7.916,36.875c-4.143,11.081 -12.834,23.28 -27.233,39.442c-24.737,-14.329 -51.136,-25.974 -79.985,-32.819c-17.779,-4.218 -36.882,-6.601 -54.821,-10.713c-12.901,-2.957 -25.246,-6.507 -34.681,-14.537l-0.004,-0.003c-14.258,-12.128 -46.834,-44.116 -71.198,-61.93c-17.866,-13.063 -34.645,-18.398 -43.844,-17.896c-8.772,0.478 -17.402,2.257 -25.972,4.26c-7.092,1.658 -14.058,3.986 -21.295,3.351l-0.002,-0c-13.724,-1.202 -21.764,-14.005 -28.525,-24.361c-43.095,-65.996 -54.539,-146.843 -30.815,-219.748c4.623,-14.205 9.438,-29.784 12.94,-45.443Z" style="fill:#fff;"/><path d="M867.639,1702.255c1.129,-37.228 2.68,-70.641 4.027,-88.775c2.348,-31.575 0.863,-58.742 -3.518,-81.995c16.947,-10.661 34.895,-23.469 52.918,-37.576c10.516,26.797 29.921,52.771 48.212,78.285c9.01,12.568 17.573,25.034 23.079,37.813c3.832,8.895 6.211,17.853 4.425,27.196c-2.229,11.66 -11.075,22.008 -22.802,31.209c-15.197,11.922 -35.442,21.292 -58.145,26.998c-15.395,3.869 -31.689,6.115 -48.197,6.845Z" style="fill:#fff;"/><path d="M806.835,1698.234c-14.732,-2.623 -28.927,-6.42 -42.051,-11.307c-17.746,-6.61 -34.16,-15.05 -50.141,-23.937c-5.689,-21.388 -18.709,-39.394 -42.623,-51.406l-0.003,-0.001c-16.712,-8.389 -36.591,-11.146 -55.927,-11.012c-13.462,0.094 -26.73,1.525 -39.645,4.139c-6.413,-0.929 -12.988,-1.594 -19.749,-1.961c3.939,-17.011 10.556,-33.73 20.879,-49.506c64.911,25.553 154.437,27.943 230.279,7.429c0.981,-0.265 1.976,-0.551 2.984,-0.855c1.321,14.464 1.361,30.803 -0.003,49.142c-1.365,18.371 -2.887,51.787 -3.999,89.276Z" style="fill:#fff;"/><path d="M392.262,1374.222c13.807,0.522 27.43,1.335 40.697,1.836c2.916,0.11 5.806,0.213 8.669,0.31c1.109,4.918 2.282,9.828 3.518,14.729c11.973,47.486 32.554,96.345 79.16,132.228c-4.664,7.52 -8.732,15.177 -12.272,22.92c-9.116,19.94 -14.589,40.663 -17.48,61.406c-27.8,5.169 -55.07,12.95 -83.281,17.51c-22.382,3.618 -49.321,3.149 -69.345,-3.059c-3.98,-1.234 -7.628,-2.677 -10.715,-4.502c-0.737,-0.436 -1.573,-0.677 -2.208,-1.051c0.705,-1.933 2.091,-5.617 3.188,-7.821c4.061,-8.164 8.661,-16.401 11.653,-24.587c7.954,-21.759 6.574,-43.796 0.617,-65.873c-4.396,-16.29 -11.473,-32.625 -16.539,-48.789c-5.865,-18.715 -7.328,-41.555 15.8,-54.08l0.003,-0.002c10.023,-5.431 22.501,-11.901 30.976,-18.526c6.932,-5.419 11.967,-11.375 14.998,-16.979c1.018,-1.882 1.87,-3.774 2.561,-5.671Z" style="fill:#fff;"/><path d="M793.402,1501.373c-0.495,0.145 -0.987,0.283 -1.475,0.415c-53.16,14.379 -114.487,16.051 -164.66,3.481c19.154,-12.264 42.734,-22.938 71.513,-31.619c27.184,-8.203 57.372,-7.881 79.487,10.394c5.712,4.72 10.779,10.474 15.136,17.328Z" style="fill:#fff;"/><path d="M504.606,1377.41c94.59,-0.308 153.152,-10.265 189.251,-28.655c49.978,-25.46 66.126,-65.092 68.684,-122.552c1.323,-29.722 -1.431,-65.248 -2.465,-106.891c4.018,1.338 7.78,2.839 11.165,4.502l0.003,0.002c25.359,12.452 35.951,33.371 41.802,53.125c7.276,24.566 9.374,49.72 6.165,74.619c-2.556,19.829 -7.216,40.619 -7.171,60.621c0.059,26.535 7.152,51.866 29.947,74.136c11.598,11.33 27.564,20.992 42.854,30.651c6.682,4.221 13.407,8.145 18.53,12.807c-2.655,2.211 -5.315,4.402 -7.975,6.57c-16.397,13.365 -32.758,25.927 -48.219,36.499c-8.582,-14.754 -18.849,-26.563 -30.052,-35.821c-37.986,-31.392 -89.271,-35.862 -135.964,-21.773c-51.389,15.502 -89.332,36.797 -117.213,61.404c-35.544,-26.53 -50.269,-63.734 -59.341,-99.244Z" style="fill:#fff;"/><path d="M699.191,1111.719c0.538,28.609 1.919,54.49 2.504,77.737c1.256,49.972 2.383,85.633 -35.528,104.945c-32.636,16.626 -86.275,23.086 -173.371,22.162c-3.066,-22.796 -4.648,-45.742 -4.742,-68.766c82.973,-34.535 152.947,-81.268 202.535,-135.131c1.785,-0.236 4.941,-0.625 8.602,-0.947Z" style="fill:#fff;"/><path d="M431.107,1314.94c-29.424,-1.17 -60.258,-2.911 -91.143,-0.937c-0.897,-0.506 -1.636,-1.099 -2.167,-1.854c-0.573,-0.815 0.549,-1.629 1.053,-2.537c1.018,-1.836 2.525,-3.516 4.35,-5.032l0.002,-0.002c20.48,-17.022 53.913,-24.782 84.345,-34.535c0.617,15.009 1.804,29.98 3.56,44.898Z" style="fill:#fff;"/><path d="M411.345,1031.351l2.206,4.675l10.018,4.655c14.616,6.79 16.486,22.209 17.027,39.38c0.898,28.49 -5.461,62.165 -9.292,94.265c-1.236,10.358 -2.203,20.714 -2.9,31.063c-5.988,2.112 -12.036,4.157 -18.143,6.135c-38.453,12.455 -80.078,24.558 -106.044,46.137c-22.073,18.338 -30.641,43.94 -26.154,66.65c-2.433,0.714 -4.86,1.47 -7.282,2.271c-16.054,5.31 -33.181,2.989 -45.697,-4.089c-7.334,-4.147 -14.189,-9.562 -12.816,-17.286c5.144,-28.929 16.624,-58.572 32.09,-85.023l0.001,-0.002c36.879,-63.094 91.826,-112.868 130.948,-156.759c12.165,-13.648 24.219,-23.879 36.037,-32.073Z" style="fill:#fff;"/><path d="M470.931,999.442c7.461,-3.725 14.758,-7.578 21.874,-11.832c-4.11,36.321 19.052,70.218 52.954,83.576c29.887,11.776 63.589,10.004 96.305,4.07c-38.321,40.413 -89.721,75.845 -149.923,104.093c5.169,-42.607 12.953,-87.539 7.55,-122.159c-3.682,-23.593 -12.624,-43.325 -28.76,-57.748Z" style="fill:#fff;"/><path d="M760.363,1056.443c0.178,-4.518 0.396,-9.092 0.659,-13.724c52.455,-19.434 99.4,-46.782 125.488,-89.381c19.394,-31.67 24.93,-66.76 27.278,-102.837c1.887,-29.006 1.477,-58.68 9.343,-86.655c7.852,-27.923 25.131,-53.578 48.618,-73.955c7.144,4.944 12.313,11.363 16.417,17.536c6.292,9.477 9.969,16.178 9.211,22.434c-0.559,4.611 -3.8,8.055 -7.147,11.924c-4.558,5.268 -10.008,10.467 -15.743,16.06c-20.856,20.341 -44.287,44.774 -56.356,83.662c-6.871,22.132 2.811,44.932 29.482,63.922c15.658,11.148 38.294,22.176 57.482,35.153c5.863,3.965 11.358,8.103 15.861,12.659c3.472,3.513 6.726,6.931 7.145,11.43c0.716,7.695 1.445,12.487 -0.4,15.879c-1.286,2.363 -3.835,3.263 -6.271,4.977c-4.868,3.424 -10.341,7.086 -16.261,11.801c-17.566,13.99 -39.311,36.431 -59.579,87.921c-12.02,30.542 -7.177,58.349 7.02,84.568c10.969,20.258 28.256,39.561 45.36,58.47c11.027,12.191 21.958,24.175 29.593,36.594c6.787,11.039 10.745,22.402 3.299,35.114c-10.757,18.366 -42.954,53.393 -81.788,89.511c-6.58,-6.625 -14.447,-12.771 -23.043,-18.529c-13.968,-9.356 -30.413,-17.543 -41.418,-28.294c-11.815,-11.543 -12.327,-25.484 -11.2,-39.401c1.187,-14.661 4.444,-29.558 6.296,-43.923c4.29,-33.28 1.549,-66.906 -8.175,-99.741c-10.089,-34.066 -29.675,-69.084 -73.398,-90.555c-10.625,-5.22 -23.816,-9.476 -37.773,-12.621Z" style="fill:#fff;"/><path d="M768.11,974.565c1.849,-12.073 4.072,-24.464 6.733,-37.177c19.624,-93.778 65.881,-158.598 90.998,-246.396c9.28,-1.732 18.587,-3.363 27.908,-4.897c-13.276,19.007 -23.283,39.699 -29.34,61.239c-9.014,32.056 -9.329,65.97 -11.492,99.207c-1.703,26.168 -4.36,51.969 -18.427,74.941c-14.633,23.894 -38.759,40.256 -66.379,53.083Z" style="fill:#fff;"/><path d="M566.985,902.988l0.147,-0.312c10.455,-22.24 7.847,-50.279 -7.401,-81.083c-1.617,-3.267 -3.381,-6.585 -5.277,-9.949c-0.071,-0.925 -0.14,-1.849 -0.207,-2.774c1.492,-1.071 2.996,-2.135 4.514,-3.192c64.643,-45.02 148.655,-77.655 238.712,-99.919c-25.981,74.633 -64.796,135.317 -82.336,219.133c-5.336,25.497 -9.018,49.754 -11.503,72.798c-15.381,4.371 -30.916,8.235 -46.107,11.883c-29.395,7.062 -61.656,15.793 -89.405,4.86c-12.634,-4.978 -18.79,-21.166 -6.993,-34.169c12.059,-13.292 16.489,-30.506 12.501,-47.036c-2.419,-10.045 -4.634,-20.127 -6.644,-30.24Z" style="fill:#fff;"/><path d="M868.145,505.363c-5.92,-9.65 -15.781,-18.39 -30.147,-24.725c-17.062,-7.524 -42.872,-12.06 -74.07,-13.295c-0.652,-20.345 -1.936,-39.272 -0.603,-55.269c2.314,-27.72 9.182,-55.055 20.268,-80.569c1.803,-4.15 4.053,-8.522 6.938,-12.173c0.363,-0.459 0.897,-1.022 1.422,-1.544c1.078,0.722 2.347,1.604 3.173,2.282c2.501,2.055 4.906,4.256 7.274,6.356c45.774,40.612 105.513,64.857 166.507,68.796c-0.03,0.009 -0.053,0.025 -0.059,0.049c-1.84,11.283 -2.573,23.609 -4.882,35.015c-1.104,5.453 -1.979,10.889 -5.783,14.536l-0.004,0.004c-6.792,6.516 -16.878,7.963 -25.36,12.028c-23.01,11.022 -41.326,29.606 -61.127,45.689c-1.172,0.952 -2.355,1.892 -3.547,2.818Z" style="fill:#fff;"/><path d="M698.6,530.004c-0.533,1.907 -1.115,3.808 -1.752,5.703l-0.002,0.005c-3.242,9.662 -5.961,20.837 -5.553,30.757c0.491,11.928 4.614,22.691 13.189,31.445l0.001,0.001c11.408,11.643 28.837,15.324 45.115,14.362l0.004,-0c24.795,-1.471 49.361,-6.327 72.895,-14.256c-1.538,13.562 -4.131,27.401 -6.9,40.952c-97.049,21.287 -189.308,53.593 -263.196,98.184c0.472,-22.226 1.917,-44.437 4.339,-66.569l0,-0.003c3.535,-32.355 7.97,-65.306 -0.112,-97.051c-1.763,-6.922 -4.008,-13.608 -6.704,-20.064c48.157,-11.314 101.188,-19.792 148.677,-23.467Z" style="fill:#fff;"/><path d="M884.135,568.616c9.021,-5.732 17.713,-11.979 26.012,-18.719l0.002,-0.001c16.099,-13.077 30.318,-29.068 49.026,-38.027l0.005,-0.002c14.272,-6.841 29.801,-12.059 41.221,-23.012c10.535,-10.1 17.216,-22.951 21.22,-37.466c4.03,-14.609 4.981,-31.271 7.432,-46.299l0,-0.003c5.791,-35.549 -20.071,-68.441 -56.018,-70.725c-47.653,-3.033 -94.39,-21.836 -130.152,-53.566l-0.002,-0.002c-13.958,-12.379 -30.114,-24.134 -48.759,-25.065c-29.857,-1.489 -54.559,24.047 -66.474,51.466c-13.734,31.606 -22.245,65.47 -25.111,99.809l-0,0.002c-1.467,17.613 0.334,38.796 1.106,61.511c-60.521,4.022 -130.614,15.712 -190.771,31.364c-8.418,-8.293 -17.758,-16.027 -27.876,-23.23c-46.754,-33.285 -110.822,-55.172 -169.803,-71.486c-69.073,-19.109 -134.845,-36.953 -171.711,-86.372c55.654,-6.934 109.101,-27.18 152.306,-58.223c17.591,-12.64 31.314,-15.23 52.71,-22.282c41.789,-13.77 89.543,-4.808 132.496,5.992c62.784,15.781 127.887,14.717 193.577,10.79c61.034,-3.649 122.592,-9.787 183.033,-4.4c67.633,6.022 132.312,26.407 197.129,45.413c69.32,20.327 138.791,39.115 211.491,40.611c46.116,0.95 94.173,-5.079 140.694,-6.457c40.863,-1.21 80.5,0.977 115.62,18.382c6.131,3.039 12.184,6.734 16.849,11.324c2.062,2.029 4.153,4.015 4.588,6.683c0.43,2.658 -1.899,4.642 -3.856,6.728c-5.079,5.413 -12.473,9.439 -20.189,11.528c-22.864,6.191 -47.516,2.27 -71.296,-0.321c-93.172,-10.186 -187.456,-12.853 -281.22,-7.968c-20.338,1.061 -44.077,6.308 -59.948,16.045c-17.832,10.94 -27.915,26.878 -27.835,46.598l0,0.003c0.075,17.447 8.37,31.911 22.624,43.886c9.921,8.334 24.308,14.935 33.881,23.848c5.854,5.452 5.518,13.074 3.157,20.202c-4.09,12.347 -14.001,24.005 -26.095,31.556c-35.234,22 -80.219,28.405 -118.926,45.529c-11.44,5.062 -22.373,10.924 -32.714,17.482c-21.868,-3.545 -45.997,-0.879 -68.85,2.735c-4.326,0.684 -8.649,1.388 -12.969,2.113c3.07,-19.625 4.95,-39.307 4.398,-57.972Z" style="fill:#fff;"/><path d="M2595.32,435.849c-10.548,-3.767 -22.856,-7.223 -36.157,-10.708c-87.106,-22.827 -215.261,-33.24 -264.74,-34.318l-0.003,-0c-28.257,-0.621 -57.2,2 -84.279,-4.977c-21.81,-5.619 -42.338,-18.841 -54.279,-35.074c-10.573,-14.373 -15.12,-31.028 -12.026,-48.177c2.908,-16.116 16.782,-37.956 37.532,-57.144c27.69,-25.606 66.493,-46.65 91.666,-48.553l0.002,-0c115.327,-8.704 299.898,-32.676 387.195,-23.292c204.15,21.941 445.198,122.722 917.095,29.208c27.878,-5.531 60.097,3.397 79.941,21.136c12.643,11.298 25.132,31.612 30.609,51.575c4.576,16.678 4.113,33.023 -0.933,45.396c-18.59,45.57 -61.81,75.098 -113.707,98.44c-32.94,14.816 -69.281,27.536 -102.213,43.003c-28.29,13.287 -54.126,28.268 -70.728,50.385c-16.731,22.291 -23.986,48.773 -31.974,74.406c-20.076,64.414 -42.516,128.279 -67.271,191.472c40.218,-6.459 80.703,-10.63 119.129,-0.092c40.143,11.009 72.965,44.267 82.813,78.062c8.105,27.815 2.744,56.131 -21.176,77.757c-11.916,10.771 -27.816,18.213 -44.063,24.786c-6.884,2.785 -13.797,5.446 -20.052,8.618c-4.305,2.183 -8.707,3.916 -10.69,7.905c-1.735,3.499 -0.913,7.528 -0.718,11.338l0,0.006c1.703,33.425 13.016,65.305 25.576,97.102c14.28,36.153 30.271,72.15 39.614,109.325c15.449,61.469 5.089,134.021 -36.885,181.755l11.102,6.999c20.719,13.064 42.164,27.82 56.936,44.622c13.123,14.927 21.448,31.592 23.248,49.726c1.92,19.353 -3.863,37.725 -14.016,55.428c-9.84,17.158 -24.821,33.582 -32.982,51.34c-14.567,31.695 -54.098,110.731 -65.262,156.771c-5.325,21.961 -5.578,44.497 -6.73,66.89c-0.507,9.868 -1.168,19.709 -2.263,29.491c45.535,13.356 84.91,47.169 97.261,95.735c15.757,61.966 -14.586,125.619 -46.464,180.098c-28,47.86 -56.01,95.72 -84.011,143.582l-0.001,0.002c-20.97,35.834 -44.867,75.032 -39.055,116.799c1.983,14.236 5.981,29.606 6.165,43.746c0.197,15.165 -3.203,29.291 -11.871,41.664c-6.878,9.825 -16.534,16.977 -26.649,22.812c-18.186,10.498 -37.151,16.448 -55.746,19.781c-8.342,17.66 -24.621,35.342 -42.178,48.356c-32.005,23.721 -69.362,46.257 -99.997,71.386c-24.708,20.267 -45.539,41.513 -49.786,68.844c-0.533,3.433 2.047,6.874 3.721,10.958c2.732,6.663 5.964,13.623 8.788,20.793c10.41,26.434 14.693,54.755 -3.854,83.252c-15.593,23.965 -31.334,35.068 -46.505,40.264c-15.653,5.361 -31.762,4.547 -49.647,0.221c-30.167,-7.297 -69.473,-27.963 -137.943,13.678c-82.779,50.345 -160.7,62.418 -214.948,50.336c-44.08,-9.818 -74.367,-35.12 -86.709,-68.97c-8.172,-22.414 -8.718,-49.291 1.912,-79.434c3.171,-8.993 7.412,-18.38 12.82,-28.097c-7.756,1.194 -15.344,3.028 -22.48,5.565c-13.159,4.679 -24.93,11.529 -31.467,22.413c-3.673,6.116 -5.835,12.752 -7.324,19.609c8.047,6.249 15.296,13.704 21.293,22.802c16.302,24.727 19.64,54.172 13.12,83.302c-8.647,38.631 -35.25,76.394 -65.646,97.504c-74.999,52.1 -168.708,49.34 -254.237,29.782c-74.96,-17.138 -148.869,-46.52 -225.222,-45.376c-9.011,0.136 -18.959,-0.419 -26.234,5.826c-7.337,6.298 -9.938,11.211 -13.348,16.676c-4.011,6.429 -8.554,13.376 -16.283,22.058l-0.004,0.005c-21.789,24.452 -49.716,34.1 -80.128,33.965c-36.819,-0.163 -77.94,-16.2 -111.571,-32.811c-33.958,-16.776 -70.311,-21.246 -107.276,-22.561c-41.571,-1.479 -83.937,1.061 -125.309,-1.597c-45.308,-2.904 -93.52,-15.817 -129.597,-37.956c-46.734,0.819 -93.383,3.887 -139.711,9.544c-55.239,6.749 -111.991,16.041 -166.134,4.427c-65.166,-13.975 -116.75,-55.41 -164.415,-96.152c-16.279,-13.904 -32.541,-27.837 -45.724,-40.616l-0.005,-0.004c-3.054,-2.959 -6.289,-5.785 -9.689,-8.473c-28.913,1.729 -58.906,-3.893 -84.94,-14.904c-40.313,-17.041 -72.554,-45.038 -103.637,-72.917c-30.891,-27.707 -61.44,-58.857 -69.892,-96.707c-8.435,-37.76 6.199,-76.797 20.801,-114.841c9.268,-24.146 20.298,-47.57 9.4,-70.054c-8.093,-16.697 -25.212,-26.879 -42.621,-37.491c-25.01,-15.245 -51.534,-29.994 -70.524,-50.149l-0.002,-0.003c-24.094,-25.583 -35.577,-57.939 -42.514,-90.647c-25.835,-32.772 -46.623,-68.494 -61.375,-106.006c-5.603,-14.236 -9.897,-29.068 -18.538,-42.119c-7.654,-11.559 -18.441,-21.234 -28.702,-31.183c-36.356,-35.255 -70.344,-75.07 -80.799,-121.36l-0.001,-0.003c-12.37,-54.83 14.831,-119.48 75.092,-140.107c16.896,-5.787 36.83,-7.838 54.876,-11.587c8.464,-1.758 17.017,-2.285 21.312,-8.639l0.004,-0.007c1.95,-2.881 1.472,-6.371 1.51,-9.752c0.067,-6.063 -0.369,-12.222 -0.412,-18.204c-0.265,-37.39 14.855,-73.908 40.033,-104.362c-10.115,2.36 -20.287,4.557 -30.607,6.225c-37.241,6.02 -83.22,2.654 -112.18,-10.739c-18.371,-8.496 -31.041,-21.076 -37.098,-35.773l-0.001,-0.003c-5.878,-14.275 -5.232,-28.572 -0.33,-42.886c3.732,-10.896 11.157,-21.839 15.156,-32.779c3.508,-9.597 1.643,-19.302 -0.984,-29.039c-4.187,-15.517 -11.029,-31.042 -15.854,-46.439c-10.605,-33.84 -10.821,-71.96 13.937,-101.343c-38.548,10.341 -78.938,-0.361 -103.865,-21.356c-21.529,-18.133 -32.404,-43.334 -27.577,-70.49c6.356,-35.75 20.376,-72.446 39.489,-105.135c39.062,-66.827 96.634,-120.072 138.072,-166.561c22.112,-24.808 43.731,-40.7 64.586,-52.848c-3.709,-58.217 25.03,-119.347 77.733,-171.483c-20.736,-27.113 -45.418,-55.394 -66.252,-82.253c-24.291,-31.316 -43.405,-61.367 -49.975,-86.122c-6.814,-25.67 -2.571,-47.654 13.168,-65.21c12.891,-14.379 39.03,-29.788 73.924,-43.173c-4.522,-2.946 -9.21,-5.779 -14.026,-8.515c-38.724,-21.998 -86.043,-37.117 -130.001,-49.276c-85.012,-23.518 -163.241,-50.455 -207.28,-112.735c-11.56,-16.345 -16.795,-40.376 -12.35,-57.284c4.859,-18.488 17.493,-32.476 41.688,-34.208c50.684,-3.64 100.128,-20.619 139.207,-48.697c23.271,-16.721 40.905,-21.35 69.212,-30.679c52.472,-17.29 112.533,-8.792 166.461,4.768c56.767,14.269 115.669,12.609 175.065,9.058c64.051,-3.829 128.658,-9.921 192.086,-4.268c71.628,6.378 140.234,27.508 208.88,47.637c64.142,18.808 128.312,36.775 195.582,38.159c45.114,0.93 92.122,-5.096 137.633,-6.443c51.171,-1.515 100.531,2.903 144.512,24.698c27.124,13.442 50.227,36.187 54.563,62.893l0,0.003c6.066,37.404 -26.488,75.576 -68.315,86.902c-30.099,8.15 -62.541,4.851 -93.85,1.44l-0.006,-0.001c-89.935,-9.832 -180.931,-12.405 -271.427,-7.691c-5.887,0.307 -14.515,2.466 -21.368,4.442c0.251,0.171 0.495,0.334 0.731,0.487c9.671,6.288 19.924,12.601 27.753,19.891c20.179,18.791 26.86,42.851 23.395,67.488c-4.27,30.36 -25.943,62.139 -55.597,80.654c-35.446,22.132 -79.801,30.345 -119.374,46.52c4.855,5.396 9.096,11.04 12.846,16.682l0.004,0.006c18.038,27.168 21.418,48.435 18.589,66.119c-2.844,17.779 -12.652,33.201 -27.099,48.366c-15.697,16.477 -39.36,33.081 -51.542,64.183c2.033,1.72 4.617,3.813 6.786,5.268c7.692,5.159 16.849,10.287 26.224,15.692c19.766,11.395 40.117,24.058 54.074,38.779c13.067,13.781 21.2,29.467 22.827,46.926l0,0.002c2.312,24.836 -1.602,39.751 -7.557,50.694c-4.638,8.524 -10.819,15.135 -18.681,21.251c-14.164,11.017 -38.032,20.19 -60.25,76.632c-6.036,15.338 0.33,28.645 8.992,41.533c13.894,20.674 34.413,40.013 50.681,59.747c31.283,37.946 47.524,77.48 21.474,121.954c-13.812,23.582 -58.667,72.579 -110.418,119.196c0.451,3.552 0.934,7.102 1.545,10.64l0,0.003c2.51,14.545 10.72,28.263 19.945,42.015c11.835,17.644 25.683,35.005 37.005,52.496c19.554,30.209 31.272,61.299 25.121,93.481c-8.625,45.119 -58.203,88.876 -125.993,105.913c-20.534,5.161 -42.358,7.995 -64.415,8.667c-0.607,46.03 -0.107,88.707 2.61,107.719c0.027,0.19 0.059,0.397 0.094,0.609c7.784,10.925 15.305,17.742 23.553,20.631c9.544,3.344 19.177,0.825 28.827,-2.783c15.189,-5.68 30.199,-14.857 44.818,-22.968c30.391,-16.863 60.246,-27.783 86.286,-21.173c25.98,6.595 54.038,30.319 72.56,96.361c17.959,64.033 37.737,97.857 47.465,123.058c9.726,25.197 11.623,44.677 2.953,67.864c-5.193,13.888 -15.826,29.907 -34.297,51.609c14.082,10.543 27.743,21.541 41.167,32.496c15.064,12.293 29.116,27.056 33.613,44.517l0.001,0.005c6.404,24.898 -6.714,50.985 -24.414,71.426l-0.002,0.003c-11.151,12.871 -23.401,25.797 -35.768,38.859c13.668,-1.146 26.575,-7.583 35.905,-18.159l0.001,-0.001c24.283,-27.519 59.815,-52.284 95.487,-49.034c38.038,3.465 101.365,41.795 116.316,99.107l0,0.002c2.042,7.831 1.05,19.846 -4.767,34.112c1.902,0.475 3.803,1.003 5.702,1.585l0.002,0.001c14.755,4.529 29.334,10.928 43.224,18.552c0.75,-2.409 1.537,-4.736 2.369,-6.968c8.808,-23.635 23.29,-38.689 42.151,-43.883l0.002,-0.001c31.184,-8.582 53.715,-6.382 71.132,0.001c18.078,6.626 31.22,18.181 42.386,30.967c4.738,5.425 9.063,11.04 13.544,16.124c3.718,4.22 6.894,9.072 13.749,8.012c68.822,-10.645 99.179,-0.013 132.114,17.95c26.708,14.567 55.311,36.004 119.113,53.94c34.81,9.786 70.296,15.452 106.069,19.457l0.549,-0.01c30.421,-0.536 51.609,-4.857 67.212,-15.105c24.286,-15.951 34.093,-44.502 47.903,-83.524c6.02,-17.013 21.336,-33.819 43.443,-47.843c37.602,-23.853 96.627,-42.079 129.161,-53.452c10.641,-3.721 23.661,-6.163 38.641,-7.578c4.969,-2.996 10.115,-5.472 15.354,-7.398l0.003,-0.001c19.069,-7.007 39.759,-8.102 61.034,-5.723c-0.018,-0.823 -0.092,-1.673 -0.274,-2.353c-7.872,-29.369 3.527,-58.146 24.452,-71.255l0.005,-0.003c3.207,-2.007 4.747,-6.321 6.104,-10.982c2.388,-8.204 2.596,-18.051 0.262,-28.151l-0.001,-0.003c-3.681,-15.944 -9.741,-32.324 -9.601,-47.67c0.173,-19.159 6.844,-32.124 15.748,-41.275c16.294,-16.745 46.119,-19.931 71.363,-15.993c97.133,15.157 182.114,-49.974 218.743,-161.828l0.001,-0.002c8.698,-26.552 16.326,-56.326 27.966,-79.422c1.547,-3.07 3.168,-6.035 4.865,-8.887c-1.063,-4.07 -2.031,-8.138 -2.892,-12.189c-9.39,-44.187 -4.943,-85.862 15.97,-110.995c36.213,-43.524 81.409,-64.304 117.697,-86.074c2.797,-1.678 5.534,-3.354 8.187,-5.058c13.941,-97.283 -43.55,-197.814 -144.452,-258.597l-0.004,-0.002c-18.434,-11.113 -37.286,-23.896 -45.898,-40.546l-0.004,-0.008c-10.374,-20.083 -8.296,-40.553 3.262,-59.547c11.403,-18.741 34.412,-36.26 58.526,-47.064c14.852,-6.655 31.222,-12.577 45.69,-19.845c9.42,-4.732 18.262,-9.481 23.026,-17.213c4.88,-7.919 1.468,-16.179 -2.127,-24.581c-7.357,-17.198 -19.515,-34.431 -28.236,-51.057c-43.615,-83.112 -17.523,-158.949 42.431,-217.225c10.304,-10.015 21.658,-19.48 33.824,-28.329c-8.542,-45.901 -10.647,-88.304 8.644,-135.224c2.665,-6.484 5.877,-13.612 9.568,-21.268l-0.059,-0.02c-5.623,-1.88 -11.052,-4.554 -16.934,-4.881c-6.212,-0.339 -10.736,4.025 -14.827,8.739c-7.799,8.986 -13.275,21.097 -16.836,32.413c-6.363,20.217 -12.51,42.319 -22.865,60.468c-9.085,15.921 -21.154,29.137 -37.549,37.909c-21.301,11.398 -44.196,12.583 -67.121,6.777c-26.917,-6.817 -54.073,-24.18 -76.391,-41.09l-0.014,-0.011c-4.78,-3.63 -8.865,-8.125 -11.903,-13.352l-0.013,-0.023c-13.203,-22.798 -3.338,-40.326 10.878,-53.384c12.217,-11.235 25.585,-23.375 28.53,-39.712c3.931,-21.799 -10.984,-40.152 -23.673,-59.605c-20.858,-31.978 -40.301,-64.965 -37.491,-101.263c1.57,-20.371 11.713,-42.683 19.85,-62.735c2.045,-5.04 4.223,-12.91 5.103,-16.207c-17.899,-22.852 -28.386,-33.966 -38.491,-46.521c-0.429,-0.533 -0.853,-1.068 -1.271,-1.607Zm-1695.16,2363.325c8.695,7.749 18.061,15.741 27.423,23.738l0.004,0.004c40.195,34.357 82.625,71.098 137.579,82.883c47.578,10.206 97.404,0.598 145.946,-5.333c27.948,-3.412 56.007,-5.925 84.131,-7.605c-31.253,-16.08 -60.553,-35.872 -86.847,-60.775c-2.277,-2.157 -4.528,-4.368 -6.739,-6.635c-37.957,34.215 -98.415,49.93 -156.492,25.577c-35.899,-15.051 -67.936,-36.593 -92.852,-63.542c-3.3,-3.57 -5.725,-8.401 -10.566,-10.267l-0.002,-0.001c-2.116,-0.816 -4.153,0.04 -6.207,0.77c-4.118,1.464 -8.145,3.742 -12.187,6.201c-7.816,4.757 -15.55,10.202 -23.192,14.986Zm2361.595,-1925.289c9.493,16.916 14.693,37.097 14.585,60.595c-0.238,51.928 -31.837,93.137 -56.674,131.574c-14.574,22.555 -27.308,43.782 -6.679,69.904l0.001,0.002c12.221,15.479 16.25,40.107 16.507,66.637c0.102,10.541 -0.138,21.397 0.771,31.36c0.299,3.283 0.722,6.439 1.436,9.378c0.47,1.936 0.216,4.089 1.794,5.084c49.511,31.213 99.028,62.427 148.543,93.64c35.484,-31.35 41.783,-87.992 30.282,-133.755c-8.707,-34.645 -23.881,-68.093 -37.188,-101.785c-15.027,-38.046 -27.723,-76.408 -29.762,-116.402c-0.725,-14.128 0.551,-28.586 7.002,-41.582l0.002,-0.003c8.335,-16.783 23.44,-28.538 42.112,-37.313c15.374,-7.225 34.387,-11.237 46.421,-22.115c6.67,-6.031 4.722,-14.599 0.766,-22.136c-7.036,-13.404 -21.242,-25.111 -37.628,-29.605c-41.877,-11.484 -86.516,-0.061 -129.952,7.632c-4.058,9.647 -8.17,19.277 -12.337,28.889Zm13.137,985.046c-4.843,-10.966 -10.045,-22.135 -15.6,-33.491c-4.015,-2.206 -19.434,-10.537 -32.408,-15.625c-17.593,-6.9 -38.31,-13.998 -59.118,-21.141c0.409,3.46 0.659,6.883 0.753,10.207l0,0.01c0.584,21.207 -1.31,40.985 -4.627,59.96c6.622,9.195 13.148,18.619 20.172,27.607c9.834,12.584 20.628,24.498 35.822,31.766c15.83,-22.899 33.538,-43.453 55.006,-59.291Zm-327.029,-173.94c-2.08,10.421 -4.18,20.869 -5.468,31.258c-1.662,13.405 -2.093,26.728 3.238,39.517c4.629,11.105 17.334,19.867 30.974,25.025c12.862,4.864 27.451,6.917 38.582,-0.086c4.317,-2.716 12.201,-5.608 22.879,-5.168c7.826,-11.482 16.883,-21.301 26.862,-29.16c-4.393,-2.793 -8.103,-5.532 -11.027,-8.172c-9.643,-8.709 -14.078,-18.16 -15.424,-26.505c-5.48,-33.967 11.763,-63.204 42.517,-88.717c29.386,-24.379 72.988,-45.507 98.556,-73.072c-0.481,-1.273 -1.154,-3.044 -1.955,-5.134c-14.169,7.404 -26.069,6.842 -34.887,4.003c-12.283,-3.955 -23.514,-14.015 -28.742,-32.528c-3.165,-11.209 -4.225,-27.566 -3.102,-46.362c1.32,-22.098 5.39,-48.267 9.862,-71.775c-1.259,-0.218 -2.527,-0.418 -3.804,-0.6c-25.584,-3.657 -54.588,0.19 -76.094,10.933c-34.214,17.092 -50.871,46.881 -55.596,75.922c-5.81,35.716 1.357,71.755 2.364,107.68c1.222,43.732 -14.424,71.187 -39.736,92.943Zm-2079.717,-1179.628c1.192,-0.927 2.375,-1.866 3.547,-2.818c19.801,-16.084 38.117,-34.668 61.127,-45.689c8.482,-4.065 18.567,-5.512 25.36,-12.028l0.004,-0.004c3.804,-3.647 4.679,-9.083 5.783,-14.536c2.309,-11.407 3.042,-23.732 4.882,-35.015c0.006,-0.024 0.029,-0.04 0.059,-0.049c-60.994,-3.939 -120.733,-28.184 -166.507,-68.796c-2.368,-2.1 -4.772,-4.302 -7.274,-6.356c-0.825,-0.678 -2.094,-1.56 -3.173,-2.282c-0.525,0.523 -1.06,1.085 -1.422,1.544c-2.885,3.652 -5.134,8.023 -6.938,12.173c-11.086,25.513 -17.954,52.849 -20.268,80.569c-1.332,15.997 -0.049,34.924 0.603,55.269c31.198,1.235 57.008,5.77 74.07,13.295c14.366,6.335 24.227,15.075 30.147,24.725Zm2174.953,117.87c9.775,11.749 21.399,24.341 34.612,37.999c18.928,19.563 24.811,40.918 26.921,60.149c0.877,7.993 1.722,20.014 1.903,22.649c10.865,20.147 15.839,41.712 15.317,63.261c10.44,0.242 20.578,1.039 30.34,2.394c-7.174,-12.153 -11.192,-26.325 -12.839,-41.705c-2.76,-25.769 2.099,-55.485 6.856,-80.736c1.551,-8.233 6.289,-19.809 13.816,-33.105c12.741,-22.505 34.235,-52.771 50.354,-80.283c7.431,-12.684 14.463,-30.746 16.395,-35.851c-9.049,-16.876 -21.989,-42.262 -38.076,-60.161c-5.961,-6.633 -11.216,-13.648 -18.486,-13.307c-4.375,0.205 -8.993,4.556 -15.202,9.285c-11.264,8.58 -23.793,20.776 -37.065,35.319c-2.656,2.911 -5.338,5.912 -8.041,8.996c9.265,21.657 8.377,47.814 -6,66.275l-0.002,0.003c-6.571,8.434 -14.987,14.513 -24.565,19.132c-7.752,3.739 -16.608,6.084 -24.317,10.023c-4.692,2.397 -8.538,5.768 -11.919,9.663Zm-2335.216,1582.814c16.46,40.872 26.423,69.491 35.168,89.806c5.26,12.218 8.829,20.496 15.436,25.539c4.295,3.278 9.785,4.738 17.023,6.223c11.834,2.428 26.886,3.913 46.738,5.802c24.292,2.309 45.211,1.358 68.806,-8.123c-47.228,-52.839 -110.955,-94.813 -183.171,-119.247Zm-8.691,-1094.328c-3.661,0.322 -6.817,0.711 -8.602,0.947c-49.589,53.864 -119.563,100.596 -202.535,135.131c0.094,23.024 1.676,45.969 4.742,68.766c87.096,0.924 140.735,-5.536 173.371,-22.162c37.911,-19.313 36.784,-54.973 35.528,-104.945c-0.584,-23.247 -1.966,-49.129 -2.504,-77.737Zm1992.049,-601.416c-3.107,9.165 -7.338,18.973 -11.492,28.944c-3.953,9.488 -8.087,19.125 -8.799,28.371l-0.001,0.008c-0.931,12.008 3.787,22.973 9.579,33.799c8.355,15.616 19.422,30.696 28.714,46.012c16.786,27.666 27.654,56.285 22.084,87.174c-4.1,22.745 -17.145,42.532 -33.031,59.673c9.13,6.053 18.809,11.563 28.688,15.321c10.673,4.06 21.595,6.529 31.568,1.193l0.002,-0.001c8.087,-4.327 12.623,-12.159 16.51,-20.528c6.186,-13.321 10.111,-28.449 14.494,-42.374c7.33,-23.297 20.602,-47.882 38.356,-63.62c15.326,-13.586 33.791,-21.283 54.842,-20.129l0.005,0c8.387,0.463 16.517,2.474 24.539,5.1c6.01,1.968 11.83,4.799 18.104,5.352l0.004,0c0.211,0.019 0.421,0.033 0.629,0.042c11.165,-19.294 23.747,-39.785 37.167,-60.479c-1.682,-3.195 -3.205,-6.333 -4.565,-9.415c-12.604,-28.553 -49.883,-43.478 -87.987,-40.435c-7.223,0.582 -15.076,0.759 -23.707,0.391l-0.006,-0c-58.859,-2.537 -112.407,-24.941 -155.697,-54.398Zm-1878.35,26.351c-3.37,-1.395 -8.209,-3.227 -12.373,-4.146c-11.041,-2.435 -24.354,-3.785 -39.284,-4.286c-1.212,7.463 -2.867,14.923 -5.098,22.318c19.422,-2.079 38.554,-6.79 56.755,-13.886Zm2156.074,185.623c-10.917,19.823 -19.773,37.683 -25.715,52.141c-11.184,27.202 -12.334,52.481 -9.16,78.321c39.828,-19.858 83.502,-33.977 125.521,-40.851l0.711,-0.116c1.49,-13.491 -0.966,-27.138 -7.988,-39.718c-4.226,-7.565 -6.518,-17.831 -7.333,-30.151c-0.709,-10.727 1.047,-25.67 -11.131,-38.256c-8.35,-8.631 -16.114,-16.956 -23.276,-24.992c-10.733,17.202 -25.002,33.036 -41.629,43.623Zm-1221.288,2236.745c21.881,10.797 47.536,22.021 72.134,25.435c17.479,2.426 34.564,1.061 46.744,-12.604c16.867,-18.947 16.598,-28.264 35.449,-44.446c18.465,-15.852 42.174,-20.189 65.049,-20.534c81.185,-1.216 160.035,28.682 239.736,46.904c69.115,15.804 145.235,21.686 205.842,-20.417l0.002,-0.001c15.892,-11.037 30.012,-29.422 37.458,-49.237c3.44,-9.156 5.609,-18.728 5.191,-27.856c-2.019,2.779 -4.231,5.483 -6.658,8.104l-0.001,0.001c-13.476,14.544 -31.268,24.015 -51.551,29.461c-24.5,6.578 -52.988,7.11 -79.063,6.367c-27.543,-0.779 -55.314,-0.055 -83.604,0.307c-15.065,5.8 -31.756,9.456 -50.027,10.486c-36.616,2.065 -73.181,-1.001 -109.392,-10.965l-0.002,-0.001c-27.451,-7.559 -54.235,-20.993 -82.559,-19.841c-23.325,0.956 -44.965,12.329 -66.527,21.901c-57.76,25.649 -117.98,45.287 -178.22,56.936Zm1440.248,-988.607c-16.636,-8.98 -30.264,-21.059 -42.286,-34.731c-0.297,-0.337 -0.592,-0.676 -0.887,-1.016c-5.629,19.32 -11.212,38.716 -15.433,58.967l-0,0.002c-4.484,21.5 -6.24,46.976 -4.185,72.293c25.197,-25.607 42.826,-59.932 61.445,-93.118l1.347,-2.397Zm-2683.318,-593.005c9.071,35.51 23.797,72.714 59.341,99.244c27.881,-24.607 65.824,-45.902 117.213,-61.404c46.694,-14.089 97.978,-9.619 135.964,21.773c11.203,9.258 21.47,21.067 30.052,35.821c15.461,-10.573 31.823,-23.134 48.219,-36.499c2.66,-2.168 5.32,-4.36 7.975,-6.57c-5.124,-4.662 -11.849,-8.586 -18.53,-12.807c-15.289,-9.659 -31.256,-19.32 -42.854,-30.651c-22.795,-22.27 -29.889,-47.6 -29.947,-74.136c-0.044,-20.001 4.615,-40.791 7.171,-60.621c3.21,-24.899 1.111,-50.053 -6.165,-74.619c-5.851,-19.755 -16.443,-40.673 -41.802,-53.125l-0.003,-0.002c-3.385,-1.663 -7.147,-3.164 -11.165,-4.502c1.034,41.642 3.788,77.169 2.465,106.891c-2.558,57.459 -18.706,97.092 -68.684,122.552c-36.099,18.39 -94.66,28.347 -189.251,28.655Zm437.502,1021.385c-4.065,-7.841 -8.461,-15.55 -13.17,-23.112c-41.367,21.249 -74.05,22.113 -112.467,18.46c-51.135,-4.866 -76.907,-10.457 -94.993,-24.26c-13.428,-10.248 -23.767,-25.079 -34.457,-49.911c-12.257,-28.474 -26.898,-73.518 -58.936,-146.299c-18.781,-9.021 -38.303,-18.608 -60.044,-27.709c-21.045,-8.811 -47.179,5.543 -57.505,23.825c-13.152,23.287 -9.409,50.574 -4.914,76.126c32.135,37.827 72.26,70.645 118.032,96.033c66.318,36.785 138.219,54.251 186.966,97.874c9.159,8.197 17.544,17.08 26.359,25.569l105.129,-66.597Zm-157.517,100.314c-4.796,-4.683 -9.63,-9.338 -14.651,-13.831c-29.707,-26.585 -68.959,-42.098 -109.867,-59.189c14.185,30.886 10.23,63.159 -0.763,96.013c-6.379,19.064 -15.102,38.386 -21.144,57.716c-4.461,14.273 -7.705,28.473 -4.56,42.554l0,0.002c3.475,15.563 13.374,28.72 25.318,40.857c0.469,-25.461 11.198,-50.986 32.473,-71.628c21.528,-20.894 40.119,-47.487 61.908,-67.828c9.601,-8.964 20.22,-17.035 31.285,-24.667Zm474.653,204.58c-8.522,-4.496 -16.716,-9.341 -24.448,-14.617c-0.882,1.766 -1.728,3.554 -2.535,5.362c12.021,27.269 12.391,54.442 4.2,78.874c4.287,5.178 9.106,9.965 13.881,14.488c11.131,10.542 22.881,20.013 35.147,28.558c-0.38,-1.213 -0.772,-2.423 -1.175,-3.629l-0.002,-0.005c-11.742,-35.107 -20.118,-71.75 -25.069,-109.031Zm670.071,-76.366c-24.432,10.398 -45.317,26.635 -59.61,47.509c-6.579,9.608 -3.704,20.397 1.502,30.643c8.482,16.694 23.93,32.179 39.889,44.063l0.002,0.001c55.596,41.409 123.747,70.142 195.773,82.726c39.053,6.827 76.46,7.942 112.869,7.691c26.558,-13.509 43.449,-38.807 50.505,-66.934c-11.613,-2.012 -23.286,-3.55 -35.027,-4.489c-54.505,-4.359 -109.86,2.682 -163.46,-9.695c-60.216,-13.903 -104.537,-62.546 -138.451,-125.396l-0.001,-0.002c-1.124,-2.084 -2.591,-4.236 -3.991,-6.117Zm-1081.878,129.338c5.61,-1.578 11.003,-3.76 16.067,-6.62l0.003,-0.002c15.335,-8.656 31.165,-21.241 47.213,-27.845c17.357,-7.143 35.033,-8.809 52.97,-1.893c13.863,5.344 23.959,15.547 33.414,25.773c19.184,20.75 44.007,37.109 71.649,48.698c37.674,15.797 77.324,3.646 98.373,-21.068c-2.019,-5.477 -3.606,-11.141 -4.678,-16.99l-0,-0.003c-3.522,-19.244 -1.26,-39.282 3.802,-58.137c-20.597,-39.716 -44.726,-78.039 -72.156,-114.512c-4.604,-6.122 -9.014,-12.887 -16.177,-16.779c-8.966,-4.865 -19.804,-6.351 -29.468,-10.122l-0.003,-0.001c-11.707,-4.571 -21.844,-10.632 -30.703,-17.857c-50.482,31.357 -119.62,36.805 -176.515,5.448c-2.729,-1.504 -5.423,-3.074 -8.078,-4.712c-13.536,8.669 -26.794,17.66 -38.217,28.325c-21.51,20.079 -39.8,46.386 -61.053,67.013l-0.002,0.002c-19.392,18.815 -16.422,47.562 6.082,63.609l0.003,0.002c23.997,17.121 50.42,31.709 78.511,43.287c10.152,4.181 19.837,8.994 28.962,14.383Zm471.314,-308.07c0.773,-0.962 1.537,-1.917 2.291,-2.866c9.22,-11.605 18.45,-26.726 21.732,-32.24c-10.344,-28.074 -41.774,-46.695 -61.161,-48.461c-6.753,-0.615 -13.092,2.506 -19.134,6.294c-9.429,5.912 -17.906,14.222 -25.077,22.349c-26.732,30.302 -67.291,44.48 -107.009,37.041l-0.002,-0c-7.199,-1.349 -15.487,-2.645 -24.191,-3.858c-12.681,15.949 -23.652,32.239 -31.331,49.001c-3.353,7.322 -7.325,14.267 -11.839,20.809c2.365,1.387 4.891,2.621 7.6,3.679c12.018,4.689 25.235,7.282 36.392,13.338l0.004,0.002c15.121,8.212 26.101,20.798 35.82,33.72c17.294,22.996 33.366,46.677 48.167,70.943c3.254,-13.651 14.283,-33.342 30.974,-55.198c12.739,-16.681 28.826,-35.412 45.271,-54.299c10.227,-26.414 28.769,-47.364 51.493,-60.252Zm2025.197,-617.541c1.038,-9.022 1.556,-18.114 2.024,-27.215c1.346,-26.175 2.143,-52.463 8.368,-78.133c11.936,-49.22 53.545,-133.984 69.118,-167.869c7.714,-16.784 20.387,-32.781 30.939,-48.857c5.689,-8.668 11.732,-16.855 10.784,-26.415c-0.8,-8.059 -6.789,-14.4 -13.447,-20.733c-10.972,-10.438 -25.088,-19.538 -38.57,-28.039l-31.996,-20.17c-4.302,1.812 -8.756,3.457 -13.364,4.923c-13.579,4.325 -28.026,6.369 -41.519,10.761c-1.507,0.974 -17.47,11.321 -29.9,20.848c-21.223,16.265 -46.919,37.44 -68.366,55.213c1.733,3.774 3.426,7.535 4.949,11.231c11.073,26.872 10.975,51.835 -3.434,68.865c-23.114,27.321 -61.978,49.803 -94.219,72.768c-10.239,7.293 -19.674,14.608 -26.943,22.491c-4.237,4.596 -7.964,9.157 -9.333,14.342c9.637,4.845 33.603,16.572 53.987,23.905c42.442,15.269 92.464,30.872 121.821,45.127c20.556,9.981 33.048,21.978 37.524,31.052c6.379,12.925 12.323,25.649 17.833,38.151c4.54,-0.974 9.128,-1.72 13.743,-2.246Zm-706.675,-1442.435c15.282,7.568 27.151,15.765 34.59,24.198c37.77,42.816 102.056,87.682 177.693,90.945c5.893,0.251 11.258,0.148 16.205,-0.25l0.011,-0.001c55.449,-4.428 107.516,17.968 135.569,54.602c8.754,-12.255 17.622,-24.255 26.477,-35.78c-1.242,-0.632 -2.479,-1.263 -3.704,-1.902c-41.122,-21.431 -82.244,-42.872 -123.366,-64.313c-26.341,-13.735 -53.005,-29.161 -70.414,-53.229c-4.783,-6.603 -8.748,-13.959 -11.745,-21.731l-0.004,-0.01c-2.387,-6.201 -9.046,-9.862 -15.252,-7.484c-46.835,17.947 -95.593,24.807 -140.58,5.715l-0.001,-0.001c-11.227,-4.766 -21.539,-11.324 -31.907,-17.755c-0.032,9.33 2.177,18.595 6.428,26.996Zm-1281.832,2465.458c45.792,18.986 95.217,30.623 144.43,40.291c14.561,1.016 29.108,2.212 43.635,3.579c40.813,3.838 76.502,-27.611 59.318,-59.724c-1.735,-3.236 -3.946,-6.268 -6.829,-9.024c-11.064,-10.539 -27.441,-15.154 -42.792,-20.362c-71.43,-24.23 -142.869,-48.45 -214.307,-72.679c-4.386,-1.487 -8.787,-3 -13.189,-4.546c4.247,21.011 9.737,41.671 16.46,61.77l0.001,0.003c6.558,19.62 10.756,40.004 13.274,60.693Zm1702.56,-683.078c8.548,7.528 16.62,15.966 24.147,25.106c7.072,-0.331 13.662,-1.529 19.413,-4.558c-0.046,-1.785 -0.333,-6.751 -2.077,-9.39l-0.001,-0.002c-4.448,-6.732 -8.447,-13.941 -12.018,-21.524l-1.063,-0.44c-9.424,3.678 -18.947,7.157 -28.401,10.807Zm-634.796,581.942c2.559,-8.36 5.897,-16.456 10.489,-24.102c25.199,-41.956 85.308,-61.733 140.059,-59.029c4.408,0.217 8.796,0.549 13.169,0.976c12.056,-12.435 25.927,-25.139 41.764,-38.016c3.671,-2.985 12.264,-11.529 17.385,-16.688c-0.988,-0.86 -1.97,-1.689 -2.786,-2.327c-6.168,-4.826 -12.449,-9.713 -17.556,-15.073c-16.325,-17.133 -20.164,-36.581 -15.121,-57.542c2.853,-11.859 9.602,-24.706 18.852,-37.793c-40.867,13.184 -78.91,36.768 -96.746,86.712c-5.277,14.78 -9.359,31.449 -15.299,45.446c-5.85,13.785 -13.529,25.418 -23.337,33.636l-0.002,0.001c-21.346,17.882 -47.291,19.137 -74.857,6.261c-26.705,-12.474 -56.098,-40.881 -79.744,-69.325c-33.925,-40.816 -69.094,-91.899 -73.816,-147.756c-1.109,-13.108 -0.478,-25.412 1.572,-36.798c-22.705,7.749 -49.043,17.315 -71.088,28.715c-9.446,4.885 -18.033,10.048 -24.756,15.692c-3.548,2.979 -6.771,5.644 -7.964,9.017c-13.488,38.112 -26.58,67.695 -44.798,89.693c28.235,2.785 56.359,6.356 84.183,11.909c1.14,0.226 2.28,0.462 3.405,0.696c79.918,16.544 122.107,80.17 128.087,147.832c29.866,8.055 59.462,17.915 88.904,27.863Zm-1539.07,-2184.323c0.553,18.665 -1.327,38.347 -4.398,57.972c4.32,-0.725 8.643,-1.43 12.969,-2.113c22.853,-3.614 46.982,-6.28 68.85,-2.735c10.341,-6.558 21.274,-12.42 32.714,-17.482c38.707,-17.124 83.692,-23.529 118.926,-45.529c12.094,-7.552 22.006,-19.21 26.095,-31.556c2.361,-7.128 2.697,-14.749 -3.157,-20.202c-9.572,-8.913 -23.96,-15.514 -33.881,-23.848c-14.254,-11.975 -22.549,-26.439 -22.624,-43.886l-0,-0.003c-0.08,-19.72 10.002,-35.657 27.835,-46.598c15.87,-9.737 39.61,-14.984 59.948,-16.045c93.764,-4.885 188.048,-2.218 281.22,7.968c23.779,2.59 48.432,6.512 71.296,0.321c7.716,-2.089 15.11,-6.115 20.189,-11.528c1.957,-2.086 4.286,-4.069 3.856,-6.728c-0.435,-2.667 -2.526,-4.654 -4.588,-6.683c-4.666,-4.59 -10.718,-8.285 -16.849,-11.324c-35.121,-17.405 -74.758,-19.591 -115.62,-18.382c-46.521,1.377 -94.579,7.407 -140.694,6.457c-72.7,-1.496 -142.171,-20.284 -211.491,-40.611c-64.816,-19.006 -129.496,-39.391 -197.129,-45.413c-60.441,-5.387 -121.999,0.751 -183.033,4.4c-65.69,3.927 -130.793,4.991 -193.577,-10.79c-42.953,-10.8 -90.707,-19.762 -132.496,-5.992c-21.396,7.052 -35.119,9.642 -52.71,22.282c-43.205,31.043 -96.652,51.288 -152.306,58.223c36.866,49.418 102.637,67.263 171.711,86.372c58.981,16.314 123.049,38.201 169.803,71.486c10.118,7.203 19.458,14.937 27.876,23.23c60.157,-15.652 130.251,-27.342 190.771,-31.364c-0.772,-22.715 -2.573,-43.898 -1.106,-61.511l0,-0.002c2.866,-34.339 11.378,-68.203 25.111,-99.809c11.915,-27.419 36.617,-52.956 66.474,-51.466c18.644,0.931 34.801,12.686 48.759,25.065l0.002,0.002c35.762,31.73 82.499,50.533 130.152,53.566c35.947,2.284 61.81,35.176 56.018,70.725l-0,0.003c-2.451,15.028 -3.403,31.69 -7.432,46.299c-4.004,14.515 -10.685,27.366 -21.22,37.466c-11.42,10.953 -26.949,16.171 -41.221,23.012l-0.005,0.002c-18.708,8.959 -32.926,24.95 -49.026,38.027l-0.002,0.001c-8.299,6.739 -16.991,12.987 -26.012,18.719Zm-185.534,-38.612c-47.489,3.675 -100.52,12.152 -148.677,23.467c2.696,6.456 4.941,13.141 6.704,20.064c8.082,31.744 3.647,64.696 0.112,97.051l-0,0.003c-2.422,22.132 -3.867,44.343 -4.339,66.569c73.888,-44.591 166.147,-76.897 263.196,-98.184c2.77,-13.551 5.362,-27.39 6.9,-40.952c-23.533,7.929 -48.1,12.785 -72.895,14.256l-0.004,0c-16.278,0.961 -33.706,-2.719 -45.115,-14.362l-0.001,-0.001c-8.575,-8.753 -12.697,-19.517 -13.189,-31.445c-0.409,-9.92 2.311,-21.095 5.553,-30.757l0.002,-0.005c0.637,-1.895 1.219,-3.796 1.752,-5.703Zm-110.298,1558.394c-12.383,-25.206 -26.416,-52.724 -42.399,-82.774c-19.031,-35.778 -21.131,-52.344 -20.815,-73.743c0.364,-24.693 6.087,-58.096 -16.88,-163.678c-3.294,-15.147 -7.077,-32.608 -10.171,-51.537c-16.013,19.367 -25.627,42.345 -25.457,66.419c0.153,21.454 0.963,44.047 -11.579,62.579c-10.808,15.979 -27.439,25.718 -47.599,31.339c-18.556,5.174 -40.982,6.122 -59.352,12.414l-0.004,0.001c-29.379,10.055 -41.374,42.237 -35.345,68.968c7.969,35.277 36.053,64.131 63.761,90.999c13.44,13.031 27.072,26.156 37.098,41.297c11.038,16.67 17.284,35.275 24.443,53.463l0.002,0.004c1.712,4.353 3.519,8.677 5.419,12.97c2.169,-5.9 4.814,-11.687 8,-17.328c23.223,-41.117 82.974,-69.084 130.879,-51.393Zm-85.163,-1195.224c-1.909,-11.142 -3.59,-22.314 -5.041,-33.507c-12.494,14.63 -22.666,29.887 -30.084,45.474c-5.159,10.842 -8.933,21.827 -11.09,32.803c16.889,-9.698 32.53,-22.292 46.215,-44.771Zm1360.342,1698.132c-54.631,-15.803 -85.762,-33.67 -110.992,-48.396c-30.808,-17.98 -50.57,-29.963 -110.209,-20.738l-0.002,0c-28.42,4.392 -46.977,-5.666 -62.954,-21.668c-5.022,-5.03 -9.746,-10.794 -14.61,-16.698c-6.463,-7.843 -12.673,-17.064 -24.387,-20.383c-7.665,-2.172 -17.21,-1.656 -29.73,1.569c-0.843,1.491 -2.586,4.673 -3.445,6.978c-2.453,6.582 -4.282,14.26 -5.984,22.417c31.43,24.547 62.25,50.404 98.503,61.576c37.987,11.706 73.62,12.847 110.402,16.255c41.606,3.855 84.492,10.162 132.764,32.071c1.251,-0.493 4.194,-1.69 5.933,-2.704c3.751,-2.188 7.484,-4.873 11.237,-7.672c1.156,-0.863 2.314,-1.733 3.473,-2.607Zm1181.356,-103.518c8.672,72.564 -24.583,148.598 -86.658,198.798c-68.694,55.553 -169.039,78.87 -262.04,65.85l-0.002,-0c-28.748,-4.029 -56.808,-11.69 -85.277,-16.816c-8.545,10.834 -15.3,21.309 -20.359,31.381c-10.113,20.134 -13.179,37.671 -7.991,51.9c5.831,15.991 21.836,25.687 42.661,30.324c43.082,9.595 104.249,-2.931 169.99,-42.913c77.833,-47.335 127.996,-36.278 166.348,-25.656c7.278,2.016 14.014,4.061 20.397,5.441c4.558,0.985 8.71,2.118 12.777,0.725c5.402,-1.85 9.59,-7.292 15.143,-15.826l0.001,-0.002c3.638,-5.589 3.149,-11.239 1.856,-16.61c-1.696,-7.045 -4.731,-13.864 -7.585,-20.443c-8.487,-19.568 -14.532,-38.243 -12.077,-54.043c5.257,-33.832 24.502,-63.248 51.939,-89.498c32.548,-31.14 77.239,-58.031 115.829,-85.999c-36.527,-0.711 -73.277,-2.813 -108.107,-14.226c-2.291,-0.751 -4.574,-1.546 -6.846,-2.386Zm-715.144,299.196c-4.464,18.45 -11.697,36.097 -21.613,52.003c3.891,0.05 7.776,0.126 11.656,0.236l0.003,0c17.273,0.492 35.898,0.643 52.891,-2.4c12.141,-2.174 23.545,-5.6 31.248,-13.912c2.833,-3.059 4.92,-6.403 6.503,-9.945c-1.502,-0.493 -2.994,-0.984 -4.468,-1.482c-25.278,-8.546 -50.646,-17.175 -76.219,-24.5Zm-1839.38,-2217.173c-6.461,2.07 -12.697,4.188 -18.671,6.345c-26.616,9.612 -47.707,18.906 -57.192,29.485c-1.739,1.94 -0.626,4.523 -0.002,7.313c1.445,6.462 4.6,13.393 8.663,20.809c13.255,24.19 35.684,51.559 58.535,79.448c3.35,4.089 6.709,8.189 10.055,12.29c0.696,-20.549 2.162,-41.078 4.401,-61.545c2.746,-25.13 7.69,-50.712 1.412,-75.369c-1.69,-6.637 -4.124,-12.882 -7.201,-18.776Zm2699.879,315.138c-3.451,-2.291 -7.198,-4.306 -11.201,-6.054c-20.337,-8.88 -45.848,-11.981 -73.591,-10.679c-0.394,0.74 -0.795,1.478 -1.202,2.214c-4.951,8.947 -9.82,17.898 -13.845,26.976l-0.001,0.003c-6.287,14.172 -8.512,31.484 -4.658,46.289c2.742,10.532 9.158,19.708 21.237,22.582c15.447,3.675 28.692,-3.376 39.933,-13.325c15.587,-13.795 27.607,-33.492 35.752,-51.3c2.544,-5.562 5.07,-11.131 7.577,-16.706Zm-2797.928,489.274c-0.692,1.897 -1.543,3.789 -2.561,5.671c-3.03,5.603 -8.065,11.559 -14.998,16.979c-8.475,6.625 -20.953,13.096 -30.976,18.526l-0.003,0.002c-23.127,12.524 -21.664,35.364 -15.8,54.08c5.065,16.164 12.143,32.498 16.539,48.789c5.957,22.076 7.337,44.114 -0.617,65.873c-2.992,8.186 -7.593,16.423 -11.653,24.587c-1.096,2.204 -2.482,5.889 -3.188,7.821c0.635,0.373 1.471,0.615 2.208,1.051c3.087,1.825 6.735,3.268 10.715,4.502c20.024,6.208 46.963,6.677 69.345,3.059c28.211,-4.56 55.481,-12.34 83.281,-17.51c2.891,-20.743 8.364,-41.466 17.48,-61.406c3.54,-7.743 7.608,-15.399 12.272,-22.92c-46.606,-35.883 -67.187,-84.742 -79.16,-132.228c-1.236,-4.901 -2.408,-9.811 -3.518,-14.729c-2.863,-0.097 -5.753,-0.2 -8.669,-0.31c-13.267,-0.501 -26.89,-1.314 -40.697,-1.836Zm2639.196,-493.807c-29.264,8.018 -58.407,19.701 -84.881,34.484l0.475,2.085c2.08,9.157 0.923,21.637 -2.52,34.674c-1.596,6.045 -4.165,16.909 -4.706,19.207c2.603,11.695 5.178,23.483 10.188,34.577c10.685,23.64 31.387,42.577 51.079,61.448c27.358,26.219 31.241,55.129 28.886,85.088c-0.972,12.358 -3.216,24.865 -3.697,37.161c-0.385,9.823 0.486,19.629 8.098,28.474c6.13,-0.428 32.087,-2.36 49.544,-5.521c20.898,-3.785 42.212,-7.35 59.626,-7.124c9.202,0.119 17.602,1.328 25.025,3.516c-0.032,-6.05 -0.102,-12.046 -0.431,-17.796c-0.377,-6.599 0.15,-12.897 -3.029,-16.924c-34.366,-43.516 -29.25,-80.787 -10.084,-118.021c10.666,-20.721 26.882,-41.472 40.564,-64.042c0.597,-0.985 1.19,-1.974 1.777,-2.967c-7.746,8.212 -16.157,15.56 -25.138,21.522c-23.205,15.405 -49.982,22.371 -79.421,15.367c-64.97,-15.455 -81.922,-89.158 -61.353,-145.207Zm-2620.113,150.936c-11.817,8.194 -23.872,18.425 -36.037,32.073c-39.122,43.89 -94.068,93.665 -130.948,156.759l-0.001,0.002c-15.466,26.451 -26.947,56.094 -32.09,85.023c-1.373,7.723 5.483,13.138 12.816,17.286c12.516,7.078 29.643,9.399 45.697,4.089c2.421,-0.801 4.849,-1.557 7.282,-2.271c-4.487,-22.711 4.082,-48.312 26.154,-66.65c25.966,-21.579 67.591,-33.682 106.044,-46.137c6.107,-1.978 12.155,-4.024 18.143,-6.135c0.698,-10.349 1.664,-20.705 2.9,-31.063c3.83,-32.1 10.189,-65.776 9.292,-94.265c-0.541,-17.172 -2.412,-32.59 -17.027,-39.38l-10.018,-4.655l-2.206,-4.675Zm1075.119,1527.794c-2.905,9.174 -6.319,17.688 -10.514,25.03l-0.002,0.003c-10.878,19.027 -27.52,28.677 -47.408,32.188c-19.196,3.389 -42.502,-0.399 -62.466,-3.026c-17.278,-2.27 -34.694,-0.239 -51.172,5.274c-0.114,14.984 0.38,29.976 1.479,44.906c13.835,5.399 28.157,10.136 42.104,14.866c71.44,24.23 142.882,48.451 214.313,72.681c23.848,8.091 48.115,17.609 65.306,33.996l0.01,0.01c7.79,7.44 13.795,15.602 18.481,24.346l0.003,0.006c18.404,34.379 13.549,71.523 -6.446,100.232c83.544,-3.697 169.885,-27.307 250.99,-63.324c9.49,-4.213 19.059,-8.477 28.74,-12.339c-19.35,-10.702 -37.825,-22.577 -55.221,-35.533c-28.669,-21.347 -54.829,-51.65 -64.854,-82.109c-6.608,-20.079 -7.05,-40.372 0.73,-59.62c-38.26,-16.123 -72.707,-20.683 -106.093,-23.776c-40.923,-3.792 -80.475,-5.676 -122.738,-18.7c-34.459,-10.619 -65.039,-32.328 -95.244,-55.113Zm-467.906,-136.57c2.037,5.625 4.086,11.328 6.249,17c3.667,-6.874 7.78,-13.694 12.251,-20.465c-5.506,-0.507 -9.532,-0.855 -11.426,-1.015l-7.073,4.48Zm1917.198,-238.604c-38.197,-7.626 -73.273,-7.07 -102.917,10.432c-18.608,10.99 -32.491,29.649 -43.492,49.575c-4.806,8.704 -9.04,17.696 -12.763,26.622c25.058,-13.128 48.473,-18.292 69.976,-18.078c24.922,0.248 47.78,7.835 68.31,20.28c0.731,-2.163 1.478,-4.29 2.242,-6.379c-1.373,-8.531 -2.064,-17.12 -1.534,-25.811l0,-0.002c1.276,-20.877 8.771,-39.947 20.179,-56.639Zm75.33,-59.531c-61.388,-32.716 -127.022,-76.38 -189.548,-131.074l-0.001,-0.001c-10.912,-9.548 -23.467,-26.468 -35.183,-47.279c-2.667,8.772 -5.268,17.565 -8.028,25.989c-47.235,144.239 -160.86,222.657 -286.116,203.112c-4.5,-0.702 -12.317,-0.658 -16.672,-0.566c0.492,10.26 5.551,20.897 8.002,31.507c10.373,44.889 -6.855,86.418 -31.532,103.32c-0.088,1.143 -0.203,3.524 0.196,5.012l0.001,0.005c3.165,11.826 3.43,23.059 1.409,33.165c16.255,0.64 32.996,1.16 49.996,1.324c65.392,0.632 135.168,-3.415 193.701,-29.458c6.146,-26.039 18.054,-67.719 38.636,-105c16.355,-29.625 38.211,-56.279 65.877,-72.618l0.002,-0.001c52.389,-30.932 117.587,-27.66 188.314,-6.955c4.238,-2.449 8.542,-4.718 12.879,-6.8c2.667,-1.28 5.358,-2.503 8.069,-3.682Zm-2217.684,-623.067c-4.357,-6.854 -9.424,-12.608 -15.136,-17.328c-22.114,-18.275 -52.302,-18.597 -79.487,-10.394c-28.778,8.681 -52.359,19.355 -71.513,31.619c50.173,12.57 111.5,10.898 164.66,-3.481c0.488,-0.132 0.98,-0.271 1.475,-0.415Zm289.725,859.703c20.806,-23.286 42.913,-46.041 62.289,-68.404c3.253,-3.756 6.547,-7.759 9.053,-12.007c0.836,-1.418 1.852,-4.014 2.181,-4.879c-0.661,-1.44 -2.202,-2.413 -3.442,-3.645c-2.93,-2.912 -6.236,-5.597 -9.451,-8.22c-14.298,-11.668 -28.81,-23.559 -43.903,-34.751c-12.779,13.268 -27.414,28.094 -44.118,44.799c-28.862,28.86 -53.714,51.184 -75.805,68.348c4.901,7.789 9.518,15.711 13.838,23.753l2.871,-1.818c6.643,-4.211 20.953,-8.149 40.501,-7.596c12.721,0.36 28.882,2.059 45.985,4.422Zm-188.486,139.998c29.472,8.16 61.18,4.092 86.187,-9.871c-5.682,-11.331 -10.442,-23.338 -14.916,-35.277l-71.271,45.149Zm-423.709,-1501.632c16.135,14.423 25.078,34.155 28.76,57.748c5.403,34.62 -2.381,79.551 -7.55,122.159c60.203,-28.248 111.602,-63.68 149.923,-104.093c-32.716,5.934 -66.418,7.706 -96.305,-4.07c-33.901,-13.358 -57.063,-47.255 -52.954,-83.576c-7.117,4.254 -14.413,8.106 -21.874,11.832Zm962.951,1521.118c-14.672,-9.732 -30.841,-18.085 -47.381,-23.162c-10.173,-3.121 -20.301,-2.661 -29.482,0.581c-11.022,13.21 -23.23,27.215 -35.457,41.259c-0.495,2.033 -0.898,4.113 -1.201,6.234c-0.448,3.128 -0.868,6.261 -1.261,9.4c18.061,-3.612 36.578,-4.422 54.925,-2.012l0.002,0c10.456,1.376 22.054,3.511 33.1,3.935c3.452,0.132 6.827,0.097 10.011,-0.373c2.244,-0.331 4.639,-0.402 5.851,-2.519c5.236,-9.165 8.304,-20.965 10.892,-33.345Zm-490.055,-227.336c19.502,-15.176 41.867,-35.484 68.776,-62.391c12.927,-12.927 24.514,-24.462 34.858,-34.84c-15.839,-8.05 -32.551,-14.583 -50.442,-18.827c-21.68,-5.143 -45.285,-7.66 -66.472,-13.697c-18.169,-5.177 -34.764,-12.774 -48.484,-24.452c-10.719,-9.119 -32.017,-29.803 -52.094,-46.751c-8.241,-6.957 -20.288,-15.162 -24.77,-18.161c-7.352,1.023 -14.544,3.298 -21.798,4.784c-9.73,1.993 -19.509,3.095 -29.445,2.224c-33.123,-2.902 -57.954,-26.781 -74.275,-51.779c-53.325,-81.664 -67.101,-181.758 -37.745,-271.973c5.787,-17.782 12.784,-38.191 14.694,-57.228c-4.927,-2.754 -9.864,-5.474 -14.833,-8.127c-20.051,-10.707 -40.691,-20.28 -64.129,-25.165c-8.424,2.238 -16.613,5.147 -24.459,8.646c2.927,29.975 9.841,57.854 14.603,79.75c20.932,96.225 19.84,137.658 18.737,164.416c-0.827,20.055 -1.793,29.123 13.208,57.324c31.831,59.849 56.056,109.79 74.949,151.524c13.492,6.098 26.973,11.584 41.089,15.98l0.007,0.002c91.131,28.429 170.837,81.485 228.025,148.74Zm-230.944,-562.429c-3.502,15.659 -8.317,31.238 -12.94,45.443c-23.724,72.905 -12.279,153.751 30.815,219.748c6.762,10.356 14.801,23.159 28.525,24.361l0.002,0c7.238,0.635 14.203,-1.693 21.295,-3.351c8.57,-2.004 17.2,-3.783 25.972,-4.26c9.199,-0.503 25.978,4.833 43.844,17.896c24.364,17.814 56.94,49.802 71.198,61.93l0.004,0.003c9.435,8.03 21.78,11.58 34.681,14.537c17.939,4.112 37.042,6.495 54.821,10.713c28.849,6.845 55.248,18.49 79.985,32.819c14.398,-16.161 23.089,-28.361 27.233,-39.442c4.601,-12.305 -1.17,-21.653 -7.916,-36.875c-11.222,-25.323 -28.247,-59.687 -44.1,-116.209c-5.527,-19.706 -11.361,-34.006 -18.072,-43.857c-3.38,-4.961 -6.401,-8.466 -10.27,-9.71c-7.221,-2.323 -14.691,1.587 -22.902,5.303c-15.375,6.96 -31.436,17.178 -47.816,25.637c-29.798,15.388 -60.714,24.414 -90.546,15.675c-20.438,-5.987 -41.406,-20.091 -60.817,-49.176l-0.002,-0.002c-3.089,-4.631 -7.969,-20.329 -9.322,-43.979c-1.388,-24.26 -1.564,-60.441 -1.059,-98.294c-21.789,-3.209 -42.819,-8.469 -62.001,-15.612c-10.575,-3.939 -20.728,-8.449 -30.612,-13.297Zm-281.776,-415.854c-1.756,-14.918 -2.943,-29.889 -3.56,-44.898c-30.431,9.754 -63.864,17.514 -84.345,34.535l-0.002,0.002c-1.825,1.516 -3.332,3.196 -4.35,5.032c-0.504,0.908 -1.626,1.723 -1.053,2.537c0.531,0.754 1.27,1.348 2.167,1.854c30.885,-1.974 61.719,-0.232 91.143,0.937Zm2304.188,1137.517c15.43,6.803 31.338,14.717 47.007,22.155c18.351,8.711 36.24,16.838 52.306,20.03c7.584,1.507 14.568,3.006 19.586,-1.664c10.48,-9.75 16.427,-27.442 22.145,-47.925c9.139,-32.738 15.238,-72.198 22.525,-108.886c-15.127,-13.173 -32.581,-22.449 -52.912,-22.651c-19.667,-0.195 -41.208,8.234 -65.38,26.982c-9.166,7.109 -18.751,13.528 -28.692,19.318c-2.428,18.394 -3.798,38.209 -7.616,58.338c-2.164,11.408 -5.015,22.885 -8.969,34.301Zm213.211,-51.083c-4.019,21.031 -8.255,41.602 -13.413,60.082c-9.287,33.267 -22.327,60.348 -39.347,76.183c-27.018,25.14 -68.279,22.635 -113.571,3.795c-24.776,-10.306 -51.232,-24.767 -76.019,-35.204c-2.998,3.82 -6.214,7.607 -9.665,11.355l-0.003,0.003c-9.122,9.911 -17.44,19.707 -22.831,29.215c-1.146,2.021 -2.138,4.004 -2.895,5.964c-0.55,1.424 -1.952,2.697 -0.871,3.831c5.683,5.963 13.594,10.819 19.811,16.424c8.584,7.738 15.076,16.502 18.468,26.361c4.512,13.109 3.078,26.85 -3.592,40.069c-8.301,16.454 -27.423,32.52 -37.406,40.639l-0.002,0.002c-1.707,1.388 -3.387,2.771 -5.041,4.151c14.081,2.964 28.199,5.778 42.471,7.779c76.282,10.679 158.874,-7.303 215.22,-52.87c52.368,-42.35 78.655,-109.403 58.936,-168.903l-0.001,-0.003c-1.881,-5.679 -8.743,-25.973 -20.586,-50.411c-3.646,-5.858 -6.887,-12.015 -9.664,-18.463Zm117.792,-317.156c-4.577,-35.809 -3.072,-72.468 3.304,-103.035c7.65,-36.699 20.673,-70.257 29.315,-106.2c-7.884,-8.087 -17.84,-15.455 -27.876,-21.634c-1.21,6.713 -2.035,13.723 -2.465,20.94l-0,0.005c-1.379,23.166 -16.392,43.911 -41.476,56.009c-28.164,13.583 -69.83,15.739 -105.562,-2.179c-22.098,-11.081 -45.234,-27.063 -67.557,-37.978c-11.327,-5.539 -21.899,-11.227 -31.687,-9.178c11.213,29.205 26.358,55.067 39.409,66.487c67.926,59.417 139.696,105.03 204.595,136.763Zm-2298.188,-1109.653c27.62,-12.827 51.746,-29.189 66.379,-53.083c14.067,-22.972 16.724,-48.772 18.427,-74.941c2.163,-33.237 2.478,-67.152 11.492,-99.207c6.057,-21.541 16.065,-42.233 29.34,-61.239c-9.321,1.534 -18.628,3.166 -27.908,4.897c-25.117,87.798 -71.374,152.618 -90.998,246.396c-2.661,12.713 -4.884,25.104 -6.733,37.177Zm2298.973,-500.093c1.945,-2.193 3.88,-4.343 5.802,-6.45c19.63,-21.51 38.22,-38.551 54.052,-49.079c15.187,-10.099 29.151,-14.811 40.413,-15.339c23.824,-1.118 47.181,11.729 66.715,33.464c20.696,23.028 37.67,56.088 48.449,75.778l0.001,0.002c4.726,8.636 6.936,19.575 5.15,32.554c-1.486,10.801 -6.137,24.096 -13.312,38.511c-13.092,26.299 -35.079,58.041 -51.624,84.329c-8.052,12.793 -15.265,23.331 -16.576,30.295c-3.713,19.71 -8.303,42.832 -6.149,62.946c1.184,11.049 4.534,21.299 16.33,25.425c4.752,1.659 9.753,2.245 14.849,2.223c29.452,-72.5 55.777,-145.941 78.899,-220.126c10.032,-32.188 20.416,-64.884 41.426,-92.874c35.353,-47.099 100.769,-72.943 163.785,-98.487c26.952,-10.925 53.243,-22.006 75.029,-36.168c17.539,-11.402 32.102,-24.637 39.759,-42.682c-0.165,-1.258 -1.072,-7.823 -2.474,-11.532c-2.635,-6.974 -6.552,-13.865 -10.991,-17.83l-0.004,-0.004c-6.777,-6.059 -17.894,-8.67 -27.419,-6.78l-0.003,0.001c-481.337,95.385 -727.248,-6.014 -935.478,-28.393c-84.803,-9.116 -264.052,15.012 -376.081,23.468c-15.472,1.17 -37.827,16.773 -54.848,32.513c-8.84,8.175 -17.185,15.721 -18.801,22.629c0.245,0.46 0.837,1.542 1.296,2.127c1.14,1.456 2.547,2.78 4.095,4.007c4.523,3.587 10.186,6.28 15.988,7.775c22.602,5.823 46.815,2.544 70.399,3.063c51.236,1.116 182.526,11.873 274.135,35.076c-0.38,-14.524 1.885,-29.19 6.949,-43.264l0.001,-0.003c6.544,-18.173 18.428,-28.336 30.139,-31.302c7.568,-1.917 16.417,-1.916 26.635,2.931l0.006,0.003c18.336,8.708 34.275,22.011 52.963,29.946c30.421,12.91 63.248,5.611 94.92,-6.525c37.696,-14.443 79.513,4.875 94,42.517c1.085,2.815 2.498,5.496 4.24,7.901l0.008,0.011c11.894,16.449 31.197,25.512 49.196,34.897c41.118,21.439 82.237,42.878 123.359,64.309l0.004,0.002c4.961,2.587 9.924,5.27 14.77,8.135Zm-2306.721,581.972c13.957,3.145 27.148,7.401 37.773,12.621c43.724,21.471 63.309,56.489 73.398,90.555c9.724,32.834 12.466,66.46 8.175,99.741c-1.852,14.364 -5.109,29.262 -6.296,43.923c-1.127,13.917 -0.615,27.858 11.2,39.401c11.005,10.751 27.449,18.938 41.418,28.294c8.596,5.757 16.462,11.903 23.043,18.529c38.834,-36.118 71.031,-71.145 81.788,-89.511c7.446,-12.712 3.487,-24.075 -3.299,-35.114c-7.635,-12.419 -18.567,-24.403 -29.593,-36.594c-17.103,-18.909 -34.391,-38.213 -45.36,-58.47c-14.197,-26.219 -19.04,-54.027 -7.02,-84.568c20.268,-51.49 42.013,-73.931 59.579,-87.921c5.921,-4.715 11.393,-8.377 16.261,-11.801c2.437,-1.714 4.985,-2.613 6.271,-4.977c1.846,-3.392 1.117,-8.185 0.4,-15.879c-0.419,-4.499 -3.673,-7.917 -7.145,-11.43c-4.503,-4.555 -9.998,-8.694 -15.861,-12.659c-19.188,-12.977 -41.824,-24.004 -57.482,-35.153c-26.671,-18.989 -36.353,-41.789 -29.482,-63.922c12.069,-38.888 35.5,-63.321 56.356,-83.662c5.735,-5.593 11.185,-10.792 15.743,-16.06c3.347,-3.868 6.588,-7.313 7.147,-11.924c0.758,-6.256 -2.919,-12.957 -9.211,-22.434c-4.104,-6.173 -9.273,-12.592 -16.417,-17.536c-23.487,20.376 -40.766,46.031 -48.618,73.955c-7.866,27.975 -7.456,57.649 -9.343,86.655c-2.347,36.076 -7.884,71.167 -27.278,102.837c-26.088,42.599 -73.033,69.947 -125.488,89.381c-0.263,4.631 -0.482,9.206 -0.659,13.724Zm2479.76,1383.196c9.907,-2.392 19.811,-6.045 29.392,-11.576l0.004,-0.002c2.512,-1.449 5.454,-2.518 7.166,-4.965l0.005,-0.007c2.96,-4.225 0.781,-9.587 -0.024,-14.962c-1.354,-9.045 -3.504,-18.267 -4.726,-27.04l-0,-0.002c-7.689,-55.244 19.089,-108.623 46.823,-156.016c28,-47.86 56.01,-95.72 84.011,-143.581c24.011,-41.035 51.863,-87.588 39.996,-134.26c-6.736,-26.487 -27.754,-44.785 -52.456,-52.594c-5.744,12.834 -14.072,25.357 -24.379,36.812c13.385,47.843 18.741,90.492 16.105,126.255c-2.868,38.904 -14.952,70.597 -35.041,94.096c-20.8,24.329 -50.339,40.525 -89.557,45.729c-22.487,2.985 -55.336,-0.244 -94.922,-10.927c0.751,23.145 -9.557,45.12 -27.504,56.064l-0.002,0.001c-5.583,3.403 -11.581,6.091 -17.921,8.17c20.414,41.234 31.56,85.616 31.415,117.607c-0.028,6.077 -0.351,12.426 0.177,18.599c0.267,3.126 0.164,6.478 2.749,8.831c3.162,2.875 7.59,4.263 12.151,5.767c8.504,2.806 17.729,4.872 26.47,7.394c17.767,5.126 33.672,12.503 44.576,24.045c2.032,2.152 3.86,4.341 5.491,6.563Zm-104.789,-1100.828c4.252,-12.317 9.518,-27.433 13.059,-42.494c1.796,-7.637 3.137,-15.238 3.151,-22.198c0.004,-2.08 -0.108,-4.074 -0.464,-5.938c-0.072,-0.379 -0.222,-0.897 -0.361,-1.341c-1.446,-0.275 -4.076,-0.735 -5.877,-0.818c-4.704,-0.217 -9.869,0.094 -15.31,0.654c-17.038,1.752 -36.208,5.891 -53.808,8.798c-21.325,3.521 -40.901,4.901 -54.73,2.036c-11.027,-2.285 -19.781,-6.954 -26.331,-13.234c-27.355,-26.218 -31.238,-55.127 -28.882,-85.084c0.972,-12.358 3.216,-24.865 3.697,-37.161c0.423,-10.808 -0.673,-21.595 -10.591,-31.1c-25.389,-24.331 -50.684,-49.889 -64.462,-80.373l-0.002,-0.003c-6.985,-15.464 -10.868,-31.805 -14.502,-48.057c-1.046,-4.655 -1.28,-10.097 -0.831,-15.988c-34.863,37.841 -50.432,85.15 -23.143,137.15l0.001,0.002c11.768,22.434 28.434,46.206 35.406,69.314c6.864,22.751 6.14,45.133 -7.13,66.665c-8.516,13.819 -21.511,25.036 -37.316,34.196c-17.606,10.204 -39.131,17.898 -58.389,26.526c-9.167,4.107 -18.3,9.583 -25.246,16.022c-2.447,2.269 -5.312,6.396 -6.497,8.168c1.802,2.378 4.775,4.007 7.606,5.926c4.738,3.212 9.87,6.166 14.797,9.136c65.01,39.162 114.256,92.361 143.895,151.344c0.429,-5.469 1.063,-10.931 1.95,-16.387c7.516,-46.198 34.118,-93.509 88.544,-120.698c31.678,-15.825 74.304,-22.137 111.987,-16.749c3.301,0.472 6.563,1.034 9.778,1.685Zm-2328.5,359.423c1.112,-37.488 2.634,-70.904 3.999,-89.276c1.364,-18.339 1.324,-34.677 0.003,-49.142c-1.008,0.305 -2.003,0.59 -2.984,0.855c-75.842,20.514 -165.368,18.124 -230.279,-7.429c-10.323,15.775 -16.94,32.494 -20.879,49.506c6.761,0.367 13.336,1.032 19.749,1.961c12.915,-2.614 26.183,-4.045 39.645,-4.139c19.336,-0.133 39.215,2.623 55.927,11.012l0.003,0.001c23.915,12.011 36.934,30.018 42.623,51.406c15.982,8.887 32.395,17.327 50.141,23.937c13.124,4.886 27.319,8.683 42.051,11.307Zm-239.85,-795.246c2.01,10.112 4.225,20.194 6.644,30.24c3.988,16.53 -0.442,33.744 -12.501,47.036c-11.797,13.003 -5.641,29.191 6.993,34.169c27.749,10.933 60.01,2.202 89.405,-4.86c15.192,-3.649 30.727,-7.513 46.107,-11.883c2.485,-23.044 6.166,-47.301 11.503,-72.798c17.539,-83.817 56.355,-144.5 82.336,-219.133c-90.056,22.265 -174.069,54.9 -238.712,99.919c-1.517,1.057 -3.022,2.121 -4.514,3.192c0.067,0.925 0.136,1.849 0.207,2.774c1.896,3.364 3.66,6.682 5.277,9.949c15.249,30.804 17.857,58.843 7.401,81.083l-0.147,0.312Zm2542.997,1537.633c-21.221,-19.632 -22.589,-46.917 -22.472,-72.459c0.138,-30.509 -13.89,-75.187 -37.397,-112.342c-19.042,-1.407 -38.431,-3.334 -55.354,0.314c-6.453,1.392 -9.729,7.997 -13.594,15.34c-0.323,0.614 -0.642,1.236 -0.958,1.867c2.617,9.859 6.004,19.646 8.296,29.553c5.597,24.192 6.099,49.911 15.366,72.767c2.42,4.497 4.711,8.934 6.87,13.272c13.636,21.291 36.474,35.585 59.937,43.273c12.833,4.205 25.988,6.794 39.305,8.415Zm-2242.343,-738.366c16.508,-0.73 32.801,-2.976 48.197,-6.845c22.703,-5.706 42.948,-15.075 58.145,-26.998c11.727,-9.2 20.573,-19.548 22.802,-31.209c1.786,-9.343 -0.593,-18.301 -4.425,-27.196c-5.505,-12.779 -14.069,-25.245 -23.079,-37.813c-18.291,-25.514 -37.696,-51.488 -48.212,-78.285c-18.023,14.107 -35.971,26.915 -52.918,37.576c4.381,23.253 5.866,50.42 3.518,81.995c-1.347,18.134 -2.898,51.548 -4.027,88.775Zm1402.565,1009.002c-8.963,-35.046 -33.821,-65.475 -76.364,-74.281l-0.008,-0.002c-0.97,-0.201 -1.939,-0.403 -2.931,-0.599l-0.021,-0.004c-65.329,-13.04 -132.265,-15.484 -198.45,-22.165l-0.048,0.001c23.735,41.673 52.149,75.741 93.1,85.196c50.679,11.703 103.064,4.204 154.599,8.325c10.082,0.806 20.122,2.003 30.122,3.529Zm955.383,-1282.79c11.616,-9.441 23.205,-18.694 33.692,-26.731c20.999,-16.093 38.94,-27.38 47,-30.064l0.005,-0.002c1.851,-0.616 3.719,-1.187 5.6,-1.725l-103.262,-65.096c-4.836,21.793 -12.974,43.797 -17.563,58.434c1.447,1.149 2.852,2.33 4.212,3.545c19.728,17.607 29.056,39.319 30.316,61.639Zm-538.295,959.41c-58.29,18.255 -122.775,22.668 -184.275,22.074c-54.131,-0.523 -105.634,-4.672 -147.092,-4.785c-5.699,-0.016 -11.178,0.024 -16.409,0.163c-9.506,10.621 -14.784,27.67 -13.076,47.851l0,0.002c3.679,43.528 33.505,82.094 59.943,113.902c15.213,18.299 32.964,37.176 50.466,48.454c3.904,2.516 7.739,4.613 11.514,5.989c2.401,0.875 4.65,2.434 6.538,0.854c4.292,-3.598 6.176,-9.802 8.497,-16.17c4.297,-11.791 7.653,-24.868 11.867,-36.668c30.569,-85.601 101.495,-118.588 172.095,-133.982c9.091,-1.983 19.029,-2.274 29.585,-1.061c5.282,-14.432 7.936,-29.046 9.887,-43.213c0.157,-1.139 0.31,-2.276 0.458,-3.41Zm468.166,-266.994c39.894,13.117 72.713,18.994 93.959,16.173c22.21,-2.947 39.437,-11.12 51.217,-24.898c12.49,-14.61 18.789,-34.753 20.572,-58.942c1.782,-24.171 -0.92,-51.815 -7.839,-82.336c-19.819,9.558 -41.73,15.233 -64.225,15.143c-3.138,5.513 -6.246,11.076 -9.367,16.638c-24.37,43.435 -48.988,87.234 -84.317,118.222Zm-47.838,-316.136c-0.014,-1.381 -0.041,-2.768 -0.079,-4.162c-0.069,-2.441 -0.632,-5.951 -1.262,-9.208c-3.255,1.918 -6.309,4.228 -9.161,6.891c3.497,2.051 7.011,4.215 10.502,6.479Zm-227.215,-77.199c-22.908,13.067 -46.921,28.627 -67.251,53.061c-4.313,5.183 -5.838,12.371 -6.537,20.288c-0.588,6.655 -0.385,13.767 0.417,21.139c18.227,-4.176 37.806,-1.458 58.039,6.386c27.232,10.558 56.355,31.407 83.809,45.174c14.864,7.454 31.775,8.171 45.137,4.259c4.232,-1.239 8.081,-2.918 11.128,-5.202c0.969,-0.726 2.472,-0.893 2.537,-1.985l0,-0.003c0.524,-8.782 1.537,-17.301 3,-25.518c-18.307,2.229 -37.655,-0.494 -55.653,-7.3c-30.159,-11.404 -55.468,-34.058 -65.703,-58.613c-7.028,-16.861 -9.369,-34.157 -8.921,-51.688Z" style="fill:#000101;"/></g></svg>