<?xml version="1.0" encoding="UTF-8"?>
<svg id="a" data-name="Warstwa 1" xmlns="http://www.w3.org/2000/svg" viewBox="0 0 743.64 757.35">
  <path d="M436.88,183.73c-109.67,11.39-222.13,5.88-331.57,3.46-132.17-.96-94.61,28.71-97.75-102.98C12.74,3.28-21.53.93,66.41,4.84,188.6-.1,310.75,7.93,432.55,3.45c86.71-3.58,173.43-5.55,260.03.09,51.25-.06,52.69-15.82,46.29,43.97-1.9,33.33-4.62,66.5-1.49,99.94,1.68,30.9,5.57,33.36-23.3,48.55-99.61,64.85-188.85,145.2-284.71,215.25-44.31,43.21-96.62,73.77-143.42,112.46-31.37,29.73-67.11,41.11,2.21,34.86,88.97-4.77,177.98-.88,266.64-.05,61.71-1.63,123.54-4.86,185.25-3.1,7.42,1.78.91,11.59,1.82,16.83-2.35,24.4.2,48.87-1.16,73.3-.44,29.53-4.21,59.96-1.67,89.12,4.27,9.89-10.14,5.51-15.54,6.62-7.99.96-15.91,2.56-23.92,3.22-5.83.48-11.76-.14-17.64-.24-4.91-.08-9.82-.17-14.73-.18-7.6-.03-15.21.08-22.81-.01-6.48-.08-12.95-.34-19.43-.56-12.01-.4-24.02-.93-36,.44-2.68.31-5.31,1.29-7.9,2.15-1.73.57-3.25,1.13-5.15.29-1.12-.5-2.63-.28-3.95-.17-4.91.39-9.8,1.1-14.71,1.26-8.42.28-16.86.2-25.29.32-9.25.13-18.5.33-27.75.48-9.61.15-19.22.25-28.83.41-4.32.07-8.65.26-12.97.38-11.24.31-22.48.48-33.71.95-7.23.3-14.44.94-21.65,1.57-10.33.89-20.65,1.87-30.97,2.89-6.09.6-12.15,1.56-18.24,1.93-4.43.26-8.91-.29-13.37-.3-11.25-.03-22.5.05-33.76.08-2.84,0-5.67-.04-8.51,0-11.93.13-23.86.26-35.79.43-10.06.15-20.12.49-30.18.5-9.54,0-19.08-.36-28.63-.49-8.42-.11-16.85,0-25.27-.22-6.54-.16-13.07-.8-19.61-.98-6.7-.19-13.41-.08-20.12-.11-6.92-.04-13.85-.15-20.77-.08-1.24.01-2.65.5-3.68,1.21-1.58,1.1-2.87,1.25-4.46.09-.77-.56-1.85-.98-2.8-.99-9.76-.12-19.53-.22-29.29-.18-5.26.03-10.52.43-15.78.53-10.65.2-21.3.53-31.94.34-5.34-.09-10.66-1.22-15.99-1.85-.96-.11-1.95-.2-2.9-.09-2.73.3-4.76-.69-7.15-2.15-3.11-1.89-3.56-4.26-4-7.3-.9-6.32-2.49-12.57-3.13-18.91-3.29-41.55,5.77-82.88,4.07-124.53-.38-33.95-4.05-39.99,25.12-61.21,29.4-28.64,63.72-52.03,93.47-79.91,107.91-86.58,214.28-181.02,313.49-276.56ZM12.81,616.58c6.31,19.79,33.06,33.88,48.67,49.13,31.24,26.86,63.46,52.33,96.79,76.47,1.68,1.28,3.46,3.15,5.33,3.34,5.84.59,11.76.49,17.64.7,2.53.09,5.09.06,7.59.45,1.94.3,2.67-.32,2.7-2.13.06-3.5.33-7.02.08-10.5-38.48-36.19-83.25-69.79-124.28-104.54-17.02-14.15-33.82-28.56-50.78-42.77-7.16.18-.61,22.27-3.74,29.86ZM247.08,60.6c-32.97,37.9-30.4,31.26,16.26,31.59,62.2-1.24,129.27,5.38,188.69-8.47-1.21-7.81,3.37-21.21-1.28-26.39-22.9,1.58-45.86,2.22-68.69,4.75-44.02-2.07-93.48,5.21-134.98-1.49ZM376.75,126.11c23.58-2.55,48.37-4.86,72.17-7.48,4.67-.66,3.86-22.07,1.5-23.44-55.32,5.89-110.35,4.26-165.83,5.9-23.69,1.99-49.04-2.85-71.86,1.9-3.42,7.34-19.1,17.21-16.55,23.12,60.23-.21,120.16-2.3,180.57,0ZM253.42,11.95c-28.46-6.42-57.92,48.69-80.05,66.63-17.27,19.75-35.06,39.11-51.4,59.62-.45,4.43,8.28,6.68,11.3,9.81,8.17,4.3,16.01,14.91,22.68,3.34,16.85-18.53,34.27-36.51,49.54-56.42,17.6-21.41,35.14-42.87,52.53-64.44,10.9-14.38,20.93-20.7-4.61-18.55ZM530.25,568.58c66.96,42.88,136.62,104.98,200.38,145.15-.92-12.68,3.09-27.44-.81-39.16-24.6-16.42-49.31-32.67-74.4-48.33-40.08-22.43-76.25-66.5-125.17-57.66ZM730.22,730.04c-67.66-55.16-140-111.53-214.79-158.57-3.26,20.45,3.87,18.87,16.62,31.17,23.18,18.62,45.6,38.23,70.04,55.27,27.36,14.33,106.46,103.75,128.14,72.12ZM166.73,155.18c92.06-2.63,184.27-1.09,276.11-8.33,10.88.77,7.76-7.43,8.2-15.47.12-3.37-.02-3.56-3.39-3.25-30.58,1.91-61.12,7.92-91.79,5.25-41.95-2.6-84.21,1.44-126.18,1.66-23.61-1.73-49.93-2.46-62.95,20.15ZM162.38,164.85c14.74,13.83,33.09,17.93,52.98,16.1,21.2-.8,42.33,1.34,63.52.19,45.05-2.49,90.21.53,135.05-4.94,17.07-4.04,42.87,7.21,35.84-19.55-95.68,4.47-191.54,6.44-287.39,8.2ZM191.24,693.21c-2.37-5.56,3.89-17.8-4.61-19.54-19.88-15.12-41.56-27.73-61.67-42.57-33.69-15.59-58.24-58.26-98.06-52.21,27.89,33.92,80.25,67.29,116.3,100.84,15.29,12.88,30.85,25.44,45.84,38.68,5.58-1.85.59-18.46,2.2-25.2ZM424.94,402.04c-84.37,6.3-169.67,24.55-253.23,30.89-10.18,6.78-20.27,15.93-29.16,24.67,21.93-3.08,43.88-6.58,65.86-9.68,55.18-6.55,110.52-11.61,165.09-22.41,28.38-2.51,30.84-1.81,51.43-23.47ZM166.14,180.35c-41.72-28.24-88.36-58.02-134.41-82.29-22.45-14.16-13.99,4.36-16.02,20.1,15.33,15.18,42.44,26.51,61.85,40.2,25.87,21.31,56.46,22.86,88.58,21.99ZM447.93,188.14c-10.42,10.67-30.07,17.28-27.93,33.39.94,51.01,5.05,101.88,8.64,152.76,1.42,3.11,20.47.38,20.62-3.05-.61-17.4-2.54-34.66-2.8-52.07-2.34-43.68.44-87.36,1.47-131.03ZM252.78,53.54c65.11,1.37,132.37,1.61,197.95-4.83,3.5-2.37,4.19-23.59-1.77-21.1-21.2,2.97-42.74,1.78-63.95,4.64-32.71,6.15-117.61-10.63-132.23,21.28ZM477.5,187.57c-33.86,22.03,159.98,34.72,175.9,37.39,46.71-29.85,13.93-19.95-18.66-24.96-52.31-2.95-105.41-4.9-157.24-12.43ZM732.63,650.13c10.32-18.18-58.38-46.42-73.26-60.66-12.39-9.32-29.48-12.63-39.81-23.66-9.68,1.66-32.75-3.71-35.84,2.93,41.37,25.36,80.92,53.5,122.16,79.06,11.59,5.64,30.78,28.22,26.74,2.33ZM388.88,709.45c-6.74-46.22-2.8-100.23-9.11-144.24-24.23-2.87-15,10.96-16.19,28.16-.27,42.49,2.63,84.95,3.99,127.41.6,7.79,1.85,15.53,2.76,23.3.21,1.85,1.19,2.11,2.79,1.89,4.65-.65,9.31-1.26,13.98-1.78,2.17-.24,3.23-1.3,3.22-3.47-.23-10.43-1-20.85-1.43-31.27ZM238.9,676.26c.65,10.73-.5,15.13,10.33,5.3,17.07-13.58,35.38-25.19,52.89-38.13,16.36-11.54,33.12-22.47,49.81-33.49,4.51-8.09.46-19.84,1.28-29.14-27.26,11.55-58.8,38.94-85.54,58.2-10.38,3.28-17.91,12.5-26.96,18.35-4.37,4.1-.63,13.09-1.82,18.92ZM239.47,730.94c24.58-18.39,51-36.47,78.3-51.9,11.49-8.21,32.02-12.9,37.28-25.95-1.38-34.32,2.43-34.02-25.79-12.53-21.81,17.02-44.63,32.72-68.38,46.9-21.26,12.07-25.28,19.09-21.42,43.49ZM13.27,636.44c-1.26,15.22-6.26,31.44,9.88,39.72,22.61,21.99,48.07,40.9,74.68,57.78,5.7,3.76,11.36,7.59,17.06,11.34.58.38,1.4.59,2.11.59,8.64-.02,17.28-.09,25.91-.18.44,0,.88-.37,1.33-.57-.25-.41-.41-.94-.77-1.21-1.89-1.41-3.86-2.73-5.75-4.14-42.6-33.16-84.99-66.34-124.46-103.31ZM183.02,421.95c81.95-6.59,165.79-23.56,248.9-28.42,49-21.38-20.76-6.64-36.7-6.67-38.47,1.27-75.5,4.24-112.87,8.46-33.68,7.26-74.2-.66-99.33,26.63ZM601.6,5.87c-18.32-5.2-8.08,88.6-13.15,105.28,1.28,15.77-12.56,92.5,15.11,76.78,1.03-41.26,3.11-83.47,4.92-125.11-3.21-12.91,10.98-60.18-6.88-56.95ZM409.74,221.02c-14.95,8.73-17.5,22.56-16.03,38.96-.5,38.48-.19,76.98,1.8,115.42,1.7,8.15,15.71,1.56,21.93,2.58,4.73-1.89-.11-11.05.7-15.41-3.85-47.09-5.56-94.39-8.4-141.54ZM190.53,644.11c1.66-17.17-28.63-25.08-40.53-37.24-14.4-8.89-28.06-19.7-42.7-27.94-10.2,1.57-33.11-5.53-37.07.77,32.79,26.67,68.24,49.75,103.38,73.16,17.08,11.27,17.93,13.11,16.91-8.75ZM220.78,11.57c-7.77.2-20.11-4.74-24.99,2.42-22.42,20.79-40.74,45.71-62.42,67.32-12.53,12.78-23.51,26.89-35.27,40.36-2.95,2.82,13.96,12.56,15.51,9.55,34.65-40.85,70.93-80.26,107.17-119.65ZM571.95,188.11c13.11,3.57,2.13-32.29,5.19-41.65,1.01-27.27,4.43-54.38,2.88-81.69-.99-18.25,9.07-43.56,2-58.53-5.13,1.7-13.15.1-16.72,4.05-1.52,28.53-.56,57.15-.63,85.71,4.55,16.29-10.04,92.99,7.28,92.11ZM420.98,564.8c-15.59-2.84-.36,65.13-3.14,78.89,1.39,11.49,2.8,131.84,20.68,89.28-7.92-23.58,1.46-175.95-17.54-168.16ZM398.37,564.91c-14.23-.79-3.38,35.93-6.01,46.87-.26,42.92,6.18,85.32,8.28,128.13.42,4.58,14.18,3.07,14.05-.87-1.23-27.53-4.42-54.94-5.15-82.51-5.16-17.18,2.77-90.51-11.17-91.62ZM257.88,747.21c0-.19,0-.39,0-.58,3.28,0,6.56.05,9.84-.05.58-.02,1.49-.57,1.65-1.07.66-2.07,2.27-2.74,4.09-3.4,28.76-10.54,53.42-29.94,80.78-43.61,3.55-2.42,3.31-28.97-.71-28.04-38.13,22.78-74.46,49.25-112.45,71.92-1.94.68-1.53,2.47-1.64,3.77-.13,1.63,1.42,1.06,2.37,1.06,5.36.02,10.72,0,16.08,0ZM348.22,567.57c-33.23-3.93-48.41,1.27-72.68,24.6-16.54,15.18-44.1,25.84-37.57,52.18,35.54-18.09,74.04-52.73,110.26-76.78ZM476.48,210.34c-5.39-.19-3.86,12.17-1.87,14.38,22.93,5.13,45.91,10.02,69.09,13.87,17.28,3.06,34.6,5.97,52.06,7.76,17.17,5.05,31.7,3.03,43.54-11.19-54.72-5.22-109.13-11.54-162.82-24.82ZM641.98,192.64c9.96,1.96,3.66-12.02,4.75-17.83-1.8-27.31,1.16-54.78,1.67-82.14-2.27-22.25,10.19-70.85-2.76-85.65-12.62-2.81-5.5,16.88-7.76,24.37,2.94,21.89-15.06,165.43,4.11,161.25ZM555.2,8.96c-21.38-4.83-10.23,23.51-12.31,36.56-.03,20.93-1.11,41.85-1.42,62.77,2.95,14.59-9.24,84.23,9.74,78.75,9.59-54.2,1.27-120.04,3.99-178.09ZM229.67,454.37c-35.76,1.62-23.18,6.58-11.04,31.47,9.22,17.5,18.76,34.88,29.82,51.3,6.59,5.67,17.22-7.72,20.49-12.57-12.85-23.39-24.3-48.31-39.27-70.19ZM231.8,540.24c9.96-.36,1.06-7.48-1.29-13.35-12.81-21.74-23.83-44.42-36.53-66.21-30.61.47-33.23-1.59-15.61,25.58,8.99,18.35,24.8,34.74,31.1,53.52,6.35,1.92,15.17-.37,22.33.46ZM242.02,549.52c-71.17-.24-145.31,6.42-217.29,10.45-29.51,16.81,72.47,1.24,82.91,4.4,33.56.67,67.01-1.19,100.51-2.85,13.6,1.1,24.81-1.2,33.87-12.01ZM618.1,20.89c-1.09,55.12-5.5,117.63-5.36,169.64,3.42-.24,8.31,1.65,11.07-.45-.2-6.6,4.55-15.27-3.66-17.2-2.27-5.41,5.64-3.63,5.41-7.6.66-17.26.95-34.53,1.32-51.8.76-34.9,3.99-69.8,2.86-104.72-10.28-8.43-12.35,2.5-11.65,12.13ZM568.37,737.75c13.55,4.86-6.11-82.56-5.5-94.74-33.8-46.23-16.08,11.51-15.54,34.6,1.92,19.57,3.05,39.18,3.7,58.77,1.93,5.37,12.12.29,17.34,1.36ZM517.93,639.53c2.15,32.53,6.2,64.78,8.08,97.32.24,3.76,17.51,3.32,16.72-.35-4.67-40.44-5.27-81.27-11.38-121.57-23.21-27.98-12.08,8.24-13.42,24.6ZM135.29,12.2c-2.83,2.21-10.19-1.55-13.26,2.03-7.61,13.03-19.93,23.14-29.35,35.01-11.86,16.27-34.12,31.36-40.96,48.24,4.27,1.47,8.78,6.96,13.31,5.52,13.78-13.39,27.33-27.01,40.55-40.94,6.33-9.91,61.46-56.36,29.71-49.86ZM274.59,26.48c57.36-2.61,122.2,2.71,177.87-7.6,4.68-19.72-67.86-.76-82.08-4.44-27.68-4.91-55.81-2.17-83.73-2.41-4.33,3.22-7.28,10.45-12.06,14.45ZM498.28,134.27c3.19,13.71-6.19,59.17,12.63,46.5,1.26-56.6,1.02-113.16,2.72-169.77-22.38-15.17-9.32,34.26-12.03,46.51.24,24.05-3.18,53.65-3.32,76.76ZM183.78,11.31c-32.85-7.34-48.08,40.47-72.45,58.46-12.02,13.06-24.34,25.83-36.8,38.47-2.17,3.08,12.04,10.59,14.12,7.76,31.59-35.04,63.46-69.7,95.13-104.69ZM111,13.92c-8.68-.13-24.43-2.45-31.88,1.74-10.62,17.25-27.24,31.64-39.84,47.95-13.71,13.76-22.44,22.3,2.44,26.54,23.55-24.98,46.71-50.36,69.28-76.23ZM533.56,15.83c-17.28-42.07-11.62,90.18-12.35,100.03,3.16,14.36-10.4,72.6,9.15,69.07,3.95-54.44,1.51-113.24,3.19-169.1ZM385.09,245.82c-25.34,19.24-11.8,72.18-15.35,102.18.58,14.36-6.15,43.02,16.11,29.99.09-44.09-1.39-88.02-.76-132.17ZM472.78,253.98c27.58.42,122.42,30.26,135.36,5.29-29.08-4.65-59.4-7.71-88.58-13.87-14.73-2.51-29.53-4.55-44.32-6.65-5.19.57-1.73,11.19-2.46,15.23ZM491.58,23.7c-1.18-4.33,1.48-12.13-2.62-15.25-5.59-1.26-7.12.05-7.22,5.73.16,19.29-2.47,38.48-1.55,57.75,1.94,35.04-9.88,72.91-1.42,106.48,18.55,7.76,8.12-21.53,9.94-31.96-.16-40.97,4.58-81.74,2.87-122.75ZM473.26,265.13c-8.01,17.57,16.64,13.9,26.48,20.8,18.59,9.39,43.46,6.63,60.66,12.35,5.11-6.63,21.11-12.71,21.22-19.32-36.74-2.2-71.72-9.98-108.35-13.84ZM466.88,9.22c-12.87-4.27-4.48,51.31-7.53,62.2,1.36,33.8-6.81,73.7.81,104.61,8.9,2.04,4.48-16.31,6.4-22.41-.59-25.99,4.23-51.57,4.04-77.5-3.91-12.14,8.63-68.01-3.72-66.91ZM668.04,582.07c19.56,15.43,41.26,29.67,62.71,42.63,5.57,1.34,3.92-21.07-1.5-22.59-17.37-11.46-35.14-23.49-52.6-34.25-6.97-6.4-24.16-.06-34.55-1.82-10.29.96,21.46,15.74,25.94,16.03ZM192.43,541.92c17.98.67-33.68-63.7-37.54-75.47-2.69-2.45-22.91.3-15.94,7.02,11.89,17.67,30.4,74.56,53.48,68.46ZM219.5,719.01c-.73,6.14,1.03,14.56,1.34,21.42.66,6.31.81,6.29,7.02,6.56.15,0,.3.02.45.02,1.54.05,2.1-.63,1.97-2.21-.22-2.6-.28-5.21-.32-7.81-1.22-40.13-.74-80.35-2.25-120.62-3.32-10.83,10.47-48.44-5.35-45.1-6.79,43.07-2.28,100.14-2.84,147.74ZM161.08,542.91c14.43.74-17.68-32.76-18.64-41.39-13.02-18.21-7.89-43.27-31.51-18.42-4.14,5.76,5.55,13.82,7.34,19.89,6.31,13.73,17.77,25.88,24.21,37.93-.22,6.16,14.2.69,18.6,2ZM11,679.58c-11.09,21.71,14.94,36.27,30.92,48.27,8.47,5.81,17.1,11.37,25.73,16.93,1.38.89,3.15,1.64,4.74,1.65,7.35.05,14.7-.19,22.06-.32.3,0,.64.04.88-.08.49-.24.93-.57,1.4-.87-.35-.44-.61-1-1.05-1.29-2.17-1.43-4.4-2.76-6.58-4.19-27.73-17.63-54.47-37.25-78.1-60.11ZM210.43,591.2c-.56-9.27,4.31-23.22-10.01-17.85-1.72.08-2.12.67-1.75,2.18.92,53.43,1.57,107.47,5.4,160.73,1.39,2.83,1.41,5.36.41,8.16-.22.61-.05,1.37-.05,2.06.71,0,1.69.29,2.08-.07.73-.66,1.51-1.67,1.57-2.59.34-4.98.47-9.96.65-14.95-.53-45.91,1.9-91.75,1.7-137.67ZM262.98,450.79c-5.92,2.1-19.23-1.25-20.36,4.59,5.03,12.29,12.13,23.55,18.61,35.11,11.56,15.53,13.26,41.6,31.12,14.59-8.68-18.42-18.11-37.72-29.38-54.28ZM459.56,376.3c19.87-10.42-2.49-84.08,2.44-109.03.08-25.79-.1-51.6-.2-77.43.07-3.48.32-3.34-3.08-3.85-8.12,59.09-3.86,128.3.84,190.32ZM476.04,291.51c-4.78-.83-2.05,3.37-2.16,5.79-3.41,18.75,8.4,16.61,22.88,19.17,19.08,3.19,38.66,8.51,51.84-9.21-23.79-5.22-49.05-8.64-72.57-15.75ZM356.34,710.08c-14.29,6-27.49,15.02-40.64,23.32-6.57,3.73-13.46,6.9-20.2,10.34-.76.39-1.44.93-2.16,1.41.08.22.16.44.24.66.77.11,1.54.32,2.32.32,1.94,0,3.87-.15,5.81-.16,9.17-.02,18.34-.12,27.51.02,8.86.13,17.71.48,26.56.81,2.13.08,2.92-.39,3-2.56.07-2.08.09-4.17-.05-6.25-.67-9.38-1.24-18.53-2.38-27.91ZM589.2,661.49c.41-2.01-15.63-15.84-17.08-12.2,3.84,28.41,6.54,57.01,9.85,85.5.49,4.66,5.44.36,8.17.7,5.66-.34,5.98-.62,5.54-6.22-2.97-22.52-3.85-45.23-6.48-67.78ZM339.76,290.81c-4.59,2.5-15.18,8.74-14.08,15.03.12,24.88.17,49.89,2.68,74.69-.02,3.39,14.74,2.27,12.62-1.69-1.99-29.18.26-58.72-1.23-88.02ZM439.4,578.59c-2.11,10.61,12.93,4.47,19.31,5.85,14.35-2.96,37.23,3.35,47.51-4.59,2.87-19.13-18.38-11.62-30.4-13.54-13.64,2.65-43.55-10.76-36.43,12.29ZM361.95,270.17c-21.12,11.54-10.08,39.05-11.76,59.4,3.33,12.07-9.57,53.9,8.43,51.08,4.32-35.25,1.14-73.94,3.33-110.47ZM189.5,610.93c.93-10.47-2.75-16.95-12.69-21.17-14.53-12.16-31.42-16.15-49.72-11.14,16.28,13.33,34.56,25.74,52.65,36.97,8.36,5.93,10.86,6.79,9.76-4.66ZM599.59,673.46c.82,19.12,3.13,38.99,5.71,58.24,1.07,5.37,8.9,1.26,12.78,2.48,6.22.3,6.35.32,5.71-5.92-3.66-22.24.87-48.29-22.29-59.23-2.96-1.84-2.07,2.82-1.9,4.43ZM295.3,447.11c-33.49-.23-13,12.14-5.57,31.73,9.85,17.05,9.02,26.59,27.23,9.9,4.64-2.21-17.74-40.75-21.66-41.63ZM507.07,599.65c2.19-12.31-9.47-7.28-17.49-7.77-15.64.49-31.28.99-46.93,1.42-5.54,1.26-.61,10.71-1.57,15.01,10.62,5.92,28.16-2.84,41.23-.16,8.61-1.94,28.48,6.02,24.75-8.5ZM89.91,177.62c-15.84-12.32-37.64-22.16-55.21-34.08-5.05-1.26-16.64-14.23-18.91-7.46-5.08,16.05,12.95,18.91,23.12,27.52,15.58,11.59,31.39,17.8,50.99,14.02ZM701.7,145.01c10.34-.31,35.71,5.28,24.39-12.22-21.82-4.07-44.28-3.42-66.35-2.29-5.83-.1-2.76,7.64-3.76,11.41,6.62,7.88,33.72.79,45.72,3.1ZM682.81,100.37c12.41-1.68,32.02,3.75,43.71-2.06,2.87-11.06-3-11.75-12.5-11.29-18.01-.11-41.22-6.98-56.96-1.15-4.73,21.16,11.44,13.13,25.74,14.49ZM16.6,74.01c14.33-18.41,43.68-42.63,48.91-59.95-20.27-4.42-30.21,14.11-41.05,28.24-12.19,5.65-8.08,20.43-7.86,31.72ZM475.72,618.15c-8.28,2.28-26.2-1.48-33.92,4.53-2.84,16.06,11.58,11.03,22.41,11.5,13.67-1.95,33,2.81,43.81-3.25-.96-3.73,1.59-11.01-2.31-12.7-10.15,2.66-17.63-.62-29.98-.08ZM674.49,61.34c-8.44,1.76-19.57-3.15-16.99,11.06,17.98,7.37,46.23,4.81,67.53,5.82,3.1-.3,4.06-12.07.64-12.33-17.09-1.15-34.14-2.79-51.18-4.55ZM117.6,544.69c25.02,3.2,2.81-17.76-2.21-28.85-7.95-9.94-11.59-32.76-25.15-16.46,1.57,9.46,17.58,43.22,27.36,45.31ZM656.49,115.22c-2.42,12.72,33.97,1.71,43.89,6.44,10.53-.9,30.88,8.17,26.65-9.2-8.84-8.2-30.3-1.68-43.21-3.93-7.92,2.49-28.54-5.17-27.32,6.69ZM483.07,739.28c9.65-1.43,22.1,1.83,31.33-1.34,3.48-14.36-2.21-14.13-14.63-12.87-15.73,2.88-38.85-2.56-51.1,4.83-2.32,17.35,23.33,6.6,34.41,9.38ZM489.95,683.41c-10,4.03-55.95-5.23-42.23,14.2,20.77-.22,46.77,1.02,65.25-2.49,1.75-15.7-12.34-11.28-23.02-11.72ZM450.89,663.86c-1.62.44-7.84-1.48-7.15,2.5.77,4.34-1.86,9.9,4.71,9.33,14.33-1.41,54.56,3.46,62.21-4.47,2.72-18.86-45.71-5.69-59.77-7.37ZM661.66,25.44c-1.3.03-3.47-1.2-3.53,1.46-.97,15.69,30.28,6.48,41.41,10.71,10.27-.93,32.99,7.77,30.98-8.53.31-2.76,0-3.04-2.73-2.98-22.05.88-44.09,0-66.14-.66ZM344.76,468.44c-6.53-7.07-8.76-22.6-17.46-25.55-4.72,2.4-18.01-.2-18.31,5.24,15.87,24.66,9.31,43.31,35.76,20.31ZM668.73,42.17c-42.77,12.39,47.84,15.99,58,14.05,13-14.6-48.67-9.89-58-14.05ZM678.16,154.35c-7.17.41-32.54-3.8-18.69,8.36,22.87-.49,45.72.89,68.48,3.38,11.3-22.35-37.29-8.43-49.79-11.74ZM460.09,707.56c-5.25.49-15.2-2.01-12.99,6.72,10.04,8.34,51.88,1.7,66.79-.24-.96-17.41-41.01-4.24-53.79-6.48ZM712.34,20.03c3.93-1.84,17.82,1.89,17.6-5.57,0-2.74,1.15-5.34-2.8-4.67-22.76,2.11-45.55-.26-68.27-1.78-12.32,18.1,41.67,8.91,53.48,12.01ZM96.17,545.86c15.83,2.76-11.77-28.56-13.51-36.17-1.98-5.07-14.76,7.2-13.96,10.21,6.35,11.48,11.08,31.39,27.47,25.96ZM298.66,323.45c-3.9,3.92-13.32,7.26-11.25,13.68,1.59,15.42-2.38,31.56,1.81,46.67,19.47,14.26,6.98-49.18,9.43-60.36ZM675.83,171.69c-6.19.38-29.12-1.37-17.03,10.6,21.44-2.42,46.75,6.56,65.72-4.77,1.19-8.49-36.77-3.24-48.68-5.84ZM315.31,310.26c-15.82,12.73-3.79,43.16-7.25,62.42.35,5.85.09,13.68,8.17,10.94,5.62-20.47-1.11-49.82-.91-73.36ZM486.71,652.34c5.61,1.78,31.27,3.09,20.14-8.53-20.63-2.11-41.24-.82-61.81,1.4-10.1,16.24,32.71,5.69,41.66,7.13ZM733.99,574.75c1.04-1.23,1.79-8.99-1.4-9.36-13.29.76-27.09-2.08-40.09-.33,12.04,9.85,26.16,18.2,39.06,27.28,5.49.09,1.1-13.15,2.43-17.6ZM288.74,569.19c-15.8-5.49-28.6,6.4-39.73,16.74-7.3,5.61-14.32,11.46-10.86,21.51,16.74-12.72,34.24-24.83,50.59-38.25ZM476.47,343.28c9.32,14.49,28.54-.62,38.07-10.09-11.47-3.8-23.84-4.53-35.62-7.29-8.51-2.21-1.4,12.64-2.44,17.38ZM649.39,731.21c-3.38-15.37-3.81-32.54-19.81-40.02,1.66,13.25-.32,33.5,6.63,43.55,4.61-1.15,14.16,4.41,13.18-3.53ZM9,713.11c-.12,9.47-2.02,17.71,8.09,21.81,4.28,3.45,7.96,7.65,13.17,9.88.8.34,1.71,1.19,1.91,1.98.42,1.7,1.12,2.07,2.66,1.36.52-.24,1.17-.23,1.76-.26,4.46-.26,8.91-.49,13.37-.75,1.04-.06,2.07-.17,3.11-.25.11-.32.23-.65.34-.97-15.19-9.52-30-19.56-42.99-31.97-.38-.37-.94-.55-1.42-.83ZM278.29,341.39c-17.06,8.02-8.76,29.91-7.97,45.15,16.86,10.02,6.36-35.59,7.97-45.15ZM341.77,441.79c5.02,11.48,7.56,28,20.3,13.67,3.43-4.62-4.66-11.5-5.97-16.58-3.92-1.25-11.05.26-14.33,2.92ZM27.63,179.06c33.13,2.47,1.73-9.31-9.72-17.26-4.91-.35-1.58,11.36-3.05,15.18.83,4.48,9.2,1.05,12.78,2.08ZM242.53,372.61c-5.6,6.84-26.93,18.55-23.72,22.58,19.88-3.08,28.89,2.31,23.72-22.58ZM673.98,735.88c20.48,4.05-10.75-16.5-16.02-20.56-1.02,15.51-2.71,23.29,16.02,20.56ZM258.76,358.04c-11.17,6.03-6.84,17.28-6.95,27.7-.59,4.87,2.97,5.54,6.57,3.93,5.54-7.57,1.13-22.01.38-31.63ZM62.71,548.27c17.04,1.71,3.32-10.68-.71-18.71-2.76-4.02-2.97-4.21-6.82-.34-5.68,5.64,5.11,13.58,7.53,19.05ZM34.12,14.69c-15.81-.77-19.73-.8-17.78,16.42,3.66,5.76,13.96-12.39,17.78-16.42ZM657.6,192.96c11.18,2.61,33.27,9.21,42.73-.83-13.45-1.69-28.87-.16-42.73.83ZM389.05,434.71c-5.61-3.33-14.76,1.07-21.51.82-2.39,2.32,1.17,6.66,1.78,9.42,4.35,7.96,13.43-9.11,19.73-10.23ZM43.17,550.19c11.77,1.51,8.64-5.94,1.44-9.7-6.01,4.91-15.47,12.11-1.44,9.7ZM188.32,576.76c.23-4.94-9.55-.63-12.95-1.36-5.08.33,19.64,19.86,12.95,1.36ZM253.3,568.73c-9.95-.94-15.35,2.63-13.09,12.86,3.79-2.96,13.74-8.78,13.09-12.86ZM11.55,740.21c-.24.09-.48.18-.72.27.25,1.79.24,3.68.9,5.3.23.56,2.12.45,3.26.63,1.03.17,2.06.37,3.09.44.42.03.86-.25,1.68-.51-2.97-2.22-5.58-4.18-8.2-6.13ZM483.94,356.49c-3.62-3.18-7.39-2.61-5.94,2.91,1.76,2.01,4.15-2.13,5.94-2.91Z"/>
  <path d="M12.81,616.58c2.95-7.69-3.26-29.58,3.73-29.87,16.97,14.22,33.77,28.63,50.79,42.78,41.03,34.75,85.81,68.36,124.28,104.54.25,3.48-.02,6.99-.08,10.5-.03,1.81-.76,2.43-2.7,2.13-2.49-.39-5.05-.36-7.59-.45-5.89-.2-11.8-.1-17.64-.7-1.88-.19-3.65-2.06-5.33-3.34-33.33-24.14-65.54-49.61-96.78-76.48-15.61-15.25-42.36-29.33-48.67-49.12Z" fill="#fff"/>
  <path d="M247.08,60.6c41.51,6.7,90.94-.59,134.98,1.49,22.84-2.53,45.79-3.18,68.69-4.76,4.72,5.18-.02,18.57,1.29,26.38-59.45,13.86-126.47,7.24-188.7,8.48-46.19-.42-49.56,6.52-16.26-31.6Z" fill="#fff"/>
  <path d="M376.75,126.11c-60.41-2.3-120.35-.21-180.57,0-2.66-5.92,13.27-15.77,16.55-23.12,22.82-4.75,48.16.08,71.86-1.91,55.48-1.63,110.51,0,165.83-5.9,3.48,1.18,2.03,23.08-1.49,23.45-23.79,2.62-48.6,4.94-72.17,7.48Z" fill="#fff"/>
  <path d="M253.42,11.95c25.23-2.04,15.82,3.91,4.61,18.55-17.39,21.57-34.93,43.03-52.53,64.44-15.27,19.91-32.69,37.88-49.54,56.42-6.64,11.51-14.54,1.01-22.68-3.34-3.11-3.04-11.67-5.46-11.3-9.81,16.34-20.51,34.13-39.88,51.4-59.62,22.31-18.08,51.32-72.88,80.04-66.64Z" fill="#fff"/>
  <path d="M530.25,568.58c48.92-8.85,85.1,35.23,125.18,57.65,25.09,15.66,49.8,31.91,74.4,48.34,3.91,11.72-.12,26.46.82,39.15-63.81-40.19-133.4-102.23-200.39-145.14Z" fill="#fff"/>
  <path d="M730.22,730.04c-21.69,31.64-100.86-57.87-128.14-72.12-24.44-17.05-46.85-36.65-70.04-55.28-12.52-12.01-20-11.04-16.62-31.17,74.79,47.03,147.15,103.42,214.79,158.57Z" fill="#fff"/>
  <path d="M166.73,155.18c13.04-22.61,39.32-21.88,62.95-20.14,41.96-.22,84.23-4.26,126.18-1.67,30.67,2.67,61.22-3.33,91.79-5.25,3.38-.31,3.51-.11,3.4,3.25-.67,8.05,2.89,16.24-8.21,15.47-91.84,7.24-184.05,5.7-276.11,8.33Z" fill="#fff"/>
  <path d="M162.38,164.85c95.84-1.76,191.7-3.74,287.39-8.21,6.98,26.77-18.64,15.5-35.84,19.55-44.84,5.47-90,2.45-135.05,4.94-21.19,1.15-42.31-.99-63.52-.19-19.85,1.83-38.29-2.27-52.98-16.1Z" fill="#fff"/>
  <path d="M191.24,693.21c-1.5,6.82,3.28,23.27-2.2,25.2-14.99-13.24-30.55-25.8-45.84-38.68-36.01-33.5-88.47-66.95-116.31-100.82,39.82-6.07,64.39,36.62,98.07,52.2,20.11,14.84,41.79,27.45,61.67,42.57,8.51,1.75,2.23,13.98,4.61,19.54Z" fill="#fff"/>
  <path d="M424.94,402.04c-20.54,21.61-23.08,20.99-51.43,23.47-54.56,10.8-109.9,15.86-165.09,22.41-21.98,3.1-43.93,6.6-65.86,9.69,8.87-8.74,18.98-17.9,29.15-24.67,83.57-6.34,168.84-24.59,253.23-30.89Z" fill="#fff"/>
  <path d="M166.14,180.35c-32.14.86-62.71-.68-88.58-22-19.41-13.68-46.54-25.02-61.86-40.19,2.13-15.62-6.58-34.34,16.02-20.1,46.04,24.26,92.71,54.07,134.41,82.29Z" fill="#fff"/>
  <path d="M447.93,188.14c-1.04,43.67-3.82,87.35-1.47,131.03.26,17.41,2.2,34.67,2.8,52.06-.26,4.12-19.12,5.5-20.62,3.05-3.59-50.88-7.7-101.75-8.64-152.76-2.14-16.15,17.52-22.68,27.93-33.39Z" fill="#fff"/>
  <path d="M252.78,53.54c14.3-31.82,99.75-15.19,132.23-21.28,21.21-2.86,42.75-1.67,63.95-4.64,6.5-2.52,4.73,18.74,1.78,21.1-65.58,6.43-132.86,6.2-197.96,4.83Z" fill="#fff"/>
  <path d="M477.5,187.57c43.09,5.77,87.34,9.48,130.9,10.79,12.1,3.7,95.49-2.3,60.32,15.4-21.37,22.25-73.47,1.42-103.98,2.36-10.77-3.9-115.57-12.11-87.25-28.55Z" fill="#fff"/>
  <path d="M732.63,650.13c3.99,25.85-15.1,3.34-26.74-2.33-41.24-25.56-80.79-53.7-122.16-79.06,3.06-6.68,26.21-1.21,35.83-2.94,10.34,11.04,27.42,14.34,39.81,23.67,20.96,13.78,41.99,27.33,62.93,41.14,9.43,3.18,13,10.52,10.33,19.52Z" fill="#fff"/>
  <path d="M388.88,709.45c.43,10.42,1.2,20.84,1.43,31.27.01,2.17-1.04,3.23-3.22,3.47-4.67.52-9.33,1.13-13.98,1.78-1.59.22-2.57-.04-2.79-1.89-.9-7.77-2.16-15.51-2.76-23.3-1.36-42.46-4.26-84.91-3.99-127.41.76-18.54-7.62-35.33,18.55-25.9-.39,47.27,2.43,95.49,6.75,141.98Z" fill="#fff"/>
  <path d="M238.9,676.26c1.15-5.81-2.51-14.84,1.81-18.92,9.05-5.85,16.58-15.07,26.97-18.34,26.71-19.25,58.32-46.68,85.53-58.21-.8,9.29,3.21,21.07-1.28,29.15-16.7,11.02-33.45,21.95-49.81,33.49-17.51,12.93-35.83,24.55-52.9,38.13-10.57,9.58-9.82,5.69-10.33-5.3Z" fill="#fff"/>
  <path d="M239.47,730.94c-3.79-24.52.05-31.31,21.42-43.48,23.74-14.18,46.56-29.89,68.37-46.91,7.58-3.67,17.95-17.26,24.57-15.63-1.29,10.56,4.48,24.51-1.04,33.31-38.08,23.69-78.61,45.11-113.32,72.71Z" fill="#fff"/>
  <path d="M13.27,636.44c39.46,36.96,81.86,70.15,124.46,103.31,1.89,1.41,3.86,2.73,5.75,4.14.36.27.52.8.77,1.21-.44.2-.88.57-1.33.57-8.64.1-17.28.16-25.91.18-.71,0-1.52-.2-2.11-.59-5.71-3.75-11.36-7.58-17.06-11.34-26.61-16.87-52.07-35.79-74.69-57.77-16.13-8.27-11.15-24.51-9.88-39.72Z" fill="#fff"/>
  <path d="M183.02,421.95c25.13-27.29,65.66-19.37,99.33-26.64,37.37-4.22,74.4-7.18,112.86-8.45,16,.03,85.68-14.72,36.7,6.67-83.1,4.86-166.96,21.82-248.9,28.42Z" fill="#fff"/>
  <path d="M601.6,5.87c17.8-3.65,3.7,44.38,6.88,56.95-1.81,41.63-3.89,83.85-4.92,125.11-27.97,15.24-13.68-60.76-15.11-76.77,5.18-17.29-5.35-109.63,13.15-105.28Z" fill="#fff"/>
  <path d="M409.74,221.02c2.84,47.15,4.55,94.45,8.39,141.54-.78,4.45,4.02,13.42-.69,15.4-6.22-.9-20.23,5.46-21.93-2.57-1.99-38.44-2.3-76.94-1.81-115.42-1.46-16.34,1.08-30.29,16.03-38.95Z" fill="#fff"/>
  <path d="M190.53,644.11c-.51,5.87,1.09,12.53-.73,18.02-12.94-5.78-24.85-15.42-37.05-23.04-27.86-20.13-58.7-37.58-83.5-61.22,33.85-5.16,54.58,10.12,80.76,29,11.95,12.16,42.24,20.16,40.53,37.24Z" fill="#fff"/>
  <path d="M220.78,11.57c-36.24,39.4-72.52,78.8-107.17,119.65-2.11,3.41-17.99-7.15-15.51-9.55,11.76-13.48,22.74-27.58,35.27-40.36,21.68-21.61,40-46.53,62.42-67.32,4.94-7.22,17.17-2.17,24.99-2.42Z" fill="#fff"/>
  <path d="M571.95,188.11c-17.23,1.49-2.79-76.26-7.29-92.11.08-28.56-.88-57.18.64-85.71,3.57-4,11.59-2.3,16.71-4.06,7.07,14.99-2.98,40.28-1.99,58.53,1.55,27.32-1.87,54.42-2.89,81.69-2.97,9.3,7.79,45.59-5.19,41.65Z" fill="#fff"/>
  <path d="M420.98,564.8c18.88-8.43,9.7,145.16,17.54,168.16-17.87,42.64-19.3-77.85-20.68-89.27,2.82-14.26-12.52-81.05,3.14-78.89Z" fill="#fff"/>
  <path d="M398.37,564.91c13.77.15,6.13,75.13,11.18,91.62.73,27.57,3.92,54.98,5.15,82.51.16,4.38-13.66,5.02-14.05.88-2.1-42.81-8.54-85.21-8.28-128.13,2.65-11.21-8.25-47.37,6.01-46.88Z" fill="#fff"/>
  <path d="M257.88,747.21c-5.36,0-10.72,0-16.08,0-.95,0-2.5.57-2.37-1.06.1-1.3-.3-3.09,1.64-3.77,38-22.67,74.32-49.14,112.45-71.91,4.27-1.38,4,26.02.72,28.04-27.36,13.67-52.02,33.07-80.79,43.61-1.83.66-3.43,1.33-4.09,3.4-.16.5-1.07,1.06-1.65,1.07-3.28.1-6.56.05-9.84.05,0,.19,0,.39,0,.58Z" fill="#fff"/>
  <path d="M348.22,567.57c-36.18,24.03-74.75,58.72-110.26,76.79-6.52-26.35,21.03-37,37.57-52.19,24.2-23.3,39.58-28.55,72.69-24.6Z" fill="#fff"/>
  <path d="M476.48,210.34c53.69,13.29,108.1,19.6,162.82,24.82-11.9,14.21-26.32,16.25-43.54,11.19-17.46-1.79-34.77-4.7-52.06-7.76-23.18-3.85-46.16-8.74-69.08-13.87-2.52-1.81-2.87-15.03,1.86-14.38Z" fill="#fff"/>
  <path d="M641.98,192.64c-19.05,5.32-1.25-139.99-4.11-161.24,2.26-7.61-4.86-27.07,7.75-24.37,12.95,14.51.5,63.61,2.78,85.65-1.04,23.07-1.59,46.15-2.51,69.22-2.11,8.6,8.07,30.81-3.91,30.75Z" fill="#fff"/>
  <path d="M555.2,8.96c-2.72,58.01,5.6,123.92-3.98,178.09-19.02,5.49-6.79-64.31-9.75-78.75.31-20.93,1.4-41.84,1.42-62.77,2.07-13.08-9.07-41.37,12.31-36.56Z" fill="#fff"/>
  <path d="M229.67,454.37c14.98,21.89,26.43,46.8,39.27,70.19-3.22,4.94-13.95,18.16-20.49,12.58-11.07-16.43-20.6-33.8-29.83-51.31-12.08-24.81-24.76-29.87,11.04-31.46Z" fill="#fff"/>
  <path d="M231.8,540.24c-7.15-.82-15.98,1.46-22.33-.45-6.3-18.78-22.11-35.17-31.1-53.53-17.53-27.08-15.14-25.13,15.61-25.58,12.7,21.79,23.72,44.47,36.53,66.21,2.31,5.83,11.29,13.03,1.29,13.35Z" fill="#fff"/>
  <path d="M242.02,549.52c-15.38,21.59-104.09,12.04-134.37,14.86-10.99-3.17-111.84,12.42-82.92-4.41,71.97-4.03,146.13-10.69,217.29-10.45Z" fill="#fff"/>
  <path d="M623.82,190.08c-2.28,1.53-13.97,2.07-12.66-2.13.63-8.19.96-15.95,2.68-23.54.36-47.73,2.71-96.29,4.27-143.52-.7-9.34,1.35-20.71,11.66-12.13,1.12,34.92-2.1,69.82-2.86,104.72-.37,17.27-.66,34.54-1.32,51.8" fill="#fff"/>
  <path d="M568.37,737.75c-5.21-.99-15.41,3.92-17.34-1.36-.65-19.59-1.77-39.2-3.7-58.78-.53-23.07-18.29-80.87,15.53-34.61-.59,12.13,19.02,99.66,5.5,94.74Z" fill="#fff"/>
  <path d="M517.93,639.53c1.36-16.31-9.81-52.63,13.42-24.6,6.11,40.3,6.71,81.13,11.38,121.57.83,4.25-16.57,3.53-16.72.36-1.88-32.55-5.93-64.8-8.08-97.33Z" fill="#fff"/>
  <path d="M135.29,12.2c31.8-6.55-23.41,39.98-29.71,49.86-13.23,13.93-26.77,27.55-40.55,40.94-4.55,1.46-9.01-4.07-13.31-5.52,6.85-16.9,29.08-31.96,40.95-48.24,9.43-11.87,21.75-21.98,29.36-35.01,3.07-3.58,10.44.17,13.26-2.03Z" fill="#fff"/>
  <path d="M274.59,26.48c4.76-4,7.73-11.23,12.05-14.45,27.92.24,56.06-2.5,83.73,2.41,14.59,3.71,86.29-15.35,82.09,4.43-55.69,10.31-120.5,4.99-177.87,7.6Z" fill="#fff"/>
  <path d="M498.28,134.27c.14-23.15,3.56-52.67,3.32-76.76,2.61-12.25-10.17-61.92,12.03-46.51-1.7,56.6-1.46,113.17-2.72,169.77-18.78,12.78-9.47-32.96-12.63-46.5Z" fill="#fff"/>
  <path d="M183.78,11.31c-31.67,34.98-63.54,69.65-95.13,104.68-3.1,2.85-15.29-4.53-14.13-7.75,12.46-12.64,24.79-25.41,36.81-38.47,24.42-18.11,39.72-65.86,72.45-58.46Z" fill="#fff"/>
  <path d="M111,13.92c-22.57,25.87-45.73,51.25-69.28,76.23-24.81-4.28-16.24-12.69-2.43-26.54,12.59-16.3,29.21-30.7,39.84-47.94,7.46-4.22,23.18-1.86,31.88-1.75Z" fill="#fff"/>
  <path d="M533.56,15.83c-1.69,55.84.76,114.68-3.18,169.1-19.48,3.94-6.05-55.05-9.17-69.06.73-9.76-4.95-142.06,12.35-100.04Z" fill="#fff"/>
  <path d="M385.09,245.82c-.62,44.14.86,88.08.76,132.17-22.28,12.99-15.53-15.59-16.11-29.99,3.57-30.11-10.03-82.79,15.35-102.18Z" fill="#fff"/>
  <path d="M472.78,253.98c.58-4.06-2.57-14.63,2.46-15.23,14.79,2.1,29.6,4.14,44.33,6.65,29.18,6.16,59.5,9.22,88.58,13.86-12.71,24.95-107.89-4.84-135.36-5.29Z" fill="#fff"/>
  <path d="M491.58,23.7c1.7,41-3.03,81.77-2.87,122.75-1.52,7.81,5.62,32.56-3.36,33.2-5.23-.21-9.11-1.28-8.04-7.2-4.9-33.15,4.24-67.07,2.88-100.51-.92-19.27,1.71-38.46,1.55-57.76.1-5.67,1.63-6.99,7.22-5.73,4.11,3.08,1.44,10.95,2.62,15.25Z" fill="#fff"/>
  <path d="M473.26,265.13c36.62,3.86,71.61,11.63,108.35,13.83-.09,6.62-16.13,12.68-21.21,19.32-17.22-5.73-42.06-2.96-60.66-12.35-9.84-6.89-34.5-3.24-26.47-20.8Z" fill="#fff"/>
  <path d="M466.88,9.22c12.26-1.86-.13,55.35,3.73,66.91-2.49,12.45-.45,106.44-10.43,99.91-7.63-30.94.54-70.8-.82-104.61,3.14-11.42-5.48-65.83,7.53-62.21Z" fill="#fff"/>
  <path d="M668.04,582.07c-4.76-.43-35.91-14.89-25.95-16.02,10.36,1.75,27.6-4.56,34.56,1.81,17.46,10.77,35.23,22.79,52.59,34.25,5.7,1.76,6.83,23.68,1.51,22.58-21.46-12.96-43.16-27.19-62.72-42.63Z" fill="#fff"/>
  <path d="M192.43,541.92c-23,6.18-41.62-50.81-53.48-68.45-6.97-6.99,13.21-9.27,15.94-7.02,3.87,11.82,55.44,75.95,37.55,75.48Z" fill="#fff"/>
  <path d="M219.5,719.01c.56-47.55-3.95-104.71,2.83-147.74,15.79-3.6,2.07,34.48,5.37,45.1,1.51,40.27,1.03,80.48,2.25,120.62.05,2.61.11,5.22.32,7.81.13,1.58-.43,2.26-1.97,2.21-.15,0-.3-.01-.45-.02-6.21-.27-6.36-.25-7.02-6.56-.31-6.86-2.07-15.29-1.34-21.42Z" fill="#fff"/>
  <path d="M161.08,542.91c-4.36-1.24-18.84,4.1-18.6-1.99-6.44-12.06-17.89-24.2-24.2-37.94-1.82-6.09-11.45-14.09-7.35-19.88,23.62-24.84,18.48.17,31.51,18.42,1.01,8.71,33,42,18.64,41.39Z" fill="#fff"/>
  <path d="M11,679.58c23.63,22.86,50.37,42.48,78.1,60.11,2.17,1.42,4.41,2.75,6.58,4.19.44.29.71.85,1.05,1.29-.46.3-.9.63-1.4.87-.25.12-.59.07-.88.08-7.35.14-14.7.37-22.06.32-1.59-.01-3.36-.76-4.74-1.65-8.63-5.56-17.27-11.12-25.73-16.93-15.97-11.98-42.01-26.56-30.92-48.27Z" fill="#fff"/>
  <path d="M210.43,591.2c.19,45.92-2.23,91.76-1.7,137.67-.18,4.99-.31,9.97-.65,14.95-.06.91-.85,1.92-1.57,2.59-.39.36-1.37.07-2.08.07,0-.69-.17-1.45.05-2.06,1-2.8.99-5.33-.41-8.16-3.83-53.26-4.48-107.3-5.4-160.73-.37-1.51.03-2.1,1.75-2.18,14.32-5.31,9.45,8.53,10.01,17.85Z" fill="#fff"/>
  <path d="M262.98,450.79c11.27,16.56,20.7,35.87,29.38,54.28-17.86,27-19.55.97-31.12-14.59-6.48-11.55-13.58-22.81-18.61-35.1,1.11-5.89,14.45-2.45,20.35-4.59Z" fill="#fff"/>
  <path d="M459.56,376.3c-4.7-61.98-8.96-131.26-.84-190.32,3.4.51,3.16.37,3.09,3.85.1,25.83.28,51.64.2,77.43-4.98,25.43,17.51,97.97-2.44,109.03Z" fill="#fff"/>
  <path d="M476.04,291.51c23.52,7.12,48.78,10.53,72.57,15.75-13.2,17.72-32.76,12.4-51.85,9.21-14.44-2.56-26.32-.42-22.88-19.17.1-2.42-2.63-6.62,2.15-5.79Z" fill="#fff"/>
  <path d="M356.34,710.08c1.14,9.38,1.71,18.53,2.38,27.91.14,2.07.12,4.17.05,6.25-.08,2.16-.87,2.64-3,2.56-8.85-.33-17.71-.68-26.56-.81-9.17-.14-18.34-.04-27.51-.02-1.94,0-3.87.15-5.81.16-.77,0-1.54-.21-2.32-.32-.08-.22-.16-.44-.24-.66.72-.47,1.4-1.02,2.16-1.41,6.74-3.44,13.63-6.61,20.2-10.34,13.15-8.31,26.35-17.32,40.64-23.32Z" fill="#fff"/>
  <path d="M589.2,661.49c2.63,22.56,3.51,45.27,6.48,67.78.44,5.6.12,5.88-5.54,6.22-2.73-.31-7.68,3.93-8.17-.7-3.31-28.49-6-57.09-9.85-85.5,1.23-4.06,17.67,10.59,17.08,12.19Z" fill="#fff"/>
  <path d="M339.76,290.81c1.49,29.3-.77,58.84,1.22,88.02,2.11,4.29-12.65,4.76-12.62,1.69-2.51-24.8-2.57-49.81-2.68-74.69-1.11-6.34,9.49-12.47,14.08-15.03Z" fill="#fff"/>
  <path d="M439.4,578.59c.81-3.37-3.67-12.85,1.78-13.26,19.38.6,38.76,1.05,58.14,1.67,7.82-.6,6.18,7.48,6.91,12.84-.75,6.2-11.48,1.91-16.01,3.33-11.32-2.39-51.1,9.02-50.81-4.58Z" fill="#fff"/>
  <path d="M361.95,270.17c-2.19,36.52.99,75.24-3.32,110.47-17.97,2.97-5.12-39.12-8.44-51.07,1.68-20.35-9.37-47.85,11.76-59.4Z" fill="#fff"/>
  <path d="M189.5,610.93c1.05,11.38-1.32,10.66-9.76,4.66-18.09-11.22-36.38-23.64-52.65-36.97,18.32-5,35.18-1.02,49.73,11.15,9.91,4.22,13.64,10.7,12.69,21.16Z" fill="#fff"/>
  <path d="M599.59,673.46c-.17-1.63-1.06-6.27,1.9-4.44,23.16,10.95,18.63,36.99,22.29,59.24.64,6.24.51,6.22-5.71,5.92-3.88-1.18-11.71,2.85-12.78-2.47-2.57-19.24-4.88-39.13-5.71-58.24Z" fill="#fff"/>
  <path d="M295.3,447.11c3.98.94,26.12,39.1,21.66,41.63-18.23,16.68-17.37,7.19-27.24-9.9-7.42-19.59-27.92-31.95,5.57-31.73Z" fill="#fff"/>
  <path d="M507.07,599.65c3.73,14.52-16.14,6.56-24.75,8.5-13.07-2.68-30.62,6.08-41.23.17.91-4.3-3.91-13.75,1.57-15.02,15.65-.43,31.29-.93,46.93-1.42,8,.49,19.7-4.54,17.49,7.77Z" fill="#fff"/>
  <path d="M89.91,177.62c-19.62,3.77-35.4-2.43-50.99-14.03-10.16-8.6-28.2-11.47-23.12-27.51,2.19-6.84,13.92,6.25,18.9,7.45,17.56,11.92,39.38,21.77,55.21,34.08Z" fill="#fff"/>
  <path d="M701.7,145.01c-12.05-2.3-39.03,4.79-45.72-3.09.98-3.77-2.04-11.52,3.76-11.41,22.06-1.14,44.53-1.78,66.35,2.29,11.3,17.5-14.04,11.9-24.39,12.21Z" fill="#fff"/>
  <path d="M682.81,100.37c-14.27-1.37-30.5,6.66-25.74-14.49,15.76-5.84,38.93,1.03,56.96,1.14,9.43-.45,15.44.23,12.49,11.29-11.69,5.81-31.3.38-43.71,2.06Z" fill="#fff"/>
  <path d="M16.6,74.01c-.22-11.29-4.33-26.07,7.86-31.72,10.84-14.12,20.79-32.66,41.04-28.24-5.27,17.37-34.53,41.5-48.9,59.96Z" fill="#fff"/>
  <path d="M475.72,618.15c12.36-.55,19.83,2.74,29.98.08,3.93,1.68,1.33,8.97,2.32,12.69-10.82,6.07-30.13,1.31-43.82,3.26-10.79-.48-25.28,4.55-22.4-11.5,7.73-6.01,25.63-2.24,33.92-4.53Z" fill="#fff"/>
  <path d="M674.49,61.34c17.04,1.76,34.09,3.4,51.18,4.55,3.64.28,2.24,12.01-.63,12.33-21.28-1.01-49.58,1.54-67.54-5.82-2.52-14.22,8.5-9.32,16.99-11.07Z" fill="#fff"/>
  <path d="M117.6,544.69c-9.74-2.02-25.79-35.84-27.37-45.31,13.58-16.29,17.21,6.5,25.16,16.46,5.02,11.08,27.23,32.06,2.21,28.85Z" fill="#fff"/>
  <path d="M656.49,115.22c-1.26-11.87,19.43-4.19,27.32-6.69,12.92,2.25,34.38-4.26,43.22,3.93,4.22,17.37-16.13,8.3-26.65,9.2-10.01-4.74-46.18,6.3-43.89-6.44Z" fill="#fff"/>
  <path d="M483.07,739.28c-11.1-2.78-36.7,7.98-34.41-9.37,12.26-7.41,35.36-1.95,51.1-4.85,12.35-1.25,18.18-1.49,14.63,12.88-9.23,3.17-21.68-.09-31.33,1.34Z" fill="#fff"/>
  <path d="M489.95,683.41c11.49-.25,28.62-2.64,21.39,13.44-21.26-2.99-46.14,5.54-65.63-1.07-4.39-18.39,32.93-7.69,44.24-12.38Z" fill="#fff"/>
  <path d="M450.89,663.86c14.08,1.69,62.42-11.52,59.77,7.35-.49,6.45-12.58,2.25-17.37,3.71-14.99-.39-29.88,2.07-44.84.77-6.55.57-3.97-5-4.71-9.34-.7-3.97,5.53-2.06,7.15-2.5Z" fill="#fff"/>
  <path d="M661.66,25.44c22.05.65,44.08,1.54,66.14.66,2.74-.06,3.04.22,2.73,2.98,2.03,16.31-20.71,7.6-30.97,8.53-11.17-4.24-42.34,4.99-41.42-10.71.06-2.66,2.23-1.44,3.53-1.46Z" fill="#fff"/>
  <path d="M344.76,468.44c-26.42,22.93-19.81,4.57-35.76-20.31.27-5.47,13.61-2.81,18.3-5.24,8.7,2.95,10.92,18.47,17.46,25.55Z" fill="#fff"/>
  <path d="M668.73,42.17c9.38,4.19,70.89-.59,58,14.05-10.02,1.94-100.81-1.65-58-14.05Z" fill="#fff"/>
  <path d="M678.16,154.35c12.5,3.31,61.08-10.61,49.79,11.74-22.76-2.49-45.61-3.86-68.48-3.38-13.84-12.17,11.53-7.94,18.69-8.36Z" fill="#fff"/>
  <path d="M460.09,707.56c12.79,2.24,52.78-10.94,53.8,6.47-14.93,1.95-56.66,8.59-66.79.26-2.21-8.73,7.74-6.24,13-6.72Z" fill="#fff"/>
  <path d="M712.34,20.03c-11.8-3.11-65.76,6.1-53.48-12.01,22.73,1.51,45.51,3.88,68.27,1.77,3.92-.67,2.85,1.93,2.8,4.67.27,7.46-13.7,3.72-17.6,5.57Z" fill="#fff"/>
  <path d="M96.17,545.86c-16.4,5.42-21.12-14.48-27.47-25.96-.85-3.1,12.02-15.18,13.96-10.21,1.75,7.6,29.32,38.91,13.51,36.17Z" fill="#fff"/>
  <path d="M298.66,323.45c-2.47,11.15,10.05,74.59-9.43,60.36-4.2-15.11-.22-31.26-1.82-46.67-2.08-6.46,7.35-9.73,11.25-13.68Z" fill="#fff"/>
  <path d="M675.83,171.69c11.97,2.6,49.75-2.66,48.68,5.83-18.96,11.34-44.28,2.35-65.72,4.78-12.06-11.98,10.82-10.22,17.03-10.61Z" fill="#fff"/>
  <path d="M315.31,310.26c-.2,23.5,6.53,52.91.92,73.36-8.08,2.7-7.82-5.06-8.17-10.94,3.46-19.29-8.58-49.65,7.25-62.42Z" fill="#fff"/>
  <path d="M486.71,652.34c-8.94-1.43-51.74,9.11-41.67-7.13,20.57-2.23,41.18-3.52,61.81-1.4,11.1,11.62-14.51,10.31-20.14,8.53Z" fill="#fff"/>
  <path d="M733.99,574.75c-1.3,4.46,3.03,17.66-2.43,17.6-12.9-9.08-27.03-17.43-39.07-27.28,13.01-1.75,26.8,1.09,40.09.32,3.24.35,2.4,8.15,1.4,9.36Z" fill="#fff"/>
  <path d="M288.74,569.19c-16.35,13.42-33.85,25.53-50.59,38.25-3.44-10.07,3.55-15.89,10.86-21.51,11.11-10.33,23.95-22.24,39.73-16.74Z" fill="#fff"/>
  <path d="M476.47,343.28c1.01-4.74-6.04-19.58,2.44-17.38,11.78,2.76,24.15,3.49,35.63,7.29-9.51,9.46-28.77,24.59-38.07,10.09Z" fill="#fff"/>
  <path d="M649.39,731.21c.98,7.95-8.57,2.37-13.18,3.53-6.96-10.06-4.97-30.29-6.64-43.55,16.01,7.49,16.43,24.65,19.82,40.02Z" fill="#fff"/>
  <path d="M9,713.11c.48.28,1.04.47,1.42.83,12.99,12.41,27.79,22.45,42.99,31.97-.11.32-.23.65-.34.97-1.04.09-2.07.19-3.11.25-4.46.26-8.91.49-13.37.75-.59.03-1.24.02-1.76.26-1.54.71-2.24.34-2.66-1.36-.19-.78-1.11-1.64-1.91-1.98-5.21-2.23-8.9-6.43-13.17-9.88-10.11-4.1-8.21-12.35-8.09-21.81Z" fill="#fff"/>
  <path d="M278.29,341.39c-1.62,9.54,8.89,55.15-7.97,45.15-.79-15.24-9.09-37.14,7.97-45.15Z" fill="#fff"/>
  <path d="M341.77,441.79c3.27-2.67,10.41-4.15,14.33-2.92,1.32,5.08,9.39,11.97,5.98,16.59-12.75,14.33-15.29-2.2-20.31-13.67Z" fill="#fff"/>
  <path d="M27.63,179.06c-3.59-1.02-11.93,2.4-12.78-2.07,1.45-3.83-1.83-15.52,3.05-15.19,11.48,7.96,42.84,19.73,9.73,17.26Z" fill="#fff"/>
  <path d="M242.53,372.61c5.17,24.91-3.87,19.48-23.72,22.58-3.2-4.05,18.11-15.7,23.72-22.58Z" fill="#fff"/>
  <path d="M673.98,735.88c-18.72,2.75-17.04-5.08-16.02-20.56,5.24,4.03,36.51,24.62,16.02,20.56Z" fill="#fff"/>
  <path d="M258.76,358.04c.75,9.61,5.16,24.07-.38,31.64-3.59,1.59-7.16.97-6.57-3.93.11-10.42-4.22-21.67,6.95-27.7Z" fill="#fff"/>
  <path d="M62.71,548.27c-2.42-5.48-13.2-13.4-7.53-19.05,3.85-3.87,4.06-3.68,6.82.34,4.03,8.03,17.74,20.42.71,18.71Z" fill="#fff"/>
  <path d="M34.12,14.69c-3.8,4.02-14.12,22.17-17.78,16.42-1.96-17.23,1.99-17.19,17.78-16.42Z" fill="#fff"/>
  <path d="M657.6,192.96c13.86-.99,29.29-2.52,42.73-.84-9.45,10.05-31.56,3.45-42.73.84Z" fill="#fff"/>
  <path d="M389.05,434.71c-6.29,1.12-15.37,18.18-19.73,10.23-.63-2.75-4.17-7.1-1.78-9.42,6.75.25,15.9-4.14,21.51-.82Z" fill="#fff"/>
  <path d="M43.17,550.19c-14.03,2.41-4.57-4.8,1.44-9.7,7.21,3.77,10.34,11.2-1.44,9.7Z" fill="#fff"/>
  <path d="M188.32,576.76c4.39,14.96-9.21,4.36-14.64-.64,3.41-.55,14.62-4.07,14.64.64Z" fill="#fff"/>
  <path d="M253.3,568.73c.65,4.09-9.29,9.89-13.09,12.86-2.26-10.24,3.14-13.8,13.09-12.86Z" fill="#fff"/>
  <path d="M11.55,740.21c2.62,1.96,5.24,3.92,8.2,6.13-.81.26-1.26.54-1.68.51-1.04-.07-2.06-.28-3.09-.44-1.13-.18-3.03-.07-3.26-.63-.66-1.62-.65-3.52-.9-5.3.24-.09.48-.18.72-.27Z" fill="#fff"/>
  <path d="M483.94,356.49c-1.79.78-4.19,4.93-5.94,2.91-1.44-5.53,2.33-6.09,5.94-2.91Z" fill="#fff"/>
</svg>