<?xml version="1.0" encoding="UTF-8" standalone="no"?><!DOCTYPE svg PUBLIC "-//W3C//DTD SVG 1.1//EN" "http://www.w3.org/Graphics/SVG/1.1/DTD/svg11.dtd"><svg width="100%" height="100%" viewBox="0 0 3840 2160" version="1.1" xmlns="http://www.w3.org/2000/svg" xmlns:xlink="http://www.w3.org/1999/xlink" xml:space="preserve" xmlns:serif="http://www.serif.com/" style="fill-rule:evenodd;clip-rule:evenodd;stroke-linejoin:round;stroke-miterlimit:2;"><g><g><path d="M3218.421,1973.806l-0.363,-0.136c93.568,-285.611 141.034,-584.167 141.034,-887.401c0,-303.234 -48.874,-610.648 -145.258,-900.165l0.363,-0.136c96.385,289.517 145.258,592.434 145.258,900.256c0,307.822 -47.466,601.927 -141.034,887.537l0,0.045Z" style="fill:#e63323;fill-rule:nonzero;stroke:#e63323;stroke-width:0.8px;"/><path d="M3161.78,1973.806l-0.409,-0.136c95.476,-285.293 143.896,-583.849 143.896,-887.401c0,-303.552 -49.873,-611.011 -148.165,-900.119l0.409,-0.136c98.338,289.154 148.211,592.07 148.211,900.256c0,308.185 -48.419,602.199 -143.941,887.537Z" style="fill:#e63323;fill-rule:nonzero;stroke:#e63323;stroke-width:0.8px;"/><path d="M3105.049,1973.806l-0.409,-0.136c97.475,-284.975 146.893,-583.531 146.893,-887.401c0,-303.87 -50.918,-611.284 -151.299,-900.119l0.409,-0.136c100.427,288.881 151.345,591.798 151.345,900.301c0,308.503 -49.419,602.517 -146.939,887.537l-0,-0.045Z" style="fill:#e63323;fill-rule:nonzero;stroke:#e63323;stroke-width:0.8px;"/><path d="M3048.226,1973.851l-0.454,-0.182c99.564,-284.612 150.027,-583.168 150.027,-887.401c0,-304.234 -52.008,-611.692 -154.524,-900.119l0.454,-0.182c102.562,288.472 154.57,591.389 154.57,900.301c0,308.912 -50.509,602.881 -150.073,887.537l-0,0.045Z" style="fill:#e63323;fill-rule:nonzero;stroke:#e63323;stroke-width:0.8px;"/><path d="M2991.177,1973.851l-0.5,-0.182c101.744,-284.294 153.343,-582.85 153.343,-887.401c0,-304.552 -53.143,-612.101 -157.885,-900.119l0.5,-0.182c104.788,288.109 157.931,590.98 157.931,900.301c0,309.321 -51.599,603.244 -153.389,887.583Z" style="fill:#e63323;fill-rule:nonzero;stroke:#e63323;stroke-width:0.8px;"/><path d="M2934.082,1973.851l-0.545,-0.182c103.97,-283.794 156.704,-582.35 156.704,-887.401c0,-305.051 -54.324,-612.464 -161.474,-900.119l0.545,-0.182c107.149,287.746 161.519,590.617 161.519,900.301c0,309.684 -52.734,603.698 -156.75,887.583Z" style="fill:#e63323;fill-rule:nonzero;stroke:#e63323;stroke-width:0.8px;"/><path d="M2876.669,1974.033l-1.045,0l0,-0.59l0.636,0c106.332,-283.385 160.293,-581.896 160.293,-887.174c0,-305.278 -54.233,-605.515 -161.201,-889.672l0.545,-0.227c106.968,284.157 161.247,583.576 161.247,889.854c0,306.278 -53.961,604.061 -160.384,887.583l-0.091,0.182l0,0.045Z" style="fill:#e63323;fill-rule:nonzero;stroke:#e63323;stroke-width:0.8px;"/><path d="M2875.897,1809.425l-0.59,-0.182c71.312,-233.467 107.467,-476.745 107.467,-722.975c0,-246.23 -36.156,-489.508 -107.467,-722.975l0.59,-0.182c71.312,233.512 107.513,476.836 107.513,723.157c0,246.321 -36.156,489.645 -107.513,723.157Z" style="fill:#e63323;fill-rule:nonzero;stroke:#e63323;stroke-width:0.8px;"/></g><g><clipPath id="_clip1"><path d="M2727.823,1282.807c-15.534,-38.109 -36.201,-145.712 -36.201,-236.01l0,-269.486c0,-213.073 -88.89,-317.497 -311.819,-317.497c-203.171,0 -321.721,69.132 -390.853,131.223l114.281,158.022c63.499,-45.149 145.349,-81.85 232.831,-81.85c64.907,0 83.258,26.799 83.258,63.499l0,9.856c-211.347,9.629 -351.336,60.456 -419.196,145.349c-1.59,-372.911 -214.98,-426.145 -364.008,-426.145c-129.134,0 -321.812,63.726 -380.36,263.627c-31.704,-174.646 -131.723,-263.627 -271.485,-263.627c-111.465,0 -179.188,63.499 -224.337,131.223l0,-404.979l-279.388,0l0,1382.723c0,310.411 210.256,392.261 388.036,392.261c209.439,0 306.278,-113.872 352.517,-222.657c65.225,172.102 232.513,222.657 375.5,222.657c182.004,0 403.571,-81.85 403.571,-392.261c0,-186.41 -77.762,-290.108 -179.006,-343.66c58.957,-14.762 114.008,-37.7 163.472,-69.722l-100.2,-169.332c-49.373,29.615 -138.263,69.132 -217.297,69.132c-79.034,0 -136.855,-23.983 -150.981,-122.775l455.488,0c-12.854,28.661 -19.395,60.229 -19.395,94.522c0,62 18.805,109.602 48.601,144.077l0,774.438l279.388,0l0,-488.191c36.701,-29.615 77.58,-53.597 125.591,-53.597c48.011,0 63.499,29.615 63.499,81.85l0,459.984l279.388,0l0,-551.69c0,-44.74 -7.54,-81.35 -20.894,-111.056l-0,0.091Zm-1967.89,-539.381c22.575,-23.983 69.132,-55.051 112.873,-55.051c93.114,0 114.281,71.948 114.281,165.107c0,107.24 -28.207,180.596 -111.465,180.596c-47.965,0 -77.625,-14.126 -115.689,-47.965l0,-242.687Zm235.647,902.981c-25.391,98.792 -77.625,121.366 -122.775,121.366c-93.114,0 -112.873,-87.482 -112.873,-197.538c0,-118.505 32.476,-194.722 115.689,-194.722c52.189,0 90.298,21.166 114.281,112.873l223.883,-70.131c-13.263,42.878 -20.758,92.705 -20.758,150.573c0,57.867 7.767,108.058 21.53,151.027l-218.977,-73.447Zm223.838,-244.641c-26.117,-70.994 -64.726,-136.356 -135.175,-178.461c84.938,-33.112 145.167,-111.374 169.831,-234.739c28.025,108.149 91.116,175.1 170.967,213.436c-88.254,30.66 -166.561,91.343 -205.623,199.764Zm377.181,366.007c-97.338,0 -124.183,-87.482 -124.183,-197.538c0,-118.505 32.476,-194.722 124.183,-194.722c91.706,0 124.183,84.666 124.183,194.722c0,119.958 -32.431,197.538 -124.183,197.538Zm-77.625,-994.732c16.942,-86.074 60.683,-118.505 115.689,-118.505c66.315,0 107.24,28.207 118.505,118.505l-234.239,0l0.045,0Zm900.346,110.056l0,107.24c-23.983,22.575 -63.499,43.741 -132.631,43.741c-35.293,0 -62.091,-16.942 -62.091,-53.597c0,-57.867 59.275,-93.114 194.722,-97.338l0,-0.045Zm-139.081,423.284l0,-82.804c55.414,-19.622 100.245,-54.915 139.035,-103.425c0,26.117 2.68,50.009 7.086,71.812c-75.899,26.072 -122.911,77.08 -146.121,114.372l0,0.045Z"/></clipPath><g clip-path="url(#_clip1)"><g><path d="M486.086,3362.252c-153.934,0 -307.777,-15.489 -457.259,-46.103c-145.667,-29.797 -288.972,-74.264 -425.873,-132.222c-134.448,-56.868 -264.126,-127.226 -385.402,-209.166c-120.14,-81.168 -233.104,-174.373 -335.802,-277.072c-102.653,-102.653 -195.903,-215.662 -277.026,-335.802c-81.941,-121.276 -152.344,-250.954 -209.212,-385.402c-57.913,-136.946 -102.38,-280.206 -132.222,-425.873c-30.569,-149.482 -46.103,-303.325 -46.103,-457.259c0,-153.934 15.489,-307.777 46.103,-457.259c29.797,-145.667 74.264,-288.972 132.222,-425.873c56.868,-134.448 127.226,-264.126 209.212,-385.402c81.168,-120.14 174.373,-233.104 277.026,-335.802c102.653,-102.653 215.662,-195.903 335.802,-277.026c121.276,-81.941 250.954,-152.344 385.402,-209.212c136.901,-57.913 280.206,-102.38 425.873,-132.222c149.482,-30.569 303.325,-46.103 457.259,-46.103c153.934,0 307.777,15.489 457.259,46.103c145.667,29.797 288.972,74.264 425.873,132.222c134.448,56.868 264.126,127.226 385.402,209.212c120.14,81.168 233.104,174.373 335.802,277.026c102.653,102.653 195.903,215.662 277.072,335.802c81.941,121.276 152.344,250.954 209.166,385.402c57.913,136.901 102.38,280.206 132.222,425.873c30.569,149.482 46.103,303.325 46.103,457.259c0,153.934 -15.489,307.777 -46.103,457.259c-29.797,145.667 -74.264,288.972 -132.222,425.873c-56.868,134.448 -127.226,264.126 -209.166,385.402c-81.168,120.14 -174.373,233.104 -277.072,335.802c-102.653,102.653 -215.662,195.903 -335.802,277.072c-121.276,81.941 -250.954,152.344 -385.402,209.166c-136.946,57.913 -280.206,102.38 -425.873,132.222c-149.482,30.569 -303.325,46.103 -457.259,46.103Zm0,-4537.07c-153.888,0 -307.686,15.489 -457.123,46.057c-145.622,29.797 -288.881,74.264 -425.782,132.177c-134.402,56.868 -264.036,127.226 -385.266,209.121c-120.095,81.123 -233.058,174.328 -335.711,276.981c-102.653,102.653 -195.812,215.571 -276.981,335.711c-81.941,121.276 -152.299,250.863 -209.121,385.266c-57.913,136.901 -102.38,280.16 -132.177,425.782c-30.569,149.437 -46.057,303.234 -46.057,457.123c0,153.888 15.489,307.686 46.057,457.123c29.797,145.622 74.264,288.881 132.177,425.782c56.868,134.402 127.226,264.036 209.121,385.311c81.123,120.095 174.328,233.058 276.981,335.665c102.653,102.653 215.571,195.812 335.711,276.981c121.276,81.941 250.863,152.299 385.266,209.121c136.901,57.913 280.16,102.38 425.782,132.177c149.437,30.569 303.234,46.057 457.123,46.057c153.888,0 307.686,-15.489 457.123,-46.057c145.622,-29.797 288.881,-74.264 425.782,-132.177c134.402,-56.868 264.036,-127.226 385.311,-209.121c120.095,-81.123 233.058,-174.328 335.665,-276.981c102.653,-102.653 195.812,-215.571 276.981,-335.665c81.941,-121.276 152.299,-250.909 209.121,-385.311c57.913,-136.901 102.38,-280.115 132.177,-425.782c30.569,-149.437 46.057,-303.234 46.057,-457.123c0,-153.888 -15.489,-307.686 -46.057,-457.123c-29.797,-145.622 -74.264,-288.881 -132.177,-425.782c-56.868,-134.402 -127.226,-264.036 -209.121,-385.266c-81.123,-120.095 -174.328,-233.058 -276.981,-335.711c-102.653,-102.653 -215.571,-195.812 -335.665,-276.981c-121.276,-81.941 -250.909,-152.299 -385.311,-209.121c-136.901,-57.913 -280.115,-102.38 -425.782,-132.177c-149.437,-30.569 -303.234,-46.057 -457.123,-46.057Z" style="fill:#e63323;fill-rule:nonzero;stroke:#e63323;stroke-width:0.8px;"/><path d="M486.086,2374.379c-706.351,0 -1280.979,-574.674 -1280.979,-1280.979c0,-706.305 574.628,-1280.979 1280.979,-1280.979c706.351,0 1280.979,574.674 1280.979,1280.979c0,706.305 -574.674,1280.979 -1280.979,1280.979Zm0,-2552.147c-700.9,0 -1271.123,570.222 -1271.123,1271.123c0,700.9 570.222,1271.123 1271.123,1271.123c700.9,0 1271.123,-570.222 1271.123,-1271.123c0,-700.9 -570.222,-1271.123 -1271.123,-1271.123Z" style="fill:#e63323;fill-rule:nonzero;stroke:#e63323;stroke-width:0.8px;"/><path d="M486.086,2327.821c-680.688,0 -1234.422,-553.78 -1234.422,-1234.422c0,-680.642 553.78,-1234.422 1234.422,-1234.422c680.642,0 1234.467,553.78 1234.467,1234.422c0,680.642 -553.78,1234.422 -1234.467,1234.422Zm-0,-2457.625c-674.465,0 -1223.157,548.693 -1223.157,1223.157c0,674.465 548.693,1223.157 1223.157,1223.157c674.465,0 1223.157,-548.693 1223.157,-1223.157c0,-674.465 -548.693,-1223.157 -1223.157,-1223.157Z" style="fill:#e63323;fill-rule:nonzero;stroke:#e63323;stroke-width:0.8px;"/><path d="M486.086,2281.264c-654.979,0 -1187.865,-532.886 -1187.865,-1187.91c0,-655.024 532.886,-1187.865 1187.865,-1187.865c654.979,0 1187.91,532.886 1187.91,1187.865c0,654.979 -532.886,1187.91 -1187.91,1187.91Zm-0,-2363.057c-647.984,0 -1175.192,527.163 -1175.192,1175.192c0,648.03 527.163,1175.192 1175.192,1175.192c648.03,0 1175.192,-527.208 1175.192,-1175.192c0,-647.984 -527.208,-1175.192 -1175.192,-1175.192Z" style="fill:#e63323;fill-rule:nonzero;stroke:#e63323;stroke-width:0.8px;"/><path d="M486.086,2188.15c-603.653,0 -1094.751,-491.098 -1094.751,-1094.796c0,-603.698 491.098,-1094.751 1094.751,-1094.751c603.653,0 1094.796,491.098 1094.796,1094.751c0,603.653 -491.098,1094.796 -1094.796,1094.796Zm0,-2174.013c-595.113,0 -1079.262,484.149 -1079.262,1079.262c0,595.113 484.149,1079.262 1079.262,1079.262c595.113,0 1079.262,-484.149 1079.262,-1079.262c0,-595.113 -484.149,-1079.262 -1079.262,-1079.262Z" style="fill:#e63323;fill-rule:nonzero;stroke:#e63323;stroke-width:0.8px;"/><path d="M486.086,2234.707c-629.316,0 -1141.308,-511.992 -1141.308,-1141.308c0,-629.316 511.992,-1141.308 1141.308,-1141.308c629.316,0 1141.308,511.992 1141.308,1141.308c0,629.316 -511.992,1141.308 -1141.308,1141.308Zm0,-2268.535c-621.549,0 -1127.227,505.678 -1127.227,1127.227c0,621.549 505.678,1127.227 1127.227,1127.227c621.549,0 1127.227,-505.678 1127.227,-1127.227c0,-621.549 -505.678,-1127.227 -1127.227,-1127.227Z" style="fill:#e63323;fill-rule:nonzero;stroke:#e63323;stroke-width:0.8px;"/><path d="M486.086,2655.811c-417.333,0 -809.73,-162.518 -1104.834,-457.622c-295.104,-295.104 -457.622,-687.455 -457.622,-1104.834c0,-417.379 162.518,-809.73 457.622,-1104.834c295.104,-295.104 687.455,-457.622 1104.834,-457.622c417.379,0 809.73,162.518 1104.834,457.622c295.104,295.104 457.622,687.455 457.622,1104.834c0,417.379 -162.518,809.73 -457.622,1104.834c-295.104,295.104 -687.455,457.622 -1104.834,457.622Zm0,-3119.236c-415.834,0 -806.778,161.928 -1100.837,455.987c-294.059,294.059 -455.987,685.003 -455.987,1100.837c0,415.834 161.928,806.778 455.987,1100.837c294.059,294.059 685.003,455.987 1100.837,455.987c415.834,0 806.778,-161.928 1100.837,-455.987c294.059,-294.059 455.987,-685.003 455.987,-1100.837c0,-415.834 -161.928,-806.778 -455.987,-1100.837c-294.059,-294.059 -685.003,-455.987 -1100.837,-455.987Z" style="fill:#e63323;fill-rule:nonzero;stroke:#e63323;stroke-width:0.8px;"/><path d="M486.086,2608.754c-404.752,0 -785.294,-157.613 -1071.54,-443.86c-286.201,-286.201 -443.86,-666.743 -443.86,-1071.54c0,-404.797 157.613,-785.294 443.86,-1071.54c286.201,-286.201 666.743,-443.86 1071.54,-443.86c404.797,0 785.294,157.613 1071.54,443.86c286.201,286.201 443.86,666.743 443.86,1071.54c0,404.797 -157.613,785.294 -443.86,1071.54c-286.201,286.201 -666.743,443.86 -1071.54,443.86Zm0,-3024.759c-403.162,0 -782.205,157.022 -1067.271,442.088c-285.066,285.066 -442.088,664.109 -442.088,1067.271c0,403.162 157.022,782.205 442.088,1067.271c285.066,285.066 664.109,442.088 1067.271,442.088c403.162,0 782.205,-157.022 1067.271,-442.088c285.066,-285.066 442.088,-664.109 442.088,-1067.271c0,-403.162 -157.022,-782.205 -442.088,-1067.271c-285.066,-285.066 -664.109,-442.088 -1067.271,-442.088Z" style="fill:#e63323;fill-rule:nonzero;stroke:#e63323;stroke-width:0.8px;"/><path d="M486.086,2561.652c-809.594,0 -1468.298,-658.658 -1468.298,-1468.298c0,-809.64 658.658,-1468.298 1468.298,-1468.298c809.64,0 1468.298,658.658 1468.298,1468.298c0,809.64 -658.658,1468.298 -1468.298,1468.298Zm0,-2930.191c-806.097,0 -1461.939,655.842 -1461.939,1461.939c0,806.097 655.842,1461.939 1461.939,1461.939c806.097,0 1461.939,-655.842 1461.939,-1461.939c0,-806.097 -655.842,-1461.939 -1461.939,-1461.939Z" style="fill:#e63323;fill-rule:nonzero;stroke:#e63323;stroke-width:0.8px;"/><path d="M486.086,2420.936c-732.014,0 -1327.536,-595.522 -1327.536,-1327.536c0,-732.014 595.522,-1327.536 1327.536,-1327.536c732.014,0 1327.536,595.522 1327.536,1327.536c0,732.014 -595.522,1327.536 -1327.536,1327.536Zm0,-2646.67c-727.336,0 -1319.088,591.752 -1319.088,1319.088c0,727.336 591.752,1319.088 1319.088,1319.088c727.336,0 1319.088,-591.752 1319.088,-1319.088c0,-727.336 -591.752,-1319.088 -1319.088,-1319.088Z" style="fill:#e63323;fill-rule:nonzero;stroke:#e63323;stroke-width:0.8px;"/><path d="M486.086,2514.549c-783.658,0 -1421.196,-637.537 -1421.196,-1421.196c0,-783.658 637.537,-1421.196 1421.196,-1421.196c783.658,0 1421.196,637.537 1421.196,1421.196c0,783.658 -637.537,1421.196 -1421.196,1421.196Zm0,-2835.669c-779.934,0 -1414.473,634.539 -1414.473,1414.519c0,779.979 634.539,1414.519 1414.473,1414.519c779.934,0 1414.519,-634.539 1414.519,-1414.519c0,-779.979 -634.539,-1414.519 -1414.519,-1414.519Z" style="fill:#e63323;fill-rule:nonzero;stroke:#e63323;stroke-width:0.8px;"/><path d="M486.086,2467.493c-757.677,0 -1374.093,-616.416 -1374.093,-1374.093c0,-757.677 616.416,-1374.093 1374.093,-1374.093c757.677,0 1374.093,616.416 1374.093,1374.093c0,757.677 -616.416,1374.093 -1374.093,1374.093Zm0,-2741.192c-753.771,0 -1367.053,613.282 -1367.053,1367.053c0,753.771 613.282,1367.053 1367.053,1367.053c753.771,0 1367.053,-613.282 1367.053,-1367.053c0,-753.771 -613.282,-1367.053 -1367.053,-1367.053Z" style="fill:#e63323;fill-rule:nonzero;stroke:#e63323;stroke-width:0.8px;"/><path d="M486.086,2938.333c-249.046,0 -490.689,-48.783 -718.16,-144.986c-219.704,-92.933 -417.015,-225.972 -586.438,-395.395c-169.422,-169.422 -302.462,-366.734 -395.395,-586.438c-96.203,-227.471 -144.986,-469.069 -144.986,-718.16c0,-249.092 48.783,-490.689 144.986,-718.16c92.933,-219.704 225.972,-417.015 395.395,-586.438c169.422,-169.422 366.734,-302.462 586.438,-395.395c227.471,-96.203 469.069,-144.986 718.16,-144.986c249.092,0 490.689,48.783 718.16,144.986c219.704,92.933 417.015,225.972 586.438,395.395c169.422,169.422 302.462,366.734 395.395,586.438c96.203,227.471 144.986,469.069 144.986,718.16c0,249.092 -48.783,490.689 -144.986,718.16c-92.933,219.704 -225.972,417.015 -395.395,586.438c-169.422,169.422 -366.734,302.462 -586.438,395.395c-227.471,96.203 -469.069,144.986 -718.16,144.986Zm0,-3686.369c-248.592,0 -489.735,48.692 -716.752,144.713c-219.295,92.751 -416.198,225.518 -585.302,394.623c-169.105,169.105 -301.872,366.052 -394.623,585.302c-96.021,227.017 -144.713,468.16 -144.713,716.752c0,248.592 48.692,489.735 144.713,716.752c92.751,219.295 225.518,416.198 394.623,585.302c169.105,169.105 366.052,301.872 585.302,394.623c227.017,96.021 468.16,144.713 716.752,144.713c248.592,0 489.735,-48.692 716.752,-144.713c219.295,-92.751 416.198,-225.518 585.302,-394.623c169.105,-169.105 301.872,-366.052 394.623,-585.302c96.021,-227.017 144.713,-468.16 144.713,-716.752c0,-248.592 -48.692,-489.735 -144.713,-716.752c-92.751,-219.295 -225.518,-416.198 -394.623,-585.302c-169.105,-169.105 -366.052,-301.872 -585.302,-394.623c-227.017,-96.021 -468.16,-144.713 -716.752,-144.713Z" style="fill:#e63323;fill-rule:nonzero;stroke:#e63323;stroke-width:0.8px;"/><path d="M486.086,2985.435c-255.405,0 -503.226,-50.009 -736.465,-148.665c-225.291,-95.294 -427.644,-231.695 -601.427,-405.478c-173.783,-173.783 -310.184,-376.091 -405.478,-601.427c-98.656,-233.24 -148.665,-481.06 -148.665,-736.465c0,-255.405 50.009,-503.226 148.665,-736.465c95.294,-225.291 231.741,-427.644 405.478,-601.427c173.783,-173.783 376.091,-310.184 601.427,-405.478c233.24,-98.656 481.06,-148.665 736.465,-148.665c255.405,0 503.226,50.009 736.465,148.665c225.291,95.294 427.644,231.741 601.427,405.478c173.783,173.783 310.184,376.091 405.478,601.427c98.656,233.24 148.665,481.06 148.665,736.465c0,255.405 -50.009,503.226 -148.665,736.465c-95.294,225.291 -231.695,427.644 -405.478,601.427c-173.783,173.783 -376.091,310.184 -601.427,405.478c-233.24,98.656 -481.06,148.665 -736.465,148.665Zm0,-3780.937c-254.997,0 -502.363,49.964 -735.239,148.438c-224.928,95.113 -426.917,231.332 -600.382,404.797c-173.465,173.465 -309.684,375.455 -404.797,600.382c-98.474,232.876 -148.438,480.242 -148.438,735.239c0,254.997 49.964,502.363 148.438,735.239c95.113,224.928 231.332,426.917 404.797,600.382c173.465,173.465 375.455,309.684 600.382,404.797c232.876,98.474 480.242,148.438 735.239,148.438c254.997,0 502.363,-49.964 735.239,-148.438c224.928,-95.113 426.917,-231.332 600.382,-404.797c173.465,-173.465 309.684,-375.455 404.797,-600.382c98.474,-232.876 148.438,-480.242 148.438,-735.239c0,-254.997 -49.964,-502.363 -148.438,-735.239c-95.113,-224.928 -231.332,-426.917 -404.797,-600.382c-173.465,-173.465 -375.455,-309.684 -600.382,-404.797c-232.876,-98.474 -480.242,-148.438 -735.239,-148.438Z" style="fill:#e63323;fill-rule:nonzero;stroke:#e63323;stroke-width:0.8px;"/><path d="M486.086,3032.492c-261.765,0 -515.717,-51.281 -754.816,-152.389c-230.923,-97.656 -438.273,-237.464 -616.371,-415.562c-178.098,-178.098 -317.906,-385.447 -415.562,-616.371c-101.108,-239.054 -152.389,-493.006 -152.389,-754.816c0,-261.81 51.281,-515.717 152.389,-754.816c97.656,-230.923 237.464,-438.273 415.562,-616.371c178.098,-178.098 385.447,-317.906 616.371,-415.562c239.054,-101.108 493.006,-152.389 754.816,-152.389c261.81,0 515.717,51.281 754.816,152.389c230.923,97.656 438.273,237.464 616.371,415.562c178.098,178.098 317.906,385.447 415.562,616.371c101.108,239.054 152.389,493.006 152.389,754.816c0,261.81 -51.281,515.717 -152.389,754.816c-97.656,230.923 -237.464,438.273 -415.562,616.371c-178.098,178.098 -385.447,317.906 -616.371,415.562c-239.054,101.108 -493.006,152.389 -754.816,152.389Zm0,-3875.414c-261.401,0 -514.99,51.19 -753.68,152.162c-230.56,97.52 -437.637,237.146 -615.462,414.971c-177.825,177.825 -317.451,384.902 -414.971,615.462c-100.972,238.736 -152.162,492.279 -152.162,753.68c0,261.401 51.19,514.99 152.162,753.68c97.52,230.56 237.146,437.637 414.971,615.462c177.825,177.825 384.902,317.451 615.462,414.971c238.736,100.972 492.279,152.162 753.68,152.162c261.401,0 514.99,-51.19 753.68,-152.162c230.56,-97.52 437.637,-237.146 615.462,-414.971c177.825,-177.825 317.451,-384.902 414.971,-615.462c100.972,-238.736 152.162,-492.279 152.162,-753.68c0,-261.401 -51.19,-514.99 -152.162,-753.68c-97.52,-230.56 -237.146,-437.637 -414.971,-615.462c-177.825,-177.825 -384.902,-317.451 -615.462,-414.971c-238.736,-100.972 -492.324,-152.162 -753.68,-152.162Z" style="fill:#e63323;fill-rule:nonzero;stroke:#e63323;stroke-width:0.8px;"/><path d="M486.086,2891.231c-242.687,0 -478.153,-47.556 -699.81,-141.307c-214.072,-90.571 -406.341,-220.204 -571.494,-385.311c-165.107,-165.107 -294.741,-357.377 -385.311,-571.494c-93.75,-221.657 -141.307,-457.123 -141.307,-699.81c0,-242.687 47.556,-478.153 141.307,-699.81c90.571,-214.072 220.204,-406.387 385.311,-571.494c165.107,-165.107 357.377,-294.741 571.494,-385.311c221.657,-93.75 457.123,-141.307 699.81,-141.307c242.687,0 478.153,47.556 699.81,141.307c214.072,90.571 406.341,220.204 571.494,385.311c165.107,165.107 294.741,357.377 385.311,571.494c93.75,221.657 141.307,457.123 141.307,699.81c0,242.687 -47.556,478.153 -141.307,699.81c-90.571,214.072 -220.204,406.341 -385.311,571.494c-165.107,165.153 -357.377,294.741 -571.494,385.311c-221.657,93.75 -457.123,141.307 -699.81,141.307Zm0,-3591.847c-242.188,0 -477.154,47.42 -698.311,140.989c-213.618,90.344 -405.478,219.704 -570.222,384.494c-164.744,164.744 -294.105,356.605 -384.448,570.222c-93.568,221.158 -140.989,456.123 -140.989,698.311c0,242.188 47.42,477.154 140.989,698.311c90.344,213.618 219.704,405.478 384.448,570.268c164.744,164.744 356.605,294.105 570.222,384.448c221.158,93.568 456.123,140.989 698.311,140.989c242.188,0 477.154,-47.42 698.311,-140.989c213.618,-90.344 405.478,-219.704 570.268,-384.448c164.744,-164.744 294.105,-356.605 384.448,-570.268c93.568,-221.158 140.989,-456.123 140.989,-698.311c0,-242.188 -47.42,-477.154 -140.989,-698.311c-90.344,-213.618 -219.704,-405.478 -384.448,-570.222c-164.744,-164.744 -356.605,-294.105 -570.268,-384.494c-221.158,-93.568 -456.123,-140.989 -698.311,-140.989Z" style="fill:#e63323;fill-rule:nonzero;stroke:#e63323;stroke-width:0.8px;"/><path d="M486.086,2844.174c-467.66,0 -907.296,-182.095 -1238.01,-512.81c-330.714,-330.714 -512.81,-770.35 -512.81,-1238.01c0,-467.66 182.095,-907.296 512.81,-1238.01c330.669,-330.669 770.35,-512.81 1238.01,-512.81c467.66,0 907.296,182.095 1238.01,512.81c330.669,330.669 512.81,770.35 512.81,1238.01c0,467.66 -182.095,907.296 -512.81,1238.01c-330.669,330.669 -770.35,512.81 -1238.01,512.81Zm0,-3497.37c-466.525,0 -905.116,181.686 -1235.013,511.538c-329.897,329.897 -511.538,768.488 -511.538,1235.013c0,466.525 181.686,905.116 511.538,1235.013c329.897,329.897 768.488,511.538 1235.013,511.538c466.525,0 905.116,-181.686 1235.013,-511.538c329.897,-329.897 511.538,-768.488 511.538,-1235.013c0,-466.525 -181.686,-905.116 -511.538,-1235.013c-329.897,-329.897 -768.488,-511.538 -1235.013,-511.538Z" style="fill:#e63323;fill-rule:nonzero;stroke:#e63323;stroke-width:0.8px;"/><path d="M486.086,2797.072c-455.079,0 -882.904,-177.235 -1204.716,-499.001c-321.766,-321.766 -499.001,-749.638 -499.001,-1204.716c0,-455.079 177.235,-882.904 499.001,-1204.716c321.766,-321.766 749.638,-499.001 1204.716,-499.001c455.079,0 882.904,177.235 1204.716,499.001c321.766,321.766 499.001,749.638 499.001,1204.716c0,455.079 -177.235,882.904 -499.001,1204.716c-321.766,321.812 -749.638,499.001 -1204.716,499.001Zm0,-3402.802c-453.852,0 -880.543,176.735 -1201.446,497.639c-320.903,320.903 -497.639,747.594 -497.639,1201.446c0,453.852 176.735,880.543 497.639,1201.446c320.949,320.903 747.594,497.639 1201.446,497.639c453.852,0 880.543,-176.735 1201.446,-497.639c320.903,-320.949 497.639,-747.594 497.639,-1201.446c0,-453.852 -176.735,-880.543 -497.639,-1201.446c-320.949,-320.903 -747.594,-497.639 -1201.446,-497.639Z" style="fill:#e63323;fill-rule:nonzero;stroke:#e63323;stroke-width:0.8px;"/><path d="M486.086,2749.969c-442.497,0 -858.513,-172.329 -1171.422,-485.193c-312.909,-312.909 -485.193,-728.925 -485.193,-1171.422c0,-442.497 172.329,-858.513 485.193,-1171.422c312.909,-312.909 728.925,-485.193 1171.422,-485.193c442.497,0 858.513,172.329 1171.422,485.193c312.909,312.909 485.193,728.925 485.193,1171.422c0,442.497 -172.329,858.513 -485.193,1171.422c-312.909,312.909 -728.925,485.193 -1171.422,485.193Zm0,-3308.28c-441.18,0 -855.97,171.83 -1167.925,483.785c-311.955,311.955 -483.785,726.745 -483.785,1167.925c0,441.18 171.784,855.97 483.785,1167.925c311.955,311.955 726.745,483.785 1167.925,483.785c441.18,0 855.97,-171.784 1167.925,-483.785c311.955,-311.955 483.785,-726.745 483.785,-1167.925c0,-441.18 -171.784,-855.97 -483.785,-1167.925c-311.955,-311.955 -726.745,-483.785 -1167.925,-483.785Z" style="fill:#e63323;fill-rule:nonzero;stroke:#e63323;stroke-width:0.8px;"/><path d="M486.086,2702.913c-429.915,0 -834.122,-167.424 -1138.128,-471.43c-304.007,-304.007 -471.43,-708.168 -471.43,-1138.128c0,-429.961 167.424,-834.122 471.43,-1138.128c304.007,-304.007 708.168,-471.43 1138.128,-471.43c429.961,0 834.122,167.424 1138.128,471.43c304.007,304.007 471.43,708.168 471.43,1138.128c0,429.961 -167.424,834.122 -471.43,1138.128c-304.007,304.007 -708.213,471.43 -1138.128,471.43Zm0,-3213.803c-428.507,0 -831.351,166.879 -1134.358,469.886c-303.007,303.007 -469.886,705.851 -469.886,1134.358c0,428.507 166.879,831.351 469.886,1134.358c303.007,303.007 705.851,469.886 1134.358,469.886c428.507,0 831.351,-166.879 1134.358,-469.886c303.007,-303.007 469.886,-705.851 469.886,-1134.358c0,-428.507 -166.879,-831.351 -469.886,-1134.358c-303.007,-303.007 -705.851,-469.886 -1134.358,-469.886Z" style="fill:#e63323;fill-rule:nonzero;stroke:#e63323;stroke-width:0.8px;"/><path d="M486.086,3456.775c-160.338,0 -320.585,-16.17 -476.291,-48.011c-151.753,-31.068 -301.009,-77.398 -443.632,-137.718c-140.035,-59.23 -275.118,-132.54 -401.436,-217.887c-125.136,-84.53 -242.824,-181.641 -349.792,-288.609c-106.922,-106.968 -204.034,-224.61 -288.609,-349.792c-85.347,-126.363 -158.658,-261.401 -217.887,-401.436c-60.32,-142.624 -106.65,-291.879 -137.718,-443.632c-31.841,-155.705 -48.011,-315.952 -48.011,-476.291c0,-160.338 16.17,-320.585 48.011,-476.291c31.068,-151.753 77.398,-301.009 137.718,-443.632c59.23,-140.035 132.54,-275.118 217.887,-401.436c84.53,-125.136 181.641,-242.824 288.609,-349.792c106.968,-106.922 224.61,-204.034 349.792,-288.609c126.363,-85.347 261.401,-158.658 401.436,-217.887c142.624,-60.32 291.879,-106.65 443.632,-137.718c155.705,-31.841 315.952,-48.011 476.291,-48.011c160.338,0 320.585,16.17 476.291,48.011c151.753,31.068 301.009,77.398 443.632,137.718c140.035,59.23 275.118,132.54 401.436,217.887c125.136,84.53 242.824,181.641 349.792,288.609c106.922,106.968 204.034,224.61 288.609,349.792c85.347,126.363 158.658,261.401 217.887,401.436c60.32,142.624 106.65,291.879 137.718,443.632c31.841,155.705 48.011,315.952 48.011,476.291c0,160.338 -16.17,320.585 -48.011,476.291c-31.068,151.753 -77.398,301.009 -137.718,443.632c-59.23,140.035 -132.54,275.118 -217.887,401.436c-84.53,125.136 -181.641,242.824 -288.609,349.792c-106.968,106.968 -224.655,204.034 -349.792,288.609c-126.363,85.347 -261.401,158.658 -401.436,217.887c-142.624,60.32 -291.879,106.65 -443.632,137.718c-155.705,31.841 -315.952,48.011 -476.291,48.011Zm0,-4726.16c-160.293,0 -320.54,16.17 -476.154,48.011c-151.708,31.023 -300.918,77.353 -443.496,137.673c-139.989,59.23 -275.028,132.495 -401.345,217.842c-125.091,84.53 -242.778,181.595 -349.701,288.518c-106.922,106.922 -203.988,224.564 -288.518,349.701c-85.347,126.317 -158.612,261.356 -217.842,401.345c-60.32,142.578 -106.65,291.788 -137.673,443.496c-31.841,155.66 -48.011,315.862 -48.011,476.154c0,160.293 16.17,320.54 48.011,476.2c31.023,151.708 77.353,300.918 137.673,443.496c59.23,139.989 132.495,275.028 217.842,401.345c84.53,125.091 181.595,242.733 288.518,349.701c106.922,106.922 224.564,203.988 349.701,288.518c126.317,85.347 261.356,158.612 401.345,217.842c142.578,60.32 291.788,106.65 443.496,137.673c155.66,31.841 315.862,48.011 476.154,48.011c160.293,0 320.54,-16.17 476.2,-48.011c151.708,-31.023 300.918,-77.353 443.496,-137.673c139.989,-59.23 275.028,-132.495 401.345,-217.842c125.091,-84.53 242.778,-181.595 349.701,-288.518c106.922,-106.922 203.988,-224.564 288.518,-349.701c85.347,-126.317 158.612,-261.356 217.842,-401.345c60.32,-142.578 106.65,-291.788 137.673,-443.496c31.841,-155.66 48.011,-315.862 48.011,-476.2c0,-160.338 -16.17,-320.54 -48.011,-476.154c-31.023,-151.708 -77.353,-300.918 -137.673,-443.496c-59.23,-139.989 -132.495,-275.028 -217.842,-401.345c-84.53,-125.091 -181.595,-242.778 -288.518,-349.701c-106.922,-106.922 -224.564,-203.988 -349.701,-288.518c-126.317,-85.347 -261.356,-158.612 -401.345,-217.842c-142.578,-60.32 -291.788,-106.65 -443.496,-137.673c-155.66,-31.841 -315.862,-48.011 -476.2,-48.011Z" style="fill:#e63323;fill-rule:nonzero;stroke:#e63323;stroke-width:0.8px;"/><path d="M486.086,3504.422c-325.491,0 -641.262,-63.726 -938.501,-189.453c-142.851,-60.411 -280.66,-135.22 -409.566,-222.293c-127.68,-86.256 -247.729,-185.32 -356.832,-294.423c-109.103,-109.103 -208.167,-229.152 -294.423,-356.832c-87.073,-128.906 -161.882,-266.67 -222.293,-409.566c-125.727,-297.239 -189.453,-613.01 -189.453,-938.501c0,-325.491 63.726,-641.262 189.453,-938.501c60.411,-142.851 135.22,-280.66 222.293,-409.566c86.256,-127.68 185.32,-247.729 294.423,-356.832c109.103,-109.103 229.152,-208.167 356.832,-294.423c128.906,-87.073 266.67,-161.882 409.566,-222.293c297.239,-125.727 613.01,-189.453 938.501,-189.453c325.491,0 641.262,63.726 938.501,189.453c142.851,60.411 280.66,135.22 409.566,222.293c127.68,86.256 247.729,185.32 356.832,294.423c109.103,109.103 208.167,229.152 294.423,356.832c87.073,128.906 161.882,266.67 222.293,409.566c125.727,297.239 189.453,613.01 189.453,938.501c0,325.491 -63.726,641.262 -189.453,938.501c-60.411,142.851 -135.22,280.66 -222.293,409.566c-86.256,127.68 -185.32,247.729 -294.423,356.832c-109.103,109.103 -229.152,208.167 -356.832,294.423c-128.906,87.073 -266.67,161.882 -409.566,222.293c-297.239,125.727 -613.01,189.453 -938.501,189.453Zm0,-4820.682c-325.309,0 -640.853,63.726 -937.91,189.363c-142.805,60.411 -280.478,135.129 -409.294,222.157c-127.589,86.21 -247.593,185.184 -356.605,294.241c-109.057,109.057 -208.031,229.016 -294.241,356.605c-87.028,128.816 -161.792,266.534 -222.157,409.294c-125.636,297.057 -189.363,612.646 -189.363,937.955c0,325.309 63.726,640.853 189.363,937.955c60.411,142.805 135.129,280.478 222.157,409.294c86.21,127.589 185.184,247.593 294.241,356.605c109.057,109.057 229.016,208.031 356.605,294.241c128.816,87.028 266.534,161.792 409.294,222.157c297.057,125.636 612.646,189.363 937.91,189.363c325.264,0 640.853,-63.726 937.955,-189.363c142.805,-60.411 280.478,-135.129 409.294,-222.157c127.589,-86.21 247.593,-185.184 356.605,-294.241c109.057,-109.057 208.031,-229.016 294.241,-356.605c87.028,-128.816 161.792,-266.534 222.157,-409.294c125.636,-297.057 189.363,-612.646 189.363,-937.955c0,-325.309 -63.726,-640.853 -189.363,-937.955c-60.411,-142.805 -135.129,-280.478 -222.157,-409.294c-86.21,-127.589 -185.184,-247.593 -294.241,-356.605c-109.057,-109.057 -229.016,-208.031 -356.605,-294.241c-128.816,-87.028 -266.534,-161.792 -409.294,-222.157c-297.057,-125.636 -612.646,-189.363 -937.955,-189.363Z" style="fill:#e63323;fill-rule:nonzero;stroke:#e63323;stroke-width:0.8px;"/><path d="M486.086,3409.491c-157.159,0 -314.181,-15.852 -466.797,-47.057c-148.71,-30.432 -294.968,-75.854 -434.775,-134.947c-137.264,-58.049 -269.622,-129.906 -393.442,-213.527c-122.638,-82.849 -237.964,-178.007 -342.797,-282.84c-104.788,-104.833 -199.946,-220.158 -282.84,-342.797c-83.667,-123.819 -155.478,-256.178 -213.527,-393.442c-59.139,-139.762 -104.515,-286.065 -134.947,-434.775c-31.205,-152.571 -47.057,-309.639 -47.057,-466.797c0,-157.159 15.852,-314.181 47.057,-466.797c30.432,-148.71 75.854,-294.968 134.947,-434.775c58.049,-137.219 129.906,-269.622 213.527,-393.442c82.849,-122.638 178.007,-237.964 282.84,-342.797c104.788,-104.788 220.158,-199.946 342.797,-282.84c123.819,-83.667 256.178,-155.478 393.442,-213.527c139.762,-59.139 286.065,-104.515 434.775,-134.947c152.571,-31.205 309.639,-47.057 466.797,-47.057c157.159,0 314.181,15.852 466.797,47.057c148.71,30.432 294.968,75.854 434.775,134.947c137.219,58.049 269.622,129.906 393.442,213.527c122.638,82.849 237.964,178.007 342.797,282.84c104.788,104.788 199.946,220.158 282.84,342.797c83.667,123.819 155.478,256.178 213.527,393.442c59.139,139.762 104.515,286.065 134.947,434.775c31.205,152.571 47.057,309.639 47.057,466.797c0,157.159 -15.852,314.181 -47.057,466.797c-30.432,148.71 -75.854,294.968 -134.947,434.775c-58.049,137.219 -129.906,269.622 -213.527,393.442c-82.849,122.638 -178.007,237.964 -282.84,342.797c-104.833,104.788 -220.158,199.946 -342.797,282.84c-123.819,83.667 -256.178,155.478 -393.442,213.527c-139.762,59.139 -286.065,104.515 -434.775,134.947c-152.571,31.205 -309.639,47.057 -466.797,47.057Zm0,-4631.592c-157.113,0 -314.09,15.807 -466.661,47.057c-148.665,30.432 -294.877,75.809 -434.639,134.902c-137.219,58.049 -269.532,129.86 -393.305,213.481c-122.593,82.849 -237.918,177.962 -342.706,282.749c-104.788,104.788 -199.9,220.068 -282.749,342.706c-83.621,123.774 -155.433,256.132 -213.481,393.305c-59.093,139.717 -104.515,285.974 -134.902,434.639c-31.205,152.526 -47.057,309.548 -47.057,466.661c0,157.113 15.807,314.09 47.057,466.661c30.432,148.665 75.809,294.922 134.902,434.639c58.003,137.219 129.86,269.532 213.481,393.305c82.849,122.593 177.962,237.918 282.749,342.706c104.788,104.788 220.068,199.9 342.706,282.749c123.774,83.621 256.132,155.478 393.305,213.481c139.717,59.093 285.974,104.515 434.639,134.902c152.526,31.205 309.548,47.057 466.661,47.057c157.113,0 314.09,-15.807 466.661,-47.057c148.665,-30.432 294.922,-75.809 434.639,-134.902c137.219,-58.003 269.532,-129.86 393.305,-213.481c122.593,-82.849 237.918,-177.962 342.706,-282.749c104.788,-104.788 199.9,-220.068 282.749,-342.706c83.621,-123.774 155.478,-256.132 213.481,-393.305c59.093,-139.717 104.515,-285.974 134.902,-434.639c31.205,-152.526 47.057,-309.548 47.057,-466.661c0,-157.113 -15.807,-314.09 -47.057,-466.661c-30.432,-148.665 -75.809,-294.922 -134.902,-434.639c-58.003,-137.219 -129.86,-269.532 -213.481,-393.305c-82.849,-122.593 -177.962,-237.918 -282.749,-342.706c-104.788,-104.788 -220.068,-199.9 -342.706,-282.749c-123.774,-83.621 -256.132,-155.433 -393.305,-213.481c-139.717,-59.093 -285.974,-104.515 -434.639,-134.902c-152.526,-31.205 -309.548,-47.057 -466.661,-47.057Z" style="fill:#e63323;fill-rule:nonzero;stroke:#e63323;stroke-width:0.8px;"/><path d="M486.086,3315.014c-150.754,0 -301.372,-15.171 -447.72,-45.149c-142.624,-29.206 -282.931,-72.72 -417.015,-129.451c-131.632,-55.687 -258.63,-124.591 -377.362,-204.851c-117.642,-79.488 -228.243,-170.74 -328.807,-271.303c-100.518,-100.518 -191.815,-211.165 -271.258,-328.807c-80.26,-118.777 -149.164,-245.731 -204.851,-377.362c-56.732,-134.084 -100.245,-274.392 -129.451,-417.015c-29.933,-146.348 -45.149,-297.012 -45.149,-447.72c0,-150.709 15.171,-301.372 45.149,-447.72c29.206,-142.624 72.72,-282.931 129.451,-417.015c55.687,-131.632 124.591,-258.63 204.851,-377.362c79.488,-117.642 170.74,-228.243 271.258,-328.807c100.518,-100.563 211.165,-191.815 328.807,-271.258c118.777,-80.26 245.731,-149.164 377.362,-204.851c134.084,-56.732 274.392,-100.245 417.015,-129.451c146.348,-29.933 297.012,-45.149 447.72,-45.149c150.709,0 301.372,15.171 447.72,45.149c142.624,29.206 282.931,72.72 417.015,129.451c131.632,55.687 258.63,124.591 377.362,204.851c117.642,79.488 228.243,170.74 328.807,271.258c100.518,100.518 191.815,211.165 271.303,328.807c80.26,118.777 149.164,245.731 204.851,377.362c56.732,134.084 100.245,274.392 129.451,417.015c29.933,146.348 45.149,297.012 45.149,447.72c0,150.709 -15.171,301.372 -45.149,447.72c-29.206,142.624 -72.72,282.931 -129.451,417.015c-55.687,131.632 -124.591,258.63 -204.851,377.362c-79.488,117.642 -170.74,228.243 -271.303,328.807c-100.518,100.518 -211.165,191.815 -328.807,271.303c-118.777,80.26 -245.731,149.164 -377.362,204.851c-134.084,56.732 -274.392,100.245 -417.015,129.451c-146.348,29.933 -297.012,45.149 -447.72,45.149Zm0,-4442.593c-150.709,0 -301.281,15.171 -447.584,45.104c-142.578,29.161 -282.84,72.72 -416.879,129.406c-131.586,55.641 -258.54,124.546 -377.272,204.76c-117.596,79.442 -228.198,170.694 -328.67,271.167c-100.518,100.518 -191.724,211.074 -271.167,328.716c-80.214,118.732 -149.119,245.64 -204.76,377.272c-56.686,134.039 -100.245,274.301 -129.406,416.879c-29.933,146.303 -45.104,296.921 -45.104,447.584c0,150.663 15.171,301.281 45.104,447.584c29.161,142.578 72.72,282.84 129.406,416.879c55.641,131.586 124.546,258.54 204.76,377.272c79.442,117.596 170.694,228.198 271.167,328.67c100.518,100.518 211.074,191.724 328.67,271.212c118.732,80.214 245.685,149.119 377.272,204.76c134.039,56.686 274.301,100.245 416.879,129.406c146.303,29.933 296.921,45.104 447.584,45.104c150.663,0 301.281,-15.171 447.584,-45.104c142.578,-29.161 282.84,-72.72 416.879,-129.406c131.586,-55.641 258.54,-124.546 377.272,-204.76c117.596,-79.442 228.198,-170.694 328.67,-271.212c100.473,-100.518 191.724,-211.074 271.212,-328.67c80.214,-118.732 149.119,-245.685 204.76,-377.272c56.686,-134.039 100.245,-274.301 129.406,-416.879c29.933,-146.303 45.104,-296.921 45.104,-447.584c0,-150.663 -15.171,-301.281 -45.104,-447.584c-29.161,-142.578 -72.72,-282.84 -129.406,-416.879c-55.641,-131.586 -124.546,-258.54 -204.76,-377.272c-79.442,-117.596 -170.694,-228.198 -271.212,-328.716c-100.518,-100.518 -211.074,-191.724 -328.67,-271.167c-118.732,-80.214 -245.685,-149.119 -377.272,-204.76c-134.039,-56.686 -274.301,-100.245 -416.879,-129.406c-146.303,-29.933 -296.921,-45.104 -447.584,-45.104Z" style="fill:#e63323;fill-rule:nonzero;stroke:#e63323;stroke-width:0.8px;"/><path d="M486.086,3267.912c-147.529,0 -294.968,-14.853 -438.227,-44.195c-139.626,-28.57 -276.935,-71.221 -408.204,-126.726c-128.861,-54.506 -253.134,-121.957 -369.368,-200.491c-115.144,-77.807 -223.429,-167.151 -321.812,-265.535c-98.429,-98.383 -187.727,-206.668 -265.535,-321.812c-78.534,-116.234 -145.985,-240.507 -200.491,-369.368c-55.505,-131.223 -98.156,-268.578 -126.726,-408.204c-29.297,-143.26 -44.195,-290.698 -44.195,-438.227c0,-147.529 14.853,-294.968 44.195,-438.227c28.57,-139.626 71.221,-276.935 126.726,-408.204c54.506,-128.861 121.957,-253.134 200.491,-369.368c77.807,-115.144 167.106,-223.429 265.535,-321.812c98.383,-98.383 206.668,-187.727 321.812,-265.535c116.234,-78.534 240.507,-145.985 369.368,-200.491c131.223,-55.505 268.578,-98.156 408.204,-126.726c143.26,-29.297 290.698,-44.195 438.227,-44.195c147.529,0 294.968,14.853 438.227,44.195c139.626,28.57 276.935,71.221 408.204,126.726c128.861,54.506 253.134,121.957 369.368,200.491c115.144,77.807 223.429,167.151 321.812,265.535c98.383,98.429 187.727,206.668 265.535,321.812c78.534,116.234 145.985,240.507 200.491,369.368c55.505,131.223 98.156,268.578 126.726,408.204c29.297,143.26 44.195,290.698 44.195,438.227c0,147.529 -14.853,294.968 -44.195,438.227c-28.57,139.626 -71.221,276.935 -126.726,408.204c-54.506,128.861 -121.957,253.134 -200.491,369.368c-77.807,115.144 -167.151,223.429 -265.535,321.812c-98.383,98.383 -206.668,187.727 -321.812,265.535c-116.234,78.534 -240.507,145.985 -369.368,200.491c-131.223,55.505 -268.578,98.156 -408.204,126.726c-143.26,29.297 -290.698,44.195 -438.227,44.195Zm0,-4348.025c-147.484,0 -294.831,14.853 -438.046,44.15c-139.535,28.57 -276.799,71.176 -407.977,126.635c-128.77,54.46 -252.998,121.911 -369.187,200.4c-115.098,77.762 -223.292,167.061 -321.676,265.398c-98.338,98.338 -187.637,206.577 -265.398,321.676c-78.488,116.188 -145.94,240.416 -200.4,369.187c-55.505,131.177 -98.111,268.441 -126.635,407.977c-29.297,143.169 -44.15,290.562 -44.15,438.046c0,147.484 14.853,294.831 44.15,438.046c28.57,139.535 71.176,276.799 126.635,407.977c54.46,128.77 121.911,252.998 200.4,369.187c77.762,115.098 167.061,223.338 265.398,321.676c98.338,98.338 206.577,187.637 321.676,265.398c116.188,78.488 240.416,145.94 369.187,200.4c131.177,55.505 268.441,98.111 407.977,126.635c143.169,29.297 290.562,44.15 438.046,44.15c147.484,0 294.831,-14.853 438.046,-44.15c139.535,-28.57 276.799,-71.176 407.977,-126.635c128.77,-54.46 252.998,-121.911 369.187,-200.4c115.098,-77.762 223.338,-167.061 321.676,-265.398c98.338,-98.338 187.637,-206.577 265.398,-321.676c78.488,-116.188 145.94,-240.416 200.4,-369.187c55.505,-131.177 98.111,-268.441 126.635,-407.977c29.297,-143.169 44.15,-290.562 44.15,-438.046c0,-147.484 -14.853,-294.831 -44.15,-438.046c-28.57,-139.535 -71.176,-276.799 -126.635,-407.977c-54.46,-128.77 -121.911,-252.998 -200.4,-369.187c-77.762,-115.098 -167.061,-223.338 -265.398,-321.676c-98.338,-98.338 -206.577,-187.637 -321.676,-265.398c-116.188,-78.488 -240.416,-145.94 -369.187,-200.4c-131.177,-55.505 -268.441,-98.111 -407.977,-126.635c-143.169,-29.297 -290.562,-44.15 -438.046,-44.15Z" style="fill:#e63323;fill-rule:nonzero;stroke:#e63323;stroke-width:0.8px;"/><path d="M486.086,3220.855c-287.201,0 -565.817,-56.232 -828.126,-167.197c-126.045,-53.325 -247.638,-119.322 -361.374,-196.13c-112.645,-76.127 -218.569,-163.518 -314.862,-259.766c-96.294,-96.294 -183.685,-202.217 -259.766,-314.862c-76.853,-113.736 -142.851,-235.329 -196.13,-361.374c-110.919,-262.264 -167.197,-540.88 -167.197,-828.126c0,-287.246 56.232,-565.817 167.197,-828.126c53.325,-126.045 119.322,-247.638 196.13,-361.374c76.127,-112.645 163.518,-218.569 259.766,-314.862c96.294,-96.294 202.217,-183.685 314.862,-259.766c113.736,-76.853 235.329,-142.851 361.374,-196.13c262.264,-110.919 540.88,-167.197 828.126,-167.197c287.246,0 565.817,56.232 828.126,167.197c126.045,53.325 247.638,119.322 361.374,196.13c112.645,76.127 218.614,163.518 314.862,259.766c96.294,96.294 183.685,202.217 259.766,314.862c76.853,113.736 142.851,235.329 196.13,361.374c110.919,262.264 167.197,540.88 167.197,828.126c0,287.246 -56.232,565.817 -167.197,828.126c-53.325,126.045 -119.322,247.638 -196.13,361.374c-76.127,112.645 -163.518,218.569 -259.766,314.862c-96.294,96.294 -202.217,183.685 -314.862,259.766c-113.736,76.853 -235.329,142.851 -361.374,196.13c-262.264,110.919 -540.88,167.197 -828.126,167.197Zm0,-4253.548c-287.019,0 -565.453,56.232 -827.536,167.061c-125.999,53.28 -247.502,119.232 -361.147,196.04c-112.6,76.036 -218.432,163.427 -314.635,259.63c-96.203,96.203 -183.549,202.081 -259.63,314.635c-76.808,113.645 -142.715,235.147 -196.04,361.147c-110.874,262.128 -167.061,540.517 -167.061,827.536c0,287.019 56.232,565.453 167.061,827.536c53.28,125.999 119.232,247.502 196.04,361.147c76.036,112.6 163.427,218.432 259.63,314.635c96.203,96.203 202.081,183.549 314.635,259.63c113.645,76.808 235.147,142.715 361.147,196.04c262.128,110.874 540.517,167.061 827.536,167.061c287.019,0 565.453,-56.232 827.581,-167.061c125.954,-53.28 247.502,-119.232 361.147,-196.04c112.6,-76.036 218.432,-163.427 314.635,-259.63c96.203,-96.203 183.549,-202.081 259.63,-314.635c76.808,-113.645 142.715,-235.147 196.04,-361.147c110.874,-262.128 167.061,-540.517 167.061,-827.536c0,-287.019 -56.232,-565.453 -167.061,-827.536c-53.28,-125.999 -119.232,-247.502 -196.04,-361.147c-76.036,-112.6 -163.427,-218.432 -259.63,-314.635c-96.203,-96.203 -202.081,-183.549 -314.635,-259.63c-113.645,-76.808 -235.147,-142.715 -361.147,-196.04c-262.128,-110.874 -540.562,-167.061 -827.581,-167.061Z" style="fill:#e63323;fill-rule:nonzero;stroke:#e63323;stroke-width:0.8px;"/><path d="M486.086,3173.753c-280.842,0 -553.28,-55.006 -809.776,-163.472c-247.729,-104.788 -470.204,-254.77 -661.293,-445.858c-191.043,-191.043 -341.071,-413.518 -445.858,-661.293c-108.467,-256.496 -163.472,-528.934 -163.472,-809.776c0,-280.842 55.006,-553.28 163.472,-809.776c104.788,-247.729 254.77,-470.204 445.858,-661.247c191.043,-191.043 413.563,-341.071 661.293,-445.858c256.496,-108.467 528.934,-163.472 809.776,-163.472c280.842,0 553.28,55.006 809.776,163.472c247.729,104.788 470.204,254.77 661.293,445.858c191.043,191.043 341.071,413.518 445.858,661.247c108.467,256.496 163.472,528.934 163.472,809.776c0,280.842 -55.006,553.28 -163.472,809.776c-104.788,247.729 -254.77,470.204 -445.858,661.293c-191.043,191.043 -413.518,341.071 -661.293,445.858c-256.496,108.467 -528.934,163.472 -809.776,163.472Zm0,-4158.981c-280.614,0 -552.826,54.96 -809.094,163.336c-247.502,104.697 -469.795,254.542 -660.702,445.449c-190.907,190.907 -340.753,413.2 -445.449,660.702c-108.376,256.269 -163.336,528.48 -163.336,809.094c0,280.614 54.96,552.826 163.336,809.094c104.697,247.502 254.542,469.795 445.449,660.702c190.907,190.907 413.2,340.798 660.702,445.449c256.269,108.376 528.48,163.336 809.094,163.336c280.614,0 552.826,-54.96 809.094,-163.336c247.502,-104.697 469.795,-254.542 660.702,-445.449c190.907,-190.907 340.798,-413.2 445.449,-660.702c108.376,-256.269 163.336,-528.48 163.336,-809.094c0,-280.614 -54.96,-552.826 -163.336,-809.094c-104.697,-247.502 -254.542,-469.795 -445.449,-660.702c-190.907,-190.907 -413.2,-340.798 -660.702,-445.449c-256.269,-108.376 -528.48,-163.336 -809.094,-163.336Z" style="fill:#e63323;fill-rule:nonzero;stroke:#e63323;stroke-width:0.8px;"/><path d="M486.086,3126.696c-274.483,0 -540.789,-53.779 -791.471,-159.793c-242.142,-102.426 -459.575,-249.001 -646.304,-435.775c-186.728,-186.728 -333.349,-404.207 -435.775,-646.304c-106.014,-250.682 -159.793,-516.943 -159.793,-791.471c0,-274.528 53.779,-540.789 159.793,-791.471c102.426,-242.142 249.001,-459.575 435.775,-646.304c186.728,-186.728 404.161,-333.349 646.304,-435.775c250.682,-106.014 516.943,-159.793 791.471,-159.793c274.528,0 540.789,53.779 791.471,159.793c242.142,102.426 459.575,249.001 646.304,435.775c186.728,186.728 333.349,404.207 435.775,646.304c106.014,250.682 159.793,516.943 159.793,791.471c0,274.528 -53.779,540.789 -159.793,791.471c-102.426,242.142 -249.001,459.575 -435.775,646.304c-186.728,186.728 -404.207,333.349 -646.304,435.775c-250.682,106.014 -516.943,159.793 -791.471,159.793Zm0,-4064.504c-274.21,0 -540.199,53.688 -790.608,159.611c-241.87,102.289 -459.076,248.774 -645.622,435.32c-186.546,186.546 -332.986,403.752 -435.275,645.622c-105.923,250.409 -159.611,516.398 -159.611,790.608c0,274.21 53.688,540.199 159.611,790.608c102.289,241.87 248.774,459.076 435.275,645.622c186.546,186.546 403.752,332.986 645.622,435.32c250.409,105.923 516.398,159.611 790.608,159.611c274.21,0 540.199,-53.688 790.608,-159.611c241.87,-102.289 459.076,-248.774 645.622,-435.32c186.546,-186.546 332.986,-403.752 435.32,-645.622c105.923,-250.409 159.611,-516.398 159.611,-790.608c0,-274.21 -53.688,-540.199 -159.611,-790.608c-102.289,-241.87 -248.774,-459.076 -435.32,-645.622c-186.546,-186.546 -403.752,-332.986 -645.622,-435.32c-250.409,-105.923 -516.398,-159.611 -790.608,-159.611Z" style="fill:#e63323;fill-rule:nonzero;stroke:#e63323;stroke-width:0.8px;"/><path d="M486.086,3079.594c-268.124,0 -528.253,-52.507 -773.121,-156.069c-236.51,-100.018 -448.947,-243.233 -631.36,-425.646c-182.413,-182.413 -325.627,-394.804 -425.646,-631.36c-103.561,-244.868 -156.069,-504.997 -156.069,-773.121c0,-268.124 52.507,-528.253 156.069,-773.121c100.018,-236.51 243.233,-448.947 425.646,-631.36c182.413,-182.413 394.804,-325.627 631.36,-425.646c244.868,-103.561 504.997,-156.069 773.121,-156.069c268.124,0 528.253,52.507 773.121,156.069c236.51,100.018 448.947,243.233 631.36,425.646c182.413,182.413 325.627,394.804 425.646,631.36c103.561,244.868 156.069,504.997 156.069,773.121c0,268.124 -52.507,528.253 -156.069,773.121c-100.018,236.51 -243.233,448.947 -425.646,631.36c-182.413,182.413 -394.804,325.627 -631.36,425.646c-244.868,103.561 -504.997,156.069 -773.121,156.069Zm0,-3969.982c-267.806,0 -527.572,52.462 -772.167,155.887c-236.238,99.927 -448.356,242.96 -630.542,425.146c-182.186,182.186 -325.218,394.35 -425.146,630.542c-103.425,244.55 -155.887,504.361 -155.887,772.167c0,267.806 52.462,527.617 155.887,772.167c99.927,236.238 242.96,448.356 425.146,630.542c182.186,182.186 394.35,325.218 630.542,425.146c244.55,103.425 504.361,155.887 772.167,155.887c267.806,0 527.617,-52.462 772.167,-155.887c236.238,-99.927 448.356,-242.96 630.542,-425.146c182.186,-182.186 325.218,-394.35 425.146,-630.542c103.425,-244.55 155.887,-504.361 155.887,-772.167c0,-267.806 -52.462,-527.572 -155.887,-772.167c-99.927,-236.238 -242.96,-448.356 -425.146,-630.542c-182.186,-182.186 -394.35,-325.218 -630.542,-425.146c-244.55,-103.425 -504.361,-155.887 -772.167,-155.887Z" style="fill:#e63323;fill-rule:nonzero;stroke:#e63323;stroke-width:0.8px;"/><path d="M486.086,3598.944c-338.254,0 -666.38,-66.225 -975.292,-196.903c-148.483,-62.773 -291.652,-140.534 -425.6,-231.014c-132.676,-89.617 -257.449,-192.587 -370.822,-305.96c-113.372,-113.372 -216.298,-238.145 -305.96,-370.822c-90.48,-133.948 -168.241,-277.117 -231.014,-425.6c-130.632,-308.912 -196.903,-637.038 -196.903,-975.292c0,-338.254 66.225,-666.38 196.903,-975.292c62.773,-148.483 140.534,-291.652 231.014,-425.6c89.617,-132.676 192.587,-257.449 305.96,-370.822c113.372,-113.372 238.145,-216.298 370.822,-305.96c133.948,-90.48 277.162,-168.241 425.6,-231.014c308.912,-130.632 637.038,-196.903 975.292,-196.903c338.254,0 666.38,66.225 975.292,196.903c148.483,62.773 291.652,140.534 425.6,231.014c132.676,89.617 257.449,192.587 370.822,305.96c113.372,113.372 216.298,238.145 305.96,370.822c90.48,133.948 168.241,277.162 231.014,425.6c130.632,308.912 196.903,637.038 196.903,975.292c0,338.254 -66.225,666.38 -196.903,975.292c-62.773,148.483 -140.534,291.652 -231.014,425.6c-89.617,132.676 -192.587,257.449 -305.96,370.822c-113.372,113.372 -238.145,216.298 -370.822,305.96c-133.948,90.48 -277.162,168.196 -425.6,231.014c-308.912,130.632 -637.038,196.903 -975.292,196.903Zm0,-5009.727c-338.073,0 -666.016,66.225 -974.747,196.812c-148.392,62.773 -291.516,140.443 -425.373,230.878c-132.586,89.571 -257.313,192.451 -370.595,305.778c-113.327,113.327 -216.207,238.009 -305.778,370.595c-90.434,133.857 -168.105,276.981 -230.878,425.373c-130.587,308.73 -196.812,636.674 -196.812,974.747c0,338.073 66.225,666.016 196.812,974.747c62.773,148.392 140.443,291.516 230.878,425.373c89.571,132.586 192.451,257.268 305.778,370.595c113.327,113.327 238.009,216.207 370.595,305.778c133.857,90.434 276.981,168.105 425.373,230.878c308.73,130.587 636.674,196.812 974.747,196.812c338.073,0 666.016,-66.225 974.747,-196.812c148.392,-62.773 291.516,-140.443 425.373,-230.878c132.586,-89.571 257.313,-192.451 370.595,-305.778c113.327,-113.327 216.207,-238.009 305.778,-370.595c90.434,-133.857 168.105,-276.981 230.878,-425.373c130.587,-308.73 196.812,-636.674 196.812,-974.747c0,-338.073 -66.225,-666.016 -196.812,-974.747c-62.773,-148.392 -140.443,-291.516 -230.878,-425.373c-89.571,-132.586 -192.451,-257.313 -305.778,-370.595c-113.327,-113.327 -238.009,-216.207 -370.595,-305.778c-133.857,-90.434 -276.981,-168.105 -425.373,-230.878c-308.73,-130.587 -636.674,-196.812 -974.747,-196.812Z" style="fill:#e63323;fill-rule:nonzero;stroke:#e63323;stroke-width:0.8px;"/><path d="M486.086,3551.66c-331.85,0 -653.798,-64.998 -956.896,-193.178c-145.667,-61.592 -286.156,-137.854 -417.561,-226.654c-130.178,-87.936 -252.589,-188.954 -363.827,-300.191c-111.237,-111.237 -212.255,-233.649 -300.191,-363.827c-88.799,-131.405 -165.062,-271.894 -226.654,-417.561c-128.18,-303.053 -193.178,-625.001 -193.178,-956.896c0,-331.895 64.998,-653.798 193.178,-956.896c61.592,-145.667 137.854,-286.156 226.654,-417.561c87.936,-130.178 188.954,-252.589 300.191,-363.827c111.237,-111.237 233.649,-212.255 363.827,-300.191c131.405,-88.799 271.894,-165.062 417.561,-226.654c303.053,-128.18 625.001,-193.178 956.896,-193.178c331.895,0 653.798,64.998 956.896,193.178c145.667,61.592 286.156,137.854 417.561,226.654c130.178,87.936 252.589,188.954 363.827,300.191c111.237,111.237 212.255,233.649 300.191,363.827c88.799,131.405 165.062,271.894 226.654,417.561c128.18,303.053 193.178,625.001 193.178,956.896c0,331.895 -64.998,653.798 -193.178,956.896c-61.592,145.667 -137.854,286.156 -226.654,417.561c-87.936,130.178 -188.954,252.589 -300.191,363.827c-111.237,111.237 -233.649,212.255 -363.827,300.191c-131.405,88.799 -271.894,165.062 -417.561,226.654c-303.053,128.18 -625.001,193.178 -956.896,193.178Zm0,-4915.159c-331.668,0 -653.435,64.953 -956.351,193.087c-145.576,61.592 -285.974,137.764 -417.333,226.517c-130.087,87.891 -252.453,188.817 -363.6,300.009c-111.192,111.192 -212.119,233.512 -300.009,363.6c-88.754,131.359 -164.971,271.757 -226.517,417.333c-128.134,302.916 -193.087,624.637 -193.087,956.351c0,331.714 64.953,653.435 193.087,956.351c61.592,145.576 137.764,285.974 226.517,417.333c87.891,130.087 188.817,252.453 300.009,363.6c111.192,111.192 233.512,212.119 363.6,300.009c131.359,88.754 271.757,164.971 417.333,226.517c302.916,128.134 624.637,193.087 956.351,193.087c331.714,0 653.435,-64.953 956.351,-193.087c145.576,-61.592 285.974,-137.809 417.333,-226.517c130.087,-87.891 252.453,-188.817 363.6,-300.009c111.192,-111.192 212.119,-233.512 300.009,-363.6c88.754,-131.359 164.971,-271.757 226.517,-417.333c128.134,-302.916 193.087,-624.637 193.087,-956.351c0,-331.714 -64.953,-653.435 -193.087,-956.351c-61.592,-145.576 -137.809,-285.974 -226.517,-417.333c-87.891,-130.087 -188.817,-252.453 -300.009,-363.6c-111.192,-111.147 -233.512,-212.119 -363.6,-300.009c-131.359,-88.754 -271.757,-164.971 -417.333,-226.517c-302.916,-128.134 -624.637,-193.087 -956.351,-193.087Z" style="fill:#e63323;fill-rule:nonzero;stroke:#e63323;stroke-width:0.8px;"/><g><path d="M486.086,1350.122c-141.579,0 -256.768,-115.189 -256.768,-256.768c0,-141.579 115.189,-256.768 256.768,-256.768c141.579,0 256.768,115.189 256.768,256.768c0,141.579 -115.189,256.768 -256.768,256.768Zm0,-472.611c-119.005,0 -215.843,96.839 -215.843,215.843c0,119.005 96.839,215.843 215.843,215.843c119.005,0 215.843,-96.839 215.843,-215.843c0,-119.005 -96.839,-215.843 -215.843,-215.843Z" style="fill:#e63323;fill-rule:nonzero;stroke:#e63323;stroke-width:0.8px;"/><path d="M486.086,1396.679c-167.242,0 -303.325,-136.083 -303.325,-303.325c0,-167.242 136.083,-303.325 303.325,-303.325c167.242,0 303.325,136.083 303.325,303.325c0,167.242 -136.083,303.325 -303.325,303.325Zm0,-567.134c-145.485,0 -263.808,118.369 -263.808,263.808c0,145.44 118.369,263.808 263.808,263.808c145.44,0 263.808,-118.369 263.808,-263.808c0,-145.44 -118.369,-263.808 -263.808,-263.808Z" style="fill:#e63323;fill-rule:nonzero;stroke:#e63323;stroke-width:0.8px;"/><path d="M486.086,1443.236c-192.905,0 -349.882,-156.977 -349.882,-349.882c0,-192.905 156.977,-349.882 349.882,-349.882c192.905,0 349.882,156.977 349.882,349.882c0,192.905 -156.977,349.882 -349.882,349.882Zm0,-661.656c-171.921,0 -311.774,139.853 -311.774,311.774c0,171.921 139.853,311.774 311.774,311.774c171.921,0 311.774,-139.853 311.774,-311.774c0,-171.921 -139.853,-311.774 -311.774,-311.774Z" style="fill:#e63323;fill-rule:nonzero;stroke:#e63323;stroke-width:0.8px;"/><path d="M486.086,1536.351c-244.277,0 -442.997,-198.719 -442.997,-442.997c0,-244.277 198.719,-442.997 442.997,-442.997c244.277,0 442.997,198.719 442.997,442.997c0,244.277 -198.719,442.997 -442.997,442.997Zm0,-850.701c-224.837,0 -407.704,182.913 -407.704,407.704c0,224.791 182.913,407.704 407.704,407.704c224.791,0 407.704,-182.913 407.704,-407.704c0,-224.791 -182.913,-407.704 -407.704,-407.704Z" style="fill:#e63323;fill-rule:nonzero;stroke:#e63323;stroke-width:0.8px;"/><path d="M486.086,1489.793c-218.614,0 -396.439,-177.825 -396.439,-396.439c0,-218.614 177.825,-396.439 396.439,-396.439c218.614,0 396.439,177.825 396.439,396.439c0,218.614 -177.825,396.439 -396.439,396.439Zm0,-756.178c-198.356,0 -359.739,161.383 -359.739,359.739c0,198.356 161.383,359.739 359.739,359.739c198.356,0 359.739,-161.383 359.739,-359.739c0,-198.356 -161.383,-359.739 -359.739,-359.739Z" style="fill:#e63323;fill-rule:nonzero;stroke:#e63323;stroke-width:0.8px;"/><path d="M486.086,1582.908c-269.94,0 -489.554,-219.613 -489.554,-489.554c0,-269.94 219.613,-489.554 489.554,-489.554c269.94,0 489.554,219.613 489.554,489.554c0,269.94 -219.613,489.554 -489.554,489.554Zm0,-945.223c-251.272,0 -455.669,204.397 -455.669,455.669c0,251.272 204.397,455.669 455.669,455.669c251.272,0 455.669,-204.397 455.669,-455.669c0,-251.272 -204.442,-455.669 -455.669,-455.669Z" style="fill:#e63323;fill-rule:nonzero;stroke:#e63323;stroke-width:0.8px;"/><path d="M486.086,1629.465c-295.604,0 -536.111,-240.507 -536.111,-536.111c0,-295.604 240.507,-536.111 536.111,-536.111c295.604,0 536.111,240.507 536.111,536.111c0,295.604 -240.507,536.111 -536.111,536.111Zm0,-1039.745c-277.707,0 -503.634,225.927 -503.634,503.634c0,277.707 225.927,503.634 503.634,503.634c277.707,0 503.634,-225.927 503.634,-503.634c0,-277.707 -225.927,-503.634 -503.634,-503.634Z" style="fill:#e63323;fill-rule:nonzero;stroke:#e63323;stroke-width:0.8px;"/><path d="M486.086,1676.022c-321.267,0 -582.668,-261.401 -582.668,-582.668c0,-321.267 261.356,-582.668 582.668,-582.668c321.312,0 582.668,261.356 582.668,582.668c0,321.312 -261.401,582.668 -582.668,582.668Zm0,-1134.267c-304.143,0 -551.6,247.457 -551.6,551.6c0,304.143 247.457,551.6 551.6,551.6c304.143,0 551.6,-247.457 551.6,-551.6c0,-304.143 -247.457,-551.6 -551.6,-551.6Z" style="fill:#e63323;fill-rule:nonzero;stroke:#e63323;stroke-width:0.8px;"/><path d="M486.086,2001.922c-500.955,0 -908.522,-407.568 -908.522,-908.568c0,-501 407.568,-908.568 908.522,-908.568c500.955,0 908.568,407.568 908.568,908.568c0,501 -407.568,908.568 -908.568,908.568Zm0,-1795.923c-489.281,0 -887.401,398.075 -887.401,887.401c0,489.327 398.075,887.401 887.401,887.401c489.327,0 887.401,-398.075 887.401,-887.401c0,-489.327 -398.075,-887.401 -887.401,-887.401Z" style="fill:#e63323;fill-rule:nonzero;stroke:#e63323;stroke-width:0.8px;"/><path d="M486.086,1955.365c-475.291,0 -862.011,-386.674 -862.011,-862.011c0,-475.337 386.674,-862.011 862.011,-862.011c475.337,0 862.011,386.674 862.011,862.011c0,475.337 -386.674,862.011 -862.011,862.011Zm0,-1701.401c-462.846,0 -839.436,376.545 -839.436,839.436c0,462.891 376.545,839.436 839.436,839.436c462.891,0 839.436,-376.545 839.436,-839.436c0,-462.891 -376.59,-839.436 -839.436,-839.436Z" style="fill:#e63323;fill-rule:nonzero;stroke:#e63323;stroke-width:0.8px;"/><path d="M486.086,1908.807c-449.628,0 -815.453,-365.825 -815.453,-815.453c0,-449.628 365.78,-815.453 815.453,-815.453c449.674,0 815.453,365.825 815.453,815.453c0,449.628 -365.825,815.453 -815.453,815.453Zm0,-1606.879c-436.41,0 -791.425,355.06 -791.425,791.425c0,436.365 355.06,791.471 791.425,791.471c436.365,0 791.471,-355.06 791.471,-791.471c0,-436.41 -355.06,-791.425 -791.471,-791.425Z" style="fill:#e63323;fill-rule:nonzero;stroke:#e63323;stroke-width:0.8px;"/><path d="M486.086,1862.25c-423.965,0 -768.896,-344.931 -768.896,-768.896c0,-423.965 344.931,-768.896 768.896,-768.896c423.965,0 768.896,344.931 768.896,768.896c0,423.965 -344.931,768.896 -768.896,768.896Zm0,-1512.357c-409.975,0 -743.506,333.531 -743.506,743.506c0,409.975 333.531,743.506 743.506,743.506c409.975,0 743.506,-333.531 743.506,-743.506c0,-409.975 -333.531,-743.506 -743.506,-743.506Z" style="fill:#e63323;fill-rule:nonzero;stroke:#e63323;stroke-width:0.8px;"/><path d="M486.086,1769.136c-372.639,0 -675.782,-303.144 -675.782,-675.782c0,-372.639 303.144,-675.782 675.782,-675.782c372.639,0 675.782,303.144 675.782,675.782c0,372.639 -303.144,675.782 -675.782,675.782Zm0,-1323.312c-357.059,0 -647.53,290.471 -647.53,647.53c0,357.059 290.471,647.53 647.53,647.53c357.059,0 647.53,-290.471 647.53,-647.53c0,-357.059 -290.471,-647.53 -647.53,-647.53Z" style="fill:#e63323;fill-rule:nonzero;stroke:#e63323;stroke-width:0.8px;"/><path d="M486.086,1815.693c-398.302,0 -722.339,-324.037 -722.339,-722.339c0,-398.302 324.037,-722.339 722.339,-722.339c398.302,0 722.339,324.037 722.339,722.339c0,398.302 -324.037,722.339 -722.339,722.339Zm0,-1417.834c-383.494,0 -695.495,312.001 -695.495,695.495c0,383.494 312.001,695.541 695.495,695.541c383.494,0 695.541,-312.001 695.541,-695.541c0,-383.54 -312.001,-695.495 -695.541,-695.495Z" style="fill:#e63323;fill-rule:nonzero;stroke:#e63323;stroke-width:0.8px;"/><path d="M486.086,1722.579c-346.93,0 -629.225,-282.25 -629.225,-629.225c0,-346.975 282.25,-629.225 629.225,-629.225c346.975,0 629.225,282.25 629.225,629.225c0,346.975 -282.25,629.225 -629.225,629.225Zm0,-1228.79c-330.624,0 -599.565,268.987 -599.565,599.565c0,330.578 268.987,599.565 599.565,599.565c330.578,0 599.61,-268.987 599.61,-599.565c0,-330.578 -268.987,-599.565 -599.61,-599.565Z" style="fill:#e63323;fill-rule:nonzero;stroke:#e63323;stroke-width:0.8px;"/><path d="M486.086,2141.593c-577.989,0 -1048.194,-470.25 -1048.194,-1048.239c0,-577.989 470.25,-1048.239 1048.194,-1048.239c577.944,0 1048.239,470.25 1048.239,1048.239c0,577.989 -470.25,1048.239 -1048.239,1048.239Zm0,-2079.49c-568.633,0 -1031.297,462.619 -1031.297,1031.297c0,568.678 462.619,1031.297 1031.297,1031.297c568.678,0 1031.297,-462.619 1031.297,-1031.297c0,-568.678 -462.619,-1031.297 -1031.297,-1031.297Z" style="fill:#e63323;fill-rule:nonzero;stroke:#e63323;stroke-width:0.8px;"/><path d="M486.086,2048.479c-526.663,0 -955.125,-428.462 -955.125,-955.125c0,-526.663 428.462,-955.125 955.125,-955.125c526.663,0 955.125,428.462 955.125,955.125c0,526.663 -428.462,955.125 -955.125,955.125Zm0,-1890.446c-515.762,0 -935.366,419.604 -935.366,935.366c0,515.762 419.604,935.366 935.366,935.366c515.762,0 935.366,-419.604 935.366,-935.366c0,-515.762 -419.604,-935.366 -935.366,-935.366Z" style="fill:#e63323;fill-rule:nonzero;stroke:#e63323;stroke-width:0.8px;"/><path d="M486.086,2095.036c-552.326,0 -1001.682,-449.356 -1001.682,-1001.682c0,-552.326 449.356,-1001.682 1001.682,-1001.682c552.326,0 1001.682,449.356 1001.682,1001.682c0,552.326 -449.356,1001.682 -1001.682,1001.682Zm0,-1984.968c-542.197,0 -983.332,441.134 -983.332,983.332c0,542.197 441.134,983.332 983.332,983.332c542.197,0 983.332,-441.134 983.332,-983.332c0,-542.197 -441.134,-983.332 -983.332,-983.332Z" style="fill:#e63323;fill-rule:nonzero;stroke:#e63323;stroke-width:0.8px;"/><path d="M480.545,1301.339l0,-42.333c91.479,0 168.696,-74.401 168.696,-165.88c0,-91.479 -77.217,-165.88 -168.696,-165.88l0,-42.333c114.826,0 211.029,93.387 211.029,208.212c0,114.826 -96.203,208.212 -211.029,208.212Z" style="fill:#e63323;fill-rule:nonzero;stroke:#e63323;stroke-width:0.8px;"/><path d="M480.545,1250.376l0,-43.741c62.591,0 116.325,-50.918 116.325,-113.509c0,-62.591 -53.734,-113.509 -116.325,-113.509l0,-43.741c86.71,0 160.066,70.54 160.066,157.249c0,86.71 -73.356,157.249 -160.066,157.249Z" style="fill:#e63323;fill-rule:nonzero;stroke:#e63323;stroke-width:0.8px;"/></g><path d="M485.996,1195.825l-5.632,0l0,-40.38l5.632,0c33.657,0 61.092,-27.389 61.092,-61.092c0,-33.703 -27.389,-61.092 -61.092,-61.092l-5.632,0l0,-40.38l5.632,0c55.914,0 101.426,45.512 101.426,101.426c0,55.914 -45.512,101.426 -101.426,101.426l0,0.091Z" style="fill:#e63323;fill-rule:nonzero;stroke:#e63323;stroke-width:0.8px;"/></g></g></g></g></svg>